M48
; DRILL file {KiCad 6.0.11+dfsg-1} date Mi 31 Mai 2023 16:10:59
; FORMAT={-:-/ absolute / metric / decimal}
; #@! TF.CreationDate,2023-05-31T16:10:59+02:00
; #@! TF.GenerationSoftware,Kicad,Pcbnew,6.0.11+dfsg-1
; #@! TF.FileFunction,Plated,1,2,PTH
FMAT,2
METRIC
; #@! TA.AperFunction,Plated,PTH,ViaDrill
T1C0.600
; #@! TA.AperFunction,Plated,PTH,ComponentDrill
T2C0.650
; #@! TA.AperFunction,Plated,PTH,ComponentDrill
T3C0.920
; #@! TA.AperFunction,Plated,PTH,ComponentDrill
T4C1.000
; #@! TA.AperFunction,Plated,PTH,ComponentDrill
T5C1.200
; #@! TA.AperFunction,Plated,PTH,ComponentDrill
T6C1.600
; #@! TA.AperFunction,Plated,PTH,ComponentDrill
T7C2.100
; #@! TA.AperFunction,Plated,PTH,ComponentDrill
T8C2.330
; #@! TA.AperFunction,Plated,PTH,ComponentDrill
T9C3.400
; #@! TA.AperFunction,Plated,PTH,ComponentDrill
T10C4.000
%
G90
G05
T1
X63.9Y-112.549
X65.2Y-112.549
X66.5Y-112.549
X78.065Y-112.709
X84.84Y-93.869
X102.35Y-112.549
X103.65Y-112.549
X104.95Y-112.549
X110.07Y-82.669
X114.57Y-99.369
X115.87Y-82.869
X119.77Y-99.069
X121.666Y-91.845
X121.666Y-89.281
X123.48Y-94.099
X124.46Y-104.267
X125.77Y-99.469
X127.56Y-83.439
X127.95Y-112.549
X129.022Y-94.424
X129.25Y-112.549
X130.302Y-87.249
X130.55Y-112.549
X131.826Y-91.059
X131.889Y-97.091
X132.07Y-100.869
X133.5Y-86.299
X133.87Y-102.669
X133.915Y-93.227
X136.779Y-101.536
X139.966Y-87.365
X140.462Y-89.281
X140.462Y-102.616
X153.05Y-112.549
X154.35Y-112.549
X155.65Y-112.549
X176.616Y-101.282
X176.616Y-98.361
X184.6Y-112.549
X185.9Y-112.549
X187.2Y-112.549
X193.23Y-102.5
X204.5Y-102.5
X206.55Y-112.549
X207.85Y-112.549
X209.15Y-112.549
X210.44Y-102.599
X210.46Y-104.019
X210.49Y-105.499
X210.5Y-106.999
X210.51Y-79.799
X210.6Y-117.379
T2
X108.077Y-87.884
X108.077Y-89.154
X108.077Y-90.424
X108.077Y-91.694
X108.077Y-92.964
X109.347Y-87.884
X109.347Y-89.154
X109.347Y-90.424
X109.347Y-91.694
X109.347Y-92.964
T3
X81.07Y-83.0
X81.07Y-85.0
X83.57Y-83.0
X83.57Y-85.0
T4
X113.284Y-85.059
X113.284Y-87.599
X113.284Y-90.139
X113.284Y-92.679
X113.284Y-95.219
X114.5Y-80.0
X117.04Y-80.0
X119.58Y-80.0
X122.12Y-80.0
X124.66Y-80.0
X127.2Y-80.0
X129.74Y-80.0
X132.28Y-80.0
X134.82Y-80.0
X137.36Y-80.0
X139.9Y-80.0
X142.44Y-80.0
X144.98Y-80.0
X147.52Y-80.0
X150.06Y-80.0
X152.6Y-80.0
X170.4Y-82.0
X172.94Y-82.0
X175.48Y-82.0
X178.02Y-82.0
X180.56Y-82.0
X183.1Y-82.0
X185.64Y-82.0
X188.18Y-82.0
X190.72Y-82.0
X193.26Y-82.0
X195.8Y-82.0
X198.34Y-82.0
X201.88Y-82.0
X204.42Y-82.0
X206.96Y-82.0
X207.27Y-84.649
X207.27Y-87.189
X207.27Y-89.729
X207.27Y-92.269
X209.5Y-82.0
X221.0Y-99.822
X221.0Y-102.362
X221.0Y-104.902
X221.0Y-107.442
T5
X92.4Y-76.769
X92.4Y-84.389
T6
X64.0Y-104.669
X64.0Y-109.749
X78.06Y-101.0
X78.06Y-110.469
X83.14Y-101.0
X83.14Y-110.469
X215.5Y-93.92
X215.5Y-99.0
T7
X87.9Y-88.199
T8
X76.3Y-80.29
X88.34Y-80.29
T9
X72.47Y-80.169
X96.5Y-80.199
T10
X68.0Y-120.3
X226.0Y-120.5
T0
M30
