G04 #@! TF.GenerationSoftware,KiCad,Pcbnew,9.0.7+dfsg-1*
G04 #@! TF.CreationDate,2026-02-12T00:04:32+01:00*
G04 #@! TF.ProjectId,ctrl-m,6374726c-2d6d-42e6-9b69-6361645f7063,1.2*
G04 #@! TF.SameCoordinates,Original*
G04 #@! TF.FileFunction,Copper,L1,Top*
G04 #@! TF.FilePolarity,Positive*
%FSLAX46Y46*%
G04 Gerber Fmt 4.6, Leading zero omitted, Abs format (unit mm)*
G04 Created by KiCad (PCBNEW 9.0.7+dfsg-1) date 2026-02-12 00:04:32*
%MOMM*%
%LPD*%
G01*
G04 APERTURE LIST*
G04 #@! TA.AperFunction,ComponentPad*
%ADD10R,1.700000X1.700000*%
G04 #@! TD*
G04 #@! TA.AperFunction,ComponentPad*
%ADD11C,1.700000*%
G04 #@! TD*
G04 #@! TA.AperFunction,ComponentPad*
%ADD12C,3.500000*%
G04 #@! TD*
G04 #@! TA.AperFunction,ComponentPad*
%ADD13R,1.000000X1.000000*%
G04 #@! TD*
G04 #@! TA.AperFunction,ComponentPad*
%ADD14O,1.000000X1.000000*%
G04 #@! TD*
G04 #@! TA.AperFunction,ComponentPad*
%ADD15O,1.700000X1.700000*%
G04 #@! TD*
G04 #@! TA.AperFunction,ComponentPad*
%ADD16C,2.400000*%
G04 #@! TD*
G04 #@! TA.AperFunction,ComponentPad*
%ADD17C,2.200000*%
G04 #@! TD*
G04 #@! TA.AperFunction,ComponentPad*
%ADD18C,8.000000*%
G04 #@! TD*
G04 #@! TA.AperFunction,ComponentPad*
%ADD19C,4.000000*%
G04 #@! TD*
G04 #@! TA.AperFunction,ComponentPad*
%ADD20C,2.500000*%
G04 #@! TD*
G04 #@! TA.AperFunction,ViaPad*
%ADD21C,1.200000*%
G04 #@! TD*
G04 #@! TA.AperFunction,Conductor*
%ADD22C,0.600000*%
G04 #@! TD*
G04 #@! TA.AperFunction,Conductor*
%ADD23C,0.250000*%
G04 #@! TD*
G04 APERTURE END LIST*
D10*
X130000000Y-101999000D03*
D11*
X127460000Y-101999000D03*
X124920000Y-101999000D03*
X122380000Y-101999000D03*
X119840000Y-101999000D03*
X117300000Y-101999000D03*
X114760000Y-101999000D03*
X112220000Y-101999000D03*
D10*
X81070000Y-85000000D03*
D11*
X83570000Y-85000000D03*
X83570000Y-83000000D03*
X81070000Y-83000000D03*
D12*
X76300000Y-80290000D03*
X88340000Y-80290000D03*
D13*
X109347000Y-92964000D03*
D14*
X108077000Y-92964000D03*
X109347000Y-91694000D03*
X108077000Y-91694000D03*
X109347000Y-90424000D03*
X108077000Y-90424000D03*
X109347000Y-89154000D03*
X108077000Y-89154000D03*
X109347000Y-87884000D03*
X108077000Y-87884000D03*
D10*
X152600000Y-80000000D03*
D15*
X150060000Y-80000000D03*
X147520000Y-80000000D03*
X144980000Y-80000000D03*
X142440000Y-80000000D03*
X139900000Y-80000000D03*
X137360000Y-80000000D03*
X134820000Y-80000000D03*
X132280000Y-80000000D03*
X129740000Y-80000000D03*
X127200000Y-80000000D03*
X124660000Y-80000000D03*
X122120000Y-80000000D03*
X119580000Y-80000000D03*
X117040000Y-80000000D03*
X114500000Y-80000000D03*
D10*
X170400000Y-82000000D03*
D15*
X172940000Y-82000000D03*
X175480000Y-82000000D03*
X178020000Y-82000000D03*
X180560000Y-82000000D03*
X183100000Y-82000000D03*
X185640000Y-82000000D03*
X188180000Y-82000000D03*
X190720000Y-82000000D03*
X193260000Y-82000000D03*
X195800000Y-82000000D03*
X198340000Y-82000000D03*
D10*
X201880000Y-82000000D03*
D15*
X204420000Y-82000000D03*
X206960000Y-82000000D03*
X209500000Y-82000000D03*
D16*
X215500000Y-93920000D03*
X215500000Y-99000000D03*
X64000000Y-109749000D03*
X64000000Y-104669000D03*
X78060000Y-101000000D03*
X83140000Y-101000000D03*
D10*
X221000000Y-99822000D03*
D15*
X221000000Y-102362000D03*
X221000000Y-104902000D03*
X221000000Y-107442000D03*
D10*
X113284000Y-85059000D03*
D15*
X113284000Y-87599000D03*
X113284000Y-90139000D03*
X113284000Y-92679000D03*
X113284000Y-95219000D03*
D16*
X83140000Y-110469000D03*
X78060000Y-110469000D03*
D10*
X207270000Y-92269000D03*
D15*
X207270000Y-89729000D03*
X207270000Y-87189000D03*
X207270000Y-84649000D03*
D17*
X92400000Y-76769000D03*
X92400000Y-84389000D03*
D18*
X68000000Y-120300000D03*
X226000000Y-120500000D03*
D19*
X72470000Y-80169000D03*
X96500000Y-80199000D03*
D20*
X87900000Y-87000000D03*
D21*
X184600000Y-112549000D03*
X187200000Y-112549000D03*
X153050000Y-112549000D03*
X102350000Y-112549000D03*
X207850000Y-112549000D03*
X130550000Y-112549000D03*
X104950000Y-112549000D03*
X185900000Y-112549000D03*
X155650000Y-112549000D03*
X209150000Y-112549000D03*
X103650000Y-112549000D03*
X206550000Y-112549000D03*
X129250000Y-112549000D03*
X154350000Y-112549000D03*
X127950000Y-112549000D03*
X96700000Y-99369000D03*
X101900000Y-99069000D03*
X106590000Y-104267000D03*
X107900000Y-99469000D03*
X84840000Y-93869000D03*
X136779000Y-101536500D03*
X131826000Y-91059000D03*
X210510000Y-79799000D03*
X133915328Y-93227010D03*
X133500001Y-86299001D03*
X123480000Y-94099000D03*
X129022064Y-94423520D03*
X131889500Y-97091500D03*
X110070000Y-82669000D03*
X139965501Y-87364501D03*
X210500000Y-106999000D03*
X140462000Y-102616000D03*
X204499998Y-102500000D03*
X121666022Y-89281000D03*
X121666000Y-91844996D03*
X140462000Y-89281000D03*
X130302000Y-87249000D03*
X193230500Y-102500000D03*
X66500000Y-112549000D03*
X65200000Y-112549000D03*
X210600000Y-117379000D03*
X63900000Y-112549000D03*
X78065010Y-112709000D03*
X127560000Y-83439000D03*
X115869986Y-82869000D03*
X210460000Y-104019000D03*
X176616002Y-98361500D03*
X210490000Y-105499000D03*
X132070007Y-100868993D03*
X133870014Y-102669000D03*
X176616000Y-101282500D03*
X210440000Y-102599000D03*
D22*
X95228000Y-99369000D02*
X88500000Y-99369000D01*
X88500000Y-99369000D02*
X88500000Y-97529000D01*
X113284000Y-97215000D02*
X128806064Y-97215000D01*
X128806064Y-97215000D02*
X129022064Y-96999000D01*
X107900000Y-99469000D02*
X111030000Y-99469000D01*
X111030000Y-99469000D02*
X113284000Y-97215000D01*
X113284000Y-97215000D02*
X113284000Y-95219000D01*
X111379000Y-90424000D02*
X111506000Y-90551000D01*
X97000000Y-99069000D02*
X96700000Y-99369000D01*
X109347000Y-87884000D02*
X109347000Y-84146000D01*
X81070000Y-83000000D02*
X79867919Y-83000000D01*
X101900000Y-99069000D02*
X97000000Y-99069000D01*
X131826000Y-91059000D02*
X131826000Y-87973002D01*
X139777837Y-87364501D02*
X139965501Y-87364501D01*
X110236000Y-87884000D02*
X111506000Y-89154000D01*
X109347000Y-90424000D02*
X111379000Y-90424000D01*
X88500000Y-97529000D02*
X84840000Y-93869000D01*
X79375000Y-88404000D02*
X84840000Y-93869000D01*
X79375000Y-83492919D02*
X79375000Y-88404000D01*
X133915328Y-93227010D02*
X139777837Y-87364501D01*
X107900000Y-102957000D02*
X106590000Y-104267000D01*
X79867919Y-83000000D02*
X79375000Y-83492919D01*
X102300000Y-99469000D02*
X101900000Y-99069000D01*
X136779000Y-101536500D02*
X132334000Y-97091500D01*
X128787544Y-94189000D02*
X129022064Y-94423520D01*
X129022064Y-93862936D02*
X129022064Y-94423520D01*
X109347000Y-83392000D02*
X109347000Y-84146000D01*
X107900000Y-99469000D02*
X102300000Y-99469000D01*
X111506000Y-90551000D02*
X111506000Y-91694000D01*
X129022064Y-96999000D02*
X129022064Y-95413469D01*
X129221520Y-94423520D02*
X129022064Y-94423520D01*
X113284000Y-95219000D02*
X111506000Y-93441000D01*
X131826000Y-91059000D02*
X129022064Y-93862936D01*
X109347000Y-87884000D02*
X110236000Y-87884000D01*
X107900000Y-99469000D02*
X107900000Y-102957000D01*
X109347000Y-91694000D02*
X111506000Y-91694000D01*
X131889500Y-97091500D02*
X129221520Y-94423520D01*
X111506000Y-93441000D02*
X111506000Y-92964000D01*
X133915328Y-93148328D02*
X133915328Y-93227010D01*
X110070000Y-82669000D02*
X109347000Y-83392000D01*
X123480000Y-94189000D02*
X128787544Y-94189000D01*
X129022064Y-95413469D02*
X129022064Y-94423520D01*
X96700000Y-99369000D02*
X95228000Y-99369000D01*
X111506000Y-89154000D02*
X111506000Y-90551000D01*
X132334000Y-97091500D02*
X131889500Y-97091500D01*
X131826000Y-91059000D02*
X133915328Y-93148328D01*
X131826000Y-87973002D02*
X133500001Y-86299001D01*
X111506000Y-92964000D02*
X111506000Y-91694000D01*
X132876001Y-84674999D02*
X139430001Y-84674999D01*
X204420000Y-89759000D02*
X204420000Y-102420002D01*
X121666000Y-89281000D02*
X121666022Y-89281000D01*
X204420000Y-102420002D02*
X204499998Y-102500000D01*
X140462000Y-89281000D02*
X140462000Y-102616000D01*
X139430001Y-84674999D02*
X141270000Y-86514998D01*
X204450000Y-89729000D02*
X204420000Y-89759000D01*
X123698000Y-87249000D02*
X121666000Y-89281000D01*
X207270000Y-89729000D02*
X204450000Y-89729000D01*
X141270000Y-88473000D02*
X140462000Y-89281000D01*
X121666000Y-89281000D02*
X121666000Y-91844996D01*
X141270000Y-86514998D02*
X141270000Y-88473000D01*
X193260000Y-82000000D02*
X193260000Y-102278010D01*
X130302000Y-87249000D02*
X132876001Y-84674999D01*
X130302000Y-87249000D02*
X123698000Y-87249000D01*
X193260000Y-102278010D02*
X193230500Y-102307510D01*
D23*
X115869986Y-82869000D02*
X126990000Y-82869000D01*
X126990000Y-82869000D02*
X127560000Y-83439000D01*
X176616002Y-98361500D02*
X176616002Y-101282498D01*
X176616002Y-101282498D02*
X176616000Y-101282500D01*
X133870014Y-102669000D02*
X132070007Y-100868993D01*
X215323000Y-105499000D02*
X221000000Y-99822000D01*
X210490000Y-105499000D02*
X215323000Y-105499000D01*
X206300000Y-83679000D02*
X200019000Y-83679000D01*
X207270000Y-84649000D02*
X206300000Y-83679000D01*
X200019000Y-83679000D02*
X198340000Y-82000000D01*
X205239000Y-80279000D02*
X206960000Y-82000000D01*
X195800000Y-82000000D02*
X197521000Y-80279000D01*
X197521000Y-80279000D02*
X205239000Y-80279000D01*
G04 #@! TA.AperFunction,Conductor*
G36*
X209838790Y-75402277D02*
G01*
X209906862Y-75422433D01*
X209953232Y-75476195D01*
X209964500Y-75528276D01*
X209964500Y-77279038D01*
X209964471Y-77373723D01*
X209964472Y-77373729D01*
X209999171Y-77559959D01*
X209999174Y-77559970D01*
X210067401Y-77736703D01*
X210166853Y-77897958D01*
X210294148Y-78038256D01*
X210294153Y-78038261D01*
X210294157Y-78038264D01*
X210444997Y-78152872D01*
X210445001Y-78152874D01*
X210614290Y-78237917D01*
X210796293Y-78290512D01*
X210984850Y-78308880D01*
X211173582Y-78292399D01*
X211356102Y-78241626D01*
X211526233Y-78158280D01*
X211678219Y-78045181D01*
X211806918Y-77906156D01*
X211907973Y-77745910D01*
X211977967Y-77569864D01*
X212014529Y-77383975D01*
X212015124Y-77322564D01*
X212015347Y-77299664D01*
X212015450Y-77299563D01*
X212015450Y-77289131D01*
X212015531Y-77280970D01*
X212015530Y-77280969D01*
X212015708Y-77263100D01*
X212015450Y-77261413D01*
X212015487Y-75533509D01*
X212035491Y-75465393D01*
X212089147Y-75418901D01*
X212141772Y-75407516D01*
X230379287Y-75449003D01*
X230447362Y-75469160D01*
X230493732Y-75522922D01*
X230505000Y-75575003D01*
X230505000Y-110566056D01*
X230484998Y-110634177D01*
X230431342Y-110680670D01*
X230379268Y-110692056D01*
X212121768Y-110730839D01*
X212053605Y-110710981D01*
X212006998Y-110657425D01*
X211995500Y-110604839D01*
X211995500Y-109893977D01*
X211995500Y-109893973D01*
X211960577Y-109707156D01*
X211891922Y-109529937D01*
X211791872Y-109368351D01*
X211791871Y-109368349D01*
X211663838Y-109227904D01*
X211663836Y-109227903D01*
X211663834Y-109227900D01*
X211512169Y-109113367D01*
X211342040Y-109028653D01*
X211342035Y-109028651D01*
X211342031Y-109028650D01*
X211159238Y-108976642D01*
X210970005Y-108959107D01*
X210969995Y-108959107D01*
X210780763Y-108976642D01*
X210780759Y-108976642D01*
X210597968Y-109028650D01*
X210597960Y-109028653D01*
X210427829Y-109113368D01*
X210276161Y-109227904D01*
X210148128Y-109368349D01*
X210048081Y-109529930D01*
X210048076Y-109529941D01*
X209979424Y-109707151D01*
X209979422Y-109707158D01*
X209944501Y-109893962D01*
X209944500Y-109893977D01*
X209944500Y-110609733D01*
X209924498Y-110677854D01*
X209870842Y-110724347D01*
X209818768Y-110735733D01*
X86486268Y-110997731D01*
X86418105Y-110977873D01*
X86371498Y-110924317D01*
X86360000Y-110871731D01*
X86360000Y-101892126D01*
X110862000Y-101892126D01*
X110862000Y-102105873D01*
X110895440Y-102317003D01*
X110961490Y-102520286D01*
X110961493Y-102520292D01*
X111058535Y-102710748D01*
X111058536Y-102710750D01*
X111096620Y-102763167D01*
X111096621Y-102763168D01*
X111735841Y-102123947D01*
X111754075Y-102191993D01*
X111819901Y-102306007D01*
X111912993Y-102399099D01*
X112027007Y-102464925D01*
X112095051Y-102483157D01*
X111455831Y-103122378D01*
X111508249Y-103160463D01*
X111508251Y-103160464D01*
X111698707Y-103257506D01*
X111698713Y-103257509D01*
X111901996Y-103323559D01*
X112113126Y-103357000D01*
X112326874Y-103357000D01*
X112538003Y-103323559D01*
X112741286Y-103257509D01*
X112741292Y-103257506D01*
X112931750Y-103160463D01*
X112984167Y-103122378D01*
X112984167Y-103122376D01*
X112344948Y-102483157D01*
X112412993Y-102464925D01*
X112527007Y-102399099D01*
X112620099Y-102306007D01*
X112685925Y-102191993D01*
X112704157Y-102123948D01*
X113343376Y-102763167D01*
X113343378Y-102763167D01*
X113381459Y-102710756D01*
X113382259Y-102709451D01*
X113382694Y-102709057D01*
X113384377Y-102706741D01*
X113384863Y-102707094D01*
X113434897Y-102661809D01*
X113504936Y-102650188D01*
X113570140Y-102678278D01*
X113595097Y-102707075D01*
X113595196Y-102707004D01*
X113596025Y-102708145D01*
X113597136Y-102709427D01*
X113598103Y-102711006D01*
X113673518Y-102814806D01*
X113723794Y-102884004D01*
X113723796Y-102884006D01*
X113723798Y-102884009D01*
X113874990Y-103035201D01*
X113874993Y-103035203D01*
X113874996Y-103035206D01*
X114047991Y-103160894D01*
X114238517Y-103257972D01*
X114441878Y-103324047D01*
X114441879Y-103324047D01*
X114441884Y-103324049D01*
X114653084Y-103357500D01*
X114653087Y-103357500D01*
X114866913Y-103357500D01*
X114866916Y-103357500D01*
X115078116Y-103324049D01*
X115281483Y-103257972D01*
X115472009Y-103160894D01*
X115645004Y-103035206D01*
X115796206Y-102884004D01*
X115921894Y-102711009D01*
X115921899Y-102710997D01*
X115922561Y-102709920D01*
X115922924Y-102709591D01*
X115924804Y-102707004D01*
X115925347Y-102707398D01*
X115975204Y-102662283D01*
X116045244Y-102650670D01*
X116110445Y-102678766D01*
X116135021Y-102707130D01*
X116135196Y-102707004D01*
X116136668Y-102709030D01*
X116137439Y-102709920D01*
X116138104Y-102711006D01*
X116138106Y-102711009D01*
X116263794Y-102884004D01*
X116263796Y-102884006D01*
X116263798Y-102884009D01*
X116414990Y-103035201D01*
X116414993Y-103035203D01*
X116414996Y-103035206D01*
X116587991Y-103160894D01*
X116778517Y-103257972D01*
X116981878Y-103324047D01*
X116981879Y-103324047D01*
X116981884Y-103324049D01*
X117193084Y-103357500D01*
X117193087Y-103357500D01*
X117406913Y-103357500D01*
X117406916Y-103357500D01*
X117618116Y-103324049D01*
X117821483Y-103257972D01*
X118012009Y-103160894D01*
X118185004Y-103035206D01*
X118336206Y-102884004D01*
X118461894Y-102711009D01*
X118461899Y-102710997D01*
X118462561Y-102709920D01*
X118462924Y-102709591D01*
X118464804Y-102707004D01*
X118465347Y-102707398D01*
X118515204Y-102662283D01*
X118585244Y-102650670D01*
X118650445Y-102678766D01*
X118675021Y-102707130D01*
X118675196Y-102707004D01*
X118676668Y-102709030D01*
X118677439Y-102709920D01*
X118678104Y-102711006D01*
X118678106Y-102711009D01*
X118803794Y-102884004D01*
X118803796Y-102884006D01*
X118803798Y-102884009D01*
X118954990Y-103035201D01*
X118954993Y-103035203D01*
X118954996Y-103035206D01*
X119127991Y-103160894D01*
X119318517Y-103257972D01*
X119521878Y-103324047D01*
X119521879Y-103324047D01*
X119521884Y-103324049D01*
X119733084Y-103357500D01*
X119733087Y-103357500D01*
X119946913Y-103357500D01*
X119946916Y-103357500D01*
X120158116Y-103324049D01*
X120361483Y-103257972D01*
X120552009Y-103160894D01*
X120725004Y-103035206D01*
X120876206Y-102884004D01*
X121001894Y-102711009D01*
X121001899Y-102710997D01*
X121002561Y-102709920D01*
X121002924Y-102709591D01*
X121004804Y-102707004D01*
X121005347Y-102707398D01*
X121055204Y-102662283D01*
X121125244Y-102650670D01*
X121190445Y-102678766D01*
X121215021Y-102707130D01*
X121215196Y-102707004D01*
X121216668Y-102709030D01*
X121217439Y-102709920D01*
X121218104Y-102711006D01*
X121218106Y-102711009D01*
X121343794Y-102884004D01*
X121343796Y-102884006D01*
X121343798Y-102884009D01*
X121494990Y-103035201D01*
X121494993Y-103035203D01*
X121494996Y-103035206D01*
X121667991Y-103160894D01*
X121858517Y-103257972D01*
X122061878Y-103324047D01*
X122061879Y-103324047D01*
X122061884Y-103324049D01*
X122273084Y-103357500D01*
X122273087Y-103357500D01*
X122486913Y-103357500D01*
X122486916Y-103357500D01*
X122698116Y-103324049D01*
X122901483Y-103257972D01*
X123092009Y-103160894D01*
X123265004Y-103035206D01*
X123416206Y-102884004D01*
X123541894Y-102711009D01*
X123541899Y-102710997D01*
X123542561Y-102709920D01*
X123542924Y-102709591D01*
X123544804Y-102707004D01*
X123545347Y-102707398D01*
X123595204Y-102662283D01*
X123665244Y-102650670D01*
X123730445Y-102678766D01*
X123755021Y-102707130D01*
X123755196Y-102707004D01*
X123756668Y-102709030D01*
X123757439Y-102709920D01*
X123758104Y-102711006D01*
X123758106Y-102711009D01*
X123883794Y-102884004D01*
X123883796Y-102884006D01*
X123883798Y-102884009D01*
X124034990Y-103035201D01*
X124034993Y-103035203D01*
X124034996Y-103035206D01*
X124207991Y-103160894D01*
X124398517Y-103257972D01*
X124601878Y-103324047D01*
X124601879Y-103324047D01*
X124601884Y-103324049D01*
X124813084Y-103357500D01*
X124813087Y-103357500D01*
X125026913Y-103357500D01*
X125026916Y-103357500D01*
X125238116Y-103324049D01*
X125441483Y-103257972D01*
X125632009Y-103160894D01*
X125805004Y-103035206D01*
X125956206Y-102884004D01*
X126081894Y-102711009D01*
X126081899Y-102710997D01*
X126082561Y-102709920D01*
X126082924Y-102709591D01*
X126084804Y-102707004D01*
X126085347Y-102707398D01*
X126135204Y-102662283D01*
X126205244Y-102650670D01*
X126270445Y-102678766D01*
X126295021Y-102707130D01*
X126295196Y-102707004D01*
X126296668Y-102709030D01*
X126297439Y-102709920D01*
X126298104Y-102711006D01*
X126298106Y-102711009D01*
X126423794Y-102884004D01*
X126423796Y-102884006D01*
X126423798Y-102884009D01*
X126574990Y-103035201D01*
X126574993Y-103035203D01*
X126574996Y-103035206D01*
X126747991Y-103160894D01*
X126938517Y-103257972D01*
X127141878Y-103324047D01*
X127141879Y-103324047D01*
X127141884Y-103324049D01*
X127353084Y-103357500D01*
X127353087Y-103357500D01*
X127566913Y-103357500D01*
X127566916Y-103357500D01*
X127778116Y-103324049D01*
X127981483Y-103257972D01*
X128172009Y-103160894D01*
X128345004Y-103035206D01*
X128447982Y-102932227D01*
X128510292Y-102898204D01*
X128581108Y-102903268D01*
X128637944Y-102945815D01*
X128655131Y-102977291D01*
X128699110Y-103095203D01*
X128699112Y-103095207D01*
X128786738Y-103212261D01*
X128903792Y-103299887D01*
X128903794Y-103299888D01*
X128903796Y-103299889D01*
X128960769Y-103321139D01*
X129040795Y-103350988D01*
X129040803Y-103350990D01*
X129101350Y-103357499D01*
X129101355Y-103357499D01*
X129101362Y-103357500D01*
X129101368Y-103357500D01*
X130898632Y-103357500D01*
X130898638Y-103357500D01*
X130898645Y-103357499D01*
X130898649Y-103357499D01*
X130959196Y-103350990D01*
X130959199Y-103350989D01*
X130959201Y-103350989D01*
X131096204Y-103299889D01*
X131102077Y-103295493D01*
X131213261Y-103212261D01*
X131300887Y-103095207D01*
X131300887Y-103095206D01*
X131300889Y-103095204D01*
X131351989Y-102958201D01*
X131353071Y-102948144D01*
X131358499Y-102897649D01*
X131358500Y-102897632D01*
X131358500Y-101956173D01*
X131378502Y-101888052D01*
X131432158Y-101841559D01*
X131502432Y-101831455D01*
X131541698Y-101843905D01*
X131644491Y-101896281D01*
X131810433Y-101950198D01*
X131982766Y-101977493D01*
X131982769Y-101977493D01*
X132157246Y-101977493D01*
X132157248Y-101977493D01*
X132202054Y-101970396D01*
X132272465Y-101979496D01*
X132310860Y-102005750D01*
X132733256Y-102428146D01*
X132767282Y-102490458D01*
X132768610Y-102536949D01*
X132761514Y-102581758D01*
X132761514Y-102581759D01*
X132761514Y-102756241D01*
X132788809Y-102928574D01*
X132788810Y-102928577D01*
X132825505Y-103041516D01*
X132842726Y-103094516D01*
X132921940Y-103249981D01*
X132921942Y-103249984D01*
X132947297Y-103284882D01*
X133024497Y-103391139D01*
X133024499Y-103391141D01*
X133024501Y-103391144D01*
X133147869Y-103514512D01*
X133147872Y-103514514D01*
X133147875Y-103514517D01*
X133289033Y-103617074D01*
X133444498Y-103696288D01*
X133610440Y-103750205D01*
X133782773Y-103777500D01*
X133782776Y-103777500D01*
X133957252Y-103777500D01*
X133957255Y-103777500D01*
X134129588Y-103750205D01*
X134295530Y-103696288D01*
X134450995Y-103617074D01*
X134592153Y-103514517D01*
X134715531Y-103391139D01*
X134818088Y-103249981D01*
X134897302Y-103094516D01*
X134951219Y-102928574D01*
X134978514Y-102756241D01*
X134978514Y-102581759D01*
X134951219Y-102409426D01*
X134897302Y-102243484D01*
X134818088Y-102088019D01*
X134715531Y-101946861D01*
X134715528Y-101946858D01*
X134715526Y-101946855D01*
X134592158Y-101823487D01*
X134592155Y-101823485D01*
X134592153Y-101823483D01*
X134458770Y-101726575D01*
X134450998Y-101720928D01*
X134450997Y-101720927D01*
X134450995Y-101720926D01*
X134295530Y-101641712D01*
X134295527Y-101641711D01*
X134295525Y-101641710D01*
X134129591Y-101587796D01*
X134129588Y-101587795D01*
X133957255Y-101560500D01*
X133782773Y-101560500D01*
X133782772Y-101560500D01*
X133737963Y-101567596D01*
X133667552Y-101558495D01*
X133629160Y-101532242D01*
X133206764Y-101109846D01*
X133172738Y-101047534D01*
X133171410Y-101001040D01*
X133177467Y-100962798D01*
X133178507Y-100956234D01*
X133178507Y-100781752D01*
X133151212Y-100609419D01*
X133097295Y-100443477D01*
X133018081Y-100288012D01*
X132915524Y-100146854D01*
X132915521Y-100146851D01*
X132915519Y-100146848D01*
X132792151Y-100023480D01*
X132792148Y-100023478D01*
X132792146Y-100023476D01*
X132650988Y-99920919D01*
X132495523Y-99841705D01*
X132495520Y-99841704D01*
X132495518Y-99841703D01*
X132329584Y-99787789D01*
X132329581Y-99787788D01*
X132157248Y-99760493D01*
X131982766Y-99760493D01*
X131810433Y-99787788D01*
X131810430Y-99787788D01*
X131810429Y-99787789D01*
X131644495Y-99841703D01*
X131644489Y-99841706D01*
X131489022Y-99920921D01*
X131347865Y-100023478D01*
X131347862Y-100023480D01*
X131224494Y-100146848D01*
X131224492Y-100146851D01*
X131121935Y-100288008D01*
X131042720Y-100443475D01*
X131042717Y-100443481D01*
X131006992Y-100553436D01*
X130966919Y-100612041D01*
X130901522Y-100639679D01*
X130887159Y-100640500D01*
X129101350Y-100640500D01*
X129040803Y-100647009D01*
X129040795Y-100647011D01*
X128903797Y-100698110D01*
X128903792Y-100698112D01*
X128786738Y-100785738D01*
X128699112Y-100902792D01*
X128699110Y-100902797D01*
X128655131Y-101020708D01*
X128612584Y-101077544D01*
X128546064Y-101102354D01*
X128476690Y-101087262D01*
X128447981Y-101065770D01*
X128345009Y-100962798D01*
X128345006Y-100962796D01*
X128345004Y-100962794D01*
X128199366Y-100856982D01*
X128172012Y-100837108D01*
X128172011Y-100837107D01*
X128172009Y-100837106D01*
X127981483Y-100740028D01*
X127981480Y-100740027D01*
X127981478Y-100740026D01*
X127778120Y-100673952D01*
X127778123Y-100673952D01*
X127720181Y-100664775D01*
X127566916Y-100640500D01*
X127353084Y-100640500D01*
X127170940Y-100669349D01*
X127141878Y-100673952D01*
X126938521Y-100740026D01*
X126938515Y-100740029D01*
X126747987Y-100837108D01*
X126574993Y-100962796D01*
X126574990Y-100962798D01*
X126423798Y-101113990D01*
X126423796Y-101113993D01*
X126298108Y-101286987D01*
X126297434Y-101288088D01*
X126297068Y-101288418D01*
X126295196Y-101290996D01*
X126294654Y-101290602D01*
X126244787Y-101335721D01*
X126174745Y-101347328D01*
X126109547Y-101319226D01*
X126084976Y-101290870D01*
X126084804Y-101290996D01*
X126083341Y-101288982D01*
X126082566Y-101288088D01*
X126081896Y-101286996D01*
X126081894Y-101286991D01*
X125956206Y-101113996D01*
X125956203Y-101113993D01*
X125956201Y-101113990D01*
X125805009Y-100962798D01*
X125805006Y-100962796D01*
X125805004Y-100962794D01*
X125659366Y-100856982D01*
X125632012Y-100837108D01*
X125632011Y-100837107D01*
X125632009Y-100837106D01*
X125441483Y-100740028D01*
X125441480Y-100740027D01*
X125441478Y-100740026D01*
X125238120Y-100673952D01*
X125238123Y-100673952D01*
X125180181Y-100664775D01*
X125026916Y-100640500D01*
X124813084Y-100640500D01*
X124630940Y-100669349D01*
X124601878Y-100673952D01*
X124398521Y-100740026D01*
X124398515Y-100740029D01*
X124207987Y-100837108D01*
X124034993Y-100962796D01*
X124034990Y-100962798D01*
X123883798Y-101113990D01*
X123883796Y-101113993D01*
X123758108Y-101286987D01*
X123757434Y-101288088D01*
X123757068Y-101288418D01*
X123755196Y-101290996D01*
X123754654Y-101290602D01*
X123704787Y-101335721D01*
X123634745Y-101347328D01*
X123569547Y-101319226D01*
X123544976Y-101290870D01*
X123544804Y-101290996D01*
X123543341Y-101288982D01*
X123542566Y-101288088D01*
X123541896Y-101286996D01*
X123541894Y-101286991D01*
X123416206Y-101113996D01*
X123416203Y-101113993D01*
X123416201Y-101113990D01*
X123265009Y-100962798D01*
X123265006Y-100962796D01*
X123265004Y-100962794D01*
X123119366Y-100856982D01*
X123092012Y-100837108D01*
X123092011Y-100837107D01*
X123092009Y-100837106D01*
X122901483Y-100740028D01*
X122901480Y-100740027D01*
X122901478Y-100740026D01*
X122698120Y-100673952D01*
X122698123Y-100673952D01*
X122640181Y-100664775D01*
X122486916Y-100640500D01*
X122273084Y-100640500D01*
X122090940Y-100669349D01*
X122061878Y-100673952D01*
X121858521Y-100740026D01*
X121858515Y-100740029D01*
X121667987Y-100837108D01*
X121494993Y-100962796D01*
X121494990Y-100962798D01*
X121343798Y-101113990D01*
X121343796Y-101113993D01*
X121218108Y-101286987D01*
X121217434Y-101288088D01*
X121217068Y-101288418D01*
X121215196Y-101290996D01*
X121214654Y-101290602D01*
X121164787Y-101335721D01*
X121094745Y-101347328D01*
X121029547Y-101319226D01*
X121004976Y-101290870D01*
X121004804Y-101290996D01*
X121003341Y-101288982D01*
X121002566Y-101288088D01*
X121001896Y-101286996D01*
X121001894Y-101286991D01*
X120876206Y-101113996D01*
X120876203Y-101113993D01*
X120876201Y-101113990D01*
X120725009Y-100962798D01*
X120725006Y-100962796D01*
X120725004Y-100962794D01*
X120579366Y-100856982D01*
X120552012Y-100837108D01*
X120552011Y-100837107D01*
X120552009Y-100837106D01*
X120361483Y-100740028D01*
X120361480Y-100740027D01*
X120361478Y-100740026D01*
X120158120Y-100673952D01*
X120158123Y-100673952D01*
X120100181Y-100664775D01*
X119946916Y-100640500D01*
X119733084Y-100640500D01*
X119550940Y-100669349D01*
X119521878Y-100673952D01*
X119318521Y-100740026D01*
X119318515Y-100740029D01*
X119127987Y-100837108D01*
X118954993Y-100962796D01*
X118954990Y-100962798D01*
X118803798Y-101113990D01*
X118803796Y-101113993D01*
X118678108Y-101286987D01*
X118677434Y-101288088D01*
X118677068Y-101288418D01*
X118675196Y-101290996D01*
X118674654Y-101290602D01*
X118624787Y-101335721D01*
X118554745Y-101347328D01*
X118489547Y-101319226D01*
X118464976Y-101290870D01*
X118464804Y-101290996D01*
X118463341Y-101288982D01*
X118462566Y-101288088D01*
X118461896Y-101286996D01*
X118461894Y-101286991D01*
X118336206Y-101113996D01*
X118336203Y-101113993D01*
X118336201Y-101113990D01*
X118185009Y-100962798D01*
X118185006Y-100962796D01*
X118185004Y-100962794D01*
X118039366Y-100856982D01*
X118012012Y-100837108D01*
X118012011Y-100837107D01*
X118012009Y-100837106D01*
X117821483Y-100740028D01*
X117821480Y-100740027D01*
X117821478Y-100740026D01*
X117618120Y-100673952D01*
X117618123Y-100673952D01*
X117560181Y-100664775D01*
X117406916Y-100640500D01*
X117193084Y-100640500D01*
X117010940Y-100669349D01*
X116981878Y-100673952D01*
X116778521Y-100740026D01*
X116778515Y-100740029D01*
X116587987Y-100837108D01*
X116414993Y-100962796D01*
X116414990Y-100962798D01*
X116263798Y-101113990D01*
X116263796Y-101113993D01*
X116138108Y-101286987D01*
X116137434Y-101288088D01*
X116137068Y-101288418D01*
X116135196Y-101290996D01*
X116134654Y-101290602D01*
X116084787Y-101335721D01*
X116014745Y-101347328D01*
X115949547Y-101319226D01*
X115924976Y-101290870D01*
X115924804Y-101290996D01*
X115923341Y-101288982D01*
X115922566Y-101288088D01*
X115921896Y-101286996D01*
X115921894Y-101286991D01*
X115796206Y-101113996D01*
X115796203Y-101113993D01*
X115796201Y-101113990D01*
X115645009Y-100962798D01*
X115645006Y-100962796D01*
X115645004Y-100962794D01*
X115499366Y-100856982D01*
X115472012Y-100837108D01*
X115472011Y-100837107D01*
X115472009Y-100837106D01*
X115281483Y-100740028D01*
X115281480Y-100740027D01*
X115281478Y-100740026D01*
X115078120Y-100673952D01*
X115078123Y-100673952D01*
X115020181Y-100664775D01*
X114866916Y-100640500D01*
X114653084Y-100640500D01*
X114470940Y-100669349D01*
X114441878Y-100673952D01*
X114238521Y-100740026D01*
X114238515Y-100740029D01*
X114047987Y-100837108D01*
X113874993Y-100962796D01*
X113874990Y-100962798D01*
X113723798Y-101113990D01*
X113723796Y-101113993D01*
X113598100Y-101286998D01*
X113597131Y-101288580D01*
X113596606Y-101289054D01*
X113595196Y-101290996D01*
X113594787Y-101290699D01*
X113544479Y-101336206D01*
X113474437Y-101347807D01*
X113409242Y-101319697D01*
X113384514Y-101291157D01*
X113384376Y-101291258D01*
X113383199Y-101289639D01*
X113382270Y-101288566D01*
X113381461Y-101287247D01*
X113343378Y-101234831D01*
X112704157Y-101874051D01*
X112685925Y-101806007D01*
X112620099Y-101691993D01*
X112527007Y-101598901D01*
X112412993Y-101533075D01*
X112344947Y-101514841D01*
X112984168Y-100875621D01*
X112984167Y-100875620D01*
X112931750Y-100837536D01*
X112931748Y-100837535D01*
X112741292Y-100740493D01*
X112741286Y-100740490D01*
X112538003Y-100674440D01*
X112326874Y-100641000D01*
X112113126Y-100641000D01*
X111901996Y-100674440D01*
X111698713Y-100740490D01*
X111698707Y-100740493D01*
X111508253Y-100837534D01*
X111455831Y-100875621D01*
X111455831Y-100875622D01*
X112095051Y-101514842D01*
X112027007Y-101533075D01*
X111912993Y-101598901D01*
X111819901Y-101691993D01*
X111754075Y-101806007D01*
X111735842Y-101874051D01*
X111096622Y-101234831D01*
X111096621Y-101234831D01*
X111058534Y-101287253D01*
X110961493Y-101477707D01*
X110961490Y-101477713D01*
X110895440Y-101680996D01*
X110862000Y-101892126D01*
X86360000Y-101892126D01*
X86360000Y-101092000D01*
X86350409Y-101068845D01*
X86353231Y-101067675D01*
X86345604Y-101055807D01*
X86344698Y-101049508D01*
X86343379Y-101047092D01*
X86340500Y-101020309D01*
X86340500Y-100820262D01*
X86324015Y-100673952D01*
X86300252Y-100463052D01*
X86220262Y-100112592D01*
X86209531Y-100081925D01*
X86101542Y-99773309D01*
X86101541Y-99773308D01*
X86101536Y-99773292D01*
X85945566Y-99449418D01*
X85754315Y-99145044D01*
X85530188Y-98863997D01*
X85530185Y-98863993D01*
X85276006Y-98609814D01*
X84994956Y-98385685D01*
X84690586Y-98194436D01*
X84690577Y-98194431D01*
X84366717Y-98038468D01*
X84366712Y-98038466D01*
X84366708Y-98038464D01*
X84366702Y-98038461D01*
X84366690Y-98038457D01*
X84027414Y-97919739D01*
X83676952Y-97839748D01*
X83319738Y-97799500D01*
X83319736Y-97799500D01*
X83105998Y-97799500D01*
X83058237Y-97790000D01*
X83058000Y-97790000D01*
X78596000Y-97790000D01*
X78527879Y-97769998D01*
X78481386Y-97716342D01*
X78470000Y-97664000D01*
X78470000Y-86884739D01*
X86141500Y-86884739D01*
X86141500Y-87115260D01*
X86171587Y-87343794D01*
X86171588Y-87343800D01*
X86171589Y-87343802D01*
X86231251Y-87566464D01*
X86319465Y-87779433D01*
X86434724Y-87979066D01*
X86556678Y-88138000D01*
X86575053Y-88161947D01*
X86575062Y-88161957D01*
X86738042Y-88324937D01*
X86738052Y-88324946D01*
X86738053Y-88324947D01*
X86920934Y-88465276D01*
X87120567Y-88580535D01*
X87333536Y-88668749D01*
X87556198Y-88728411D01*
X87556204Y-88728411D01*
X87556205Y-88728412D01*
X87582425Y-88731863D01*
X87784742Y-88758500D01*
X87784749Y-88758500D01*
X88015251Y-88758500D01*
X88015258Y-88758500D01*
X88243802Y-88728411D01*
X88466464Y-88668749D01*
X88679433Y-88580535D01*
X88879066Y-88465276D01*
X89061947Y-88324947D01*
X89224947Y-88161947D01*
X89365276Y-87979066D01*
X89477513Y-87784668D01*
X107068500Y-87784668D01*
X107068500Y-87983331D01*
X107099266Y-88138000D01*
X107107256Y-88178169D01*
X107183279Y-88361704D01*
X107204434Y-88393364D01*
X107241607Y-88448998D01*
X107262822Y-88516751D01*
X107244039Y-88585218D01*
X107241607Y-88589002D01*
X107183279Y-88676296D01*
X107107258Y-88859825D01*
X107107256Y-88859830D01*
X107068500Y-89054668D01*
X107068500Y-89253331D01*
X107103043Y-89426987D01*
X107107256Y-89448169D01*
X107183279Y-89631704D01*
X107233264Y-89706511D01*
X107241607Y-89718998D01*
X107262822Y-89786751D01*
X107244039Y-89855218D01*
X107241607Y-89859002D01*
X107183279Y-89946296D01*
X107107258Y-90129825D01*
X107107256Y-90129830D01*
X107068500Y-90324668D01*
X107068500Y-90523331D01*
X107095782Y-90660484D01*
X107107256Y-90718169D01*
X107183279Y-90901704D01*
X107235230Y-90979454D01*
X107241607Y-90988998D01*
X107262822Y-91056751D01*
X107244039Y-91125218D01*
X107241607Y-91129002D01*
X107183279Y-91216296D01*
X107107258Y-91399825D01*
X107107256Y-91399830D01*
X107068500Y-91594668D01*
X107068500Y-91793331D01*
X107074203Y-91822000D01*
X107107256Y-91988169D01*
X107183279Y-92171704D01*
X107214076Y-92217795D01*
X107241607Y-92258998D01*
X107262822Y-92326751D01*
X107244039Y-92395218D01*
X107241607Y-92399002D01*
X107183279Y-92486296D01*
X107107258Y-92669825D01*
X107107256Y-92669830D01*
X107068500Y-92864668D01*
X107068500Y-93063331D01*
X107095782Y-93200484D01*
X107107256Y-93258169D01*
X107183279Y-93441704D01*
X107293647Y-93606881D01*
X107434119Y-93747353D01*
X107599296Y-93857721D01*
X107782831Y-93933744D01*
X107977671Y-93972500D01*
X107977672Y-93972500D01*
X108176328Y-93972500D01*
X108176329Y-93972500D01*
X108371169Y-93933744D01*
X108468924Y-93893251D01*
X108539514Y-93885663D01*
X108592653Y-93908793D01*
X108600796Y-93914889D01*
X108737795Y-93965988D01*
X108737803Y-93965990D01*
X108798350Y-93972499D01*
X108798355Y-93972499D01*
X108798362Y-93972500D01*
X108798368Y-93972500D01*
X109895632Y-93972500D01*
X109895638Y-93972500D01*
X109895645Y-93972499D01*
X109895649Y-93972499D01*
X109956196Y-93965990D01*
X109956199Y-93965989D01*
X109956201Y-93965989D01*
X110093204Y-93914889D01*
X110101348Y-93908793D01*
X110210261Y-93827261D01*
X110297887Y-93710207D01*
X110297887Y-93710206D01*
X110297889Y-93710204D01*
X110348989Y-93573201D01*
X110349346Y-93569889D01*
X110355499Y-93512649D01*
X110355500Y-93512632D01*
X110355500Y-92415367D01*
X110355499Y-92415350D01*
X110348990Y-92354803D01*
X110348988Y-92354795D01*
X110297890Y-92217798D01*
X110297888Y-92217795D01*
X110291444Y-92209187D01*
X110266632Y-92142667D01*
X110275903Y-92085458D01*
X110316260Y-91988029D01*
X110316262Y-91988021D01*
X110324224Y-91948000D01*
X109552618Y-91948000D01*
X109607064Y-91893554D01*
X109649851Y-91819445D01*
X109672000Y-91736787D01*
X109672000Y-91651213D01*
X109649851Y-91568555D01*
X109607064Y-91494446D01*
X109552618Y-91440000D01*
X109601000Y-91440000D01*
X110324224Y-91440000D01*
X110324223Y-91439999D01*
X110316262Y-91399976D01*
X110316260Y-91399971D01*
X110240277Y-91216533D01*
X110181791Y-91129002D01*
X110160576Y-91061249D01*
X110179359Y-90992782D01*
X110181791Y-90988998D01*
X110240277Y-90901466D01*
X110316260Y-90718028D01*
X110316262Y-90718023D01*
X110324224Y-90678000D01*
X109601000Y-90678000D01*
X109601000Y-91440000D01*
X109552618Y-91440000D01*
X109546554Y-91433936D01*
X109472445Y-91391149D01*
X109389787Y-91369000D01*
X109304213Y-91369000D01*
X109221555Y-91391149D01*
X109147446Y-91433936D01*
X109093000Y-91488382D01*
X109093000Y-90629618D01*
X109147446Y-90684064D01*
X109221555Y-90726851D01*
X109304213Y-90749000D01*
X109389787Y-90749000D01*
X109472445Y-90726851D01*
X109546554Y-90684064D01*
X109607064Y-90623554D01*
X109649851Y-90549445D01*
X109672000Y-90466787D01*
X109672000Y-90381213D01*
X109649851Y-90298555D01*
X109607064Y-90224446D01*
X109552618Y-90170000D01*
X110324224Y-90170000D01*
X110324223Y-90169999D01*
X110316262Y-90129976D01*
X110316260Y-90129971D01*
X110240277Y-89946532D01*
X110240275Y-89946528D01*
X110182092Y-89859450D01*
X110160877Y-89791698D01*
X110179660Y-89723231D01*
X110182079Y-89719467D01*
X110240721Y-89631704D01*
X110316744Y-89448169D01*
X110355500Y-89253329D01*
X110355500Y-89054671D01*
X110316744Y-88859831D01*
X110240721Y-88676296D01*
X110182091Y-88588551D01*
X110160877Y-88520799D01*
X110179660Y-88452332D01*
X110182092Y-88448548D01*
X110240277Y-88361466D01*
X110316260Y-88178028D01*
X110316262Y-88178023D01*
X110324224Y-88138000D01*
X109552618Y-88138000D01*
X109607064Y-88083554D01*
X109649851Y-88009445D01*
X109672000Y-87926787D01*
X109672000Y-87841213D01*
X109649851Y-87758555D01*
X109607064Y-87684446D01*
X109552618Y-87630000D01*
X109601000Y-87630000D01*
X110324224Y-87630000D01*
X110324223Y-87629999D01*
X110316262Y-87589976D01*
X110316260Y-87589971D01*
X110240277Y-87406533D01*
X110129967Y-87241442D01*
X110129962Y-87241435D01*
X109989564Y-87101037D01*
X109989557Y-87101032D01*
X109824467Y-86990722D01*
X109641020Y-86914736D01*
X109641015Y-86914735D01*
X109601000Y-86906774D01*
X109601000Y-87630000D01*
X109552618Y-87630000D01*
X109546554Y-87623936D01*
X109472445Y-87581149D01*
X109389787Y-87559000D01*
X109304213Y-87559000D01*
X109221555Y-87581149D01*
X109147446Y-87623936D01*
X109093000Y-87678382D01*
X109093000Y-86906775D01*
X109092999Y-86906774D01*
X109052984Y-86914735D01*
X109052979Y-86914736D01*
X108869533Y-86990721D01*
X108782450Y-87048908D01*
X108714697Y-87070122D01*
X108646230Y-87051338D01*
X108642447Y-87048907D01*
X108627715Y-87039064D01*
X108554704Y-86990279D01*
X108372328Y-86914736D01*
X108371174Y-86914258D01*
X108371169Y-86914256D01*
X108176331Y-86875500D01*
X108176329Y-86875500D01*
X107977671Y-86875500D01*
X107977668Y-86875500D01*
X107782830Y-86914256D01*
X107782825Y-86914258D01*
X107599296Y-86990279D01*
X107434123Y-87100644D01*
X107434116Y-87100649D01*
X107293649Y-87241116D01*
X107293644Y-87241123D01*
X107183279Y-87406296D01*
X107107258Y-87589825D01*
X107107256Y-87589830D01*
X107068500Y-87784668D01*
X89477513Y-87784668D01*
X89480535Y-87779433D01*
X89568749Y-87566464D01*
X89628411Y-87343802D01*
X89658500Y-87115258D01*
X89658500Y-86884742D01*
X89628411Y-86656198D01*
X89568749Y-86433536D01*
X89480535Y-86220567D01*
X89365276Y-86020934D01*
X89224947Y-85838053D01*
X89224946Y-85838052D01*
X89224937Y-85838042D01*
X89061957Y-85675062D01*
X89061947Y-85675053D01*
X88879066Y-85534724D01*
X88877828Y-85534009D01*
X88679444Y-85419471D01*
X88679439Y-85419468D01*
X88679433Y-85419465D01*
X88466464Y-85331251D01*
X88243802Y-85271589D01*
X88243800Y-85271588D01*
X88243794Y-85271587D01*
X88015260Y-85241500D01*
X88015258Y-85241500D01*
X87784742Y-85241500D01*
X87784739Y-85241500D01*
X87556205Y-85271587D01*
X87333536Y-85331251D01*
X87120565Y-85419466D01*
X87120555Y-85419471D01*
X86920938Y-85534721D01*
X86738052Y-85675053D01*
X86738042Y-85675062D01*
X86575062Y-85838042D01*
X86575053Y-85838052D01*
X86434721Y-86020938D01*
X86319471Y-86220555D01*
X86319466Y-86220565D01*
X86319465Y-86220567D01*
X86265029Y-86351988D01*
X86231251Y-86433536D01*
X86171587Y-86656205D01*
X86141500Y-86884739D01*
X78470000Y-86884739D01*
X78470000Y-84101350D01*
X79711500Y-84101350D01*
X79711500Y-85898649D01*
X79718009Y-85959196D01*
X79718011Y-85959204D01*
X79769110Y-86096202D01*
X79769112Y-86096207D01*
X79856738Y-86213261D01*
X79973792Y-86300887D01*
X79973794Y-86300888D01*
X79973796Y-86300889D01*
X80032875Y-86322924D01*
X80110795Y-86351988D01*
X80110803Y-86351990D01*
X80171350Y-86358499D01*
X80171355Y-86358499D01*
X80171362Y-86358500D01*
X80171368Y-86358500D01*
X81968632Y-86358500D01*
X81968638Y-86358500D01*
X81968645Y-86358499D01*
X81968649Y-86358499D01*
X82029196Y-86351990D01*
X82029199Y-86351989D01*
X82029201Y-86351989D01*
X82166204Y-86300889D01*
X82204447Y-86272261D01*
X82283261Y-86213261D01*
X82370886Y-86096208D01*
X82370885Y-86096208D01*
X82370889Y-86096204D01*
X82404003Y-86007421D01*
X82446548Y-85950590D01*
X82513068Y-85925779D01*
X82582442Y-85940870D01*
X82611152Y-85962363D01*
X82684990Y-86036201D01*
X82684993Y-86036203D01*
X82684996Y-86036206D01*
X82857991Y-86161894D01*
X83048517Y-86258972D01*
X83251878Y-86325047D01*
X83251879Y-86325047D01*
X83251884Y-86325049D01*
X83463084Y-86358500D01*
X83463087Y-86358500D01*
X83676913Y-86358500D01*
X83676916Y-86358500D01*
X83888116Y-86325049D01*
X84091483Y-86258972D01*
X84282009Y-86161894D01*
X84455004Y-86036206D01*
X84606206Y-85885004D01*
X84731894Y-85712009D01*
X84828972Y-85521483D01*
X84895049Y-85318116D01*
X84928500Y-85106916D01*
X84928500Y-84893084D01*
X84895049Y-84681884D01*
X84828972Y-84478517D01*
X84731894Y-84287991D01*
X84713307Y-84262408D01*
X90791500Y-84262408D01*
X90791500Y-84515592D01*
X90829563Y-84755916D01*
X90831107Y-84765663D01*
X90896565Y-84967121D01*
X90909344Y-85006450D01*
X90992924Y-85170484D01*
X91024289Y-85232041D01*
X91053021Y-85271587D01*
X91173105Y-85436868D01*
X91173107Y-85436870D01*
X91173109Y-85436873D01*
X91352126Y-85615890D01*
X91352129Y-85615892D01*
X91352132Y-85615895D01*
X91556962Y-85764713D01*
X91782550Y-85879656D01*
X92023342Y-85957894D01*
X92273408Y-85997500D01*
X92273411Y-85997500D01*
X92526589Y-85997500D01*
X92526592Y-85997500D01*
X92776658Y-85957894D01*
X93017450Y-85879656D01*
X93243038Y-85764713D01*
X93447868Y-85615895D01*
X93626895Y-85436868D01*
X93775713Y-85232038D01*
X93890656Y-85006450D01*
X93968894Y-84765658D01*
X94008500Y-84515592D01*
X94008500Y-84262408D01*
X93992336Y-84160350D01*
X111925500Y-84160350D01*
X111925500Y-85957649D01*
X111932009Y-86018196D01*
X111932011Y-86018204D01*
X111983110Y-86155202D01*
X111983112Y-86155207D01*
X112070738Y-86272261D01*
X112187791Y-86359886D01*
X112187792Y-86359886D01*
X112187796Y-86359889D01*
X112305711Y-86403869D01*
X112362543Y-86446414D01*
X112387354Y-86512934D01*
X112372263Y-86582308D01*
X112350771Y-86611018D01*
X112247794Y-86713995D01*
X112122108Y-86886987D01*
X112025029Y-87077515D01*
X112025026Y-87077521D01*
X111958952Y-87280878D01*
X111958951Y-87280883D01*
X111958951Y-87280884D01*
X111925500Y-87492084D01*
X111925500Y-87705916D01*
X111958951Y-87917116D01*
X111958952Y-87917121D01*
X112024633Y-88119268D01*
X112025028Y-88120483D01*
X112122106Y-88311009D01*
X112122108Y-88311012D01*
X112136051Y-88330203D01*
X112247794Y-88484004D01*
X112247796Y-88484006D01*
X112247798Y-88484009D01*
X112398990Y-88635201D01*
X112398993Y-88635203D01*
X112398996Y-88635206D01*
X112571991Y-88760894D01*
X112571996Y-88760896D01*
X112573088Y-88761566D01*
X112573418Y-88761931D01*
X112575996Y-88763804D01*
X112575602Y-88764345D01*
X112620721Y-88814213D01*
X112632328Y-88884255D01*
X112604226Y-88949453D01*
X112575870Y-88974023D01*
X112575996Y-88974196D01*
X112573982Y-88975658D01*
X112573088Y-88976434D01*
X112571987Y-88977108D01*
X112398993Y-89102796D01*
X112398990Y-89102798D01*
X112247798Y-89253990D01*
X112247796Y-89253993D01*
X112122108Y-89426987D01*
X112025029Y-89617515D01*
X112025026Y-89617521D01*
X111958952Y-89820878D01*
X111958951Y-89820883D01*
X111958951Y-89820884D01*
X111925500Y-90032084D01*
X111925500Y-90245916D01*
X111958951Y-90457116D01*
X111958952Y-90457121D01*
X112009926Y-90614004D01*
X112025028Y-90660483D01*
X112116364Y-90839739D01*
X112122108Y-90851012D01*
X112143229Y-90880083D01*
X112247794Y-91024004D01*
X112247796Y-91024006D01*
X112247798Y-91024009D01*
X112398990Y-91175201D01*
X112398993Y-91175203D01*
X112398996Y-91175206D01*
X112571991Y-91300894D01*
X112571996Y-91300896D01*
X112573088Y-91301566D01*
X112573418Y-91301931D01*
X112575996Y-91303804D01*
X112575602Y-91304345D01*
X112620721Y-91354213D01*
X112632328Y-91424255D01*
X112604226Y-91489453D01*
X112575870Y-91514023D01*
X112575996Y-91514196D01*
X112573982Y-91515658D01*
X112573088Y-91516434D01*
X112571987Y-91517108D01*
X112398993Y-91642796D01*
X112398990Y-91642798D01*
X112247798Y-91793990D01*
X112247796Y-91793993D01*
X112122108Y-91966987D01*
X112025029Y-92157515D01*
X112025026Y-92157521D01*
X111958952Y-92360878D01*
X111958951Y-92360883D01*
X111958951Y-92360884D01*
X111925500Y-92572084D01*
X111925500Y-92785916D01*
X111958951Y-92997116D01*
X111958952Y-92997121D01*
X112025026Y-93200478D01*
X112025028Y-93200483D01*
X112122106Y-93391009D01*
X112247794Y-93564004D01*
X112247796Y-93564006D01*
X112247798Y-93564009D01*
X112398990Y-93715201D01*
X112398993Y-93715203D01*
X112398996Y-93715206D01*
X112571991Y-93840894D01*
X112572001Y-93840899D01*
X112573567Y-93841859D01*
X112574042Y-93842384D01*
X112575996Y-93843804D01*
X112575697Y-93844214D01*
X112621200Y-93894505D01*
X112632808Y-93964546D01*
X112604707Y-94029745D01*
X112576157Y-94054485D01*
X112576258Y-94054624D01*
X112574644Y-94055796D01*
X112573574Y-94056724D01*
X112572255Y-94057532D01*
X112399320Y-94183177D01*
X112248177Y-94334320D01*
X112122536Y-94507249D01*
X112025493Y-94697707D01*
X112025490Y-94697713D01*
X111959440Y-94900995D01*
X111949302Y-94965000D01*
X112853297Y-94965000D01*
X112818075Y-95026007D01*
X112784000Y-95153174D01*
X112784000Y-95284826D01*
X112818075Y-95411993D01*
X112853297Y-95473000D01*
X111949302Y-95473000D01*
X111959440Y-95537004D01*
X112025490Y-95740286D01*
X112025493Y-95740292D01*
X112122536Y-95930750D01*
X112248177Y-96103679D01*
X112399320Y-96254822D01*
X112572249Y-96380463D01*
X112762707Y-96477506D01*
X112762713Y-96477509D01*
X112965998Y-96543560D01*
X113030000Y-96553696D01*
X113030000Y-95649702D01*
X113091007Y-95684925D01*
X113218174Y-95719000D01*
X113349826Y-95719000D01*
X113476993Y-95684925D01*
X113538000Y-95649702D01*
X113538000Y-96553696D01*
X113602001Y-96543560D01*
X113805286Y-96477509D01*
X113805292Y-96477506D01*
X113995750Y-96380463D01*
X114168679Y-96254822D01*
X114319822Y-96103679D01*
X114445463Y-95930750D01*
X114542506Y-95740292D01*
X114542509Y-95740286D01*
X114608559Y-95537004D01*
X114618698Y-95473000D01*
X113714703Y-95473000D01*
X113749925Y-95411993D01*
X113784000Y-95284826D01*
X113784000Y-95153174D01*
X113749925Y-95026007D01*
X113714703Y-94965000D01*
X114618697Y-94965000D01*
X114608559Y-94900995D01*
X114542509Y-94697713D01*
X114542506Y-94697707D01*
X114445463Y-94507249D01*
X114319822Y-94334320D01*
X114168679Y-94183177D01*
X113995749Y-94057535D01*
X113994433Y-94056729D01*
X113994037Y-94056291D01*
X113991742Y-94054624D01*
X113992092Y-94054141D01*
X113946800Y-94004084D01*
X113935190Y-93934043D01*
X113963291Y-93868844D01*
X113992076Y-93843903D01*
X113992004Y-93843804D01*
X113993158Y-93842965D01*
X113994441Y-93841854D01*
X113995992Y-93840902D01*
X113996009Y-93840894D01*
X114169004Y-93715206D01*
X114320206Y-93564004D01*
X114445894Y-93391009D01*
X114542972Y-93200483D01*
X114609049Y-92997116D01*
X114642500Y-92785916D01*
X114642500Y-92572084D01*
X114609049Y-92360884D01*
X114542972Y-92157517D01*
X114445894Y-91966991D01*
X114320206Y-91793996D01*
X114320202Y-91793992D01*
X114320200Y-91793989D01*
X114283966Y-91757755D01*
X120557500Y-91757755D01*
X120557500Y-91932237D01*
X120584795Y-92104570D01*
X120584796Y-92104573D01*
X120618786Y-92209187D01*
X120638712Y-92270512D01*
X120717926Y-92425977D01*
X120820483Y-92567135D01*
X120820485Y-92567137D01*
X120820487Y-92567140D01*
X120943855Y-92690508D01*
X120943858Y-92690510D01*
X120943861Y-92690513D01*
X121085019Y-92793070D01*
X121240484Y-92872284D01*
X121406426Y-92926201D01*
X121578759Y-92953496D01*
X121578762Y-92953496D01*
X121753238Y-92953496D01*
X121753241Y-92953496D01*
X121925574Y-92926201D01*
X122091516Y-92872284D01*
X122246981Y-92793070D01*
X122388139Y-92690513D01*
X122511517Y-92567135D01*
X122614074Y-92425977D01*
X122693288Y-92270512D01*
X122747205Y-92104570D01*
X122774500Y-91932237D01*
X122774500Y-91757755D01*
X122747205Y-91585422D01*
X122693288Y-91419480D01*
X122614074Y-91264015D01*
X122511517Y-91122857D01*
X122511514Y-91122854D01*
X122511512Y-91122851D01*
X122511405Y-91122744D01*
X122511377Y-91122693D01*
X122508300Y-91119090D01*
X122509056Y-91118443D01*
X122477379Y-91060432D01*
X122474500Y-91033649D01*
X122474500Y-90092368D01*
X122494502Y-90024247D01*
X122508414Y-90006985D01*
X122508322Y-90006906D01*
X122511101Y-90003651D01*
X122511412Y-90003265D01*
X122511539Y-90003139D01*
X122614096Y-89861981D01*
X122693310Y-89706516D01*
X122747227Y-89540574D01*
X122774522Y-89368241D01*
X122774522Y-89368060D01*
X122774541Y-89367992D01*
X122774911Y-89363303D01*
X122775896Y-89363380D01*
X122794524Y-89299939D01*
X122811427Y-89278965D01*
X123995987Y-88094405D01*
X124058299Y-88060379D01*
X124085082Y-88057500D01*
X129490653Y-88057500D01*
X129558774Y-88077502D01*
X129576012Y-88091394D01*
X129576094Y-88091300D01*
X129579423Y-88094143D01*
X129579748Y-88094405D01*
X129579855Y-88094512D01*
X129579858Y-88094514D01*
X129579861Y-88094517D01*
X129721019Y-88197074D01*
X129876484Y-88276288D01*
X130042426Y-88330205D01*
X130214759Y-88357500D01*
X130214762Y-88357500D01*
X130389238Y-88357500D01*
X130389241Y-88357500D01*
X130561574Y-88330205D01*
X130727516Y-88276288D01*
X130882981Y-88197074D01*
X131024139Y-88094517D01*
X131147517Y-87971139D01*
X131250074Y-87829981D01*
X131329288Y-87674516D01*
X131383205Y-87508574D01*
X131410500Y-87336241D01*
X131410500Y-87336082D01*
X131410517Y-87336022D01*
X131410889Y-87331303D01*
X131411880Y-87331381D01*
X131430502Y-87267961D01*
X131447405Y-87246987D01*
X133173988Y-85520404D01*
X133236300Y-85486378D01*
X133263083Y-85483499D01*
X139042919Y-85483499D01*
X139111040Y-85503501D01*
X139132014Y-85520404D01*
X140424595Y-86812985D01*
X140458621Y-86875297D01*
X140461500Y-86902080D01*
X140461500Y-88051147D01*
X140441498Y-88119268D01*
X140387842Y-88165761D01*
X140355211Y-88175596D01*
X140338935Y-88178174D01*
X140202426Y-88199795D01*
X140202423Y-88199795D01*
X140202422Y-88199796D01*
X140036488Y-88253710D01*
X140036482Y-88253713D01*
X139881015Y-88332928D01*
X139739858Y-88435485D01*
X139739855Y-88435487D01*
X139616487Y-88558855D01*
X139616485Y-88558858D01*
X139513928Y-88700015D01*
X139434713Y-88855482D01*
X139434710Y-88855488D01*
X139382237Y-89016987D01*
X139380795Y-89021426D01*
X139353500Y-89193759D01*
X139353500Y-89368241D01*
X139380795Y-89540574D01*
X139434712Y-89706516D01*
X139513926Y-89861981D01*
X139616483Y-90003139D01*
X139616584Y-90003240D01*
X139616610Y-90003288D01*
X139619700Y-90006906D01*
X139618940Y-90007554D01*
X139650617Y-90065546D01*
X139653500Y-90092346D01*
X139653500Y-101804653D01*
X139633498Y-101872774D01*
X139619605Y-101890012D01*
X139619700Y-101890094D01*
X139616856Y-101893423D01*
X139616595Y-101893748D01*
X139616487Y-101893855D01*
X139616485Y-101893858D01*
X139513928Y-102035015D01*
X139434713Y-102190482D01*
X139434710Y-102190488D01*
X139380796Y-102356422D01*
X139380795Y-102356426D01*
X139353500Y-102528759D01*
X139353500Y-102703241D01*
X139380795Y-102875574D01*
X139380796Y-102875577D01*
X139432661Y-103035206D01*
X139434712Y-103041516D01*
X139495539Y-103160894D01*
X139513928Y-103196984D01*
X139531503Y-103221174D01*
X139616483Y-103338139D01*
X139616485Y-103338141D01*
X139616487Y-103338144D01*
X139739855Y-103461512D01*
X139739858Y-103461514D01*
X139739861Y-103461517D01*
X139881019Y-103564074D01*
X140036484Y-103643288D01*
X140202426Y-103697205D01*
X140374759Y-103724500D01*
X140374762Y-103724500D01*
X140549238Y-103724500D01*
X140549241Y-103724500D01*
X140721574Y-103697205D01*
X140887516Y-103643288D01*
X141042981Y-103564074D01*
X141184139Y-103461517D01*
X141307517Y-103338139D01*
X141410074Y-103196981D01*
X141489288Y-103041516D01*
X141543205Y-102875574D01*
X141570500Y-102703241D01*
X141570500Y-102528759D01*
X141543205Y-102356426D01*
X141489288Y-102190484D01*
X141410074Y-102035019D01*
X141307517Y-101893861D01*
X141307514Y-101893858D01*
X141307512Y-101893855D01*
X141307405Y-101893748D01*
X141307377Y-101893697D01*
X141304300Y-101890094D01*
X141305056Y-101889447D01*
X141273379Y-101831436D01*
X141270500Y-101804653D01*
X141270500Y-101195259D01*
X175507500Y-101195259D01*
X175507500Y-101369741D01*
X175534795Y-101542074D01*
X175534796Y-101542077D01*
X175579932Y-101680996D01*
X175588712Y-101708016D01*
X175667926Y-101863481D01*
X175770483Y-102004639D01*
X175770485Y-102004641D01*
X175770487Y-102004644D01*
X175893855Y-102128012D01*
X175893858Y-102128014D01*
X175893861Y-102128017D01*
X176035019Y-102230574D01*
X176190484Y-102309788D01*
X176356426Y-102363705D01*
X176528759Y-102391000D01*
X176528762Y-102391000D01*
X176703238Y-102391000D01*
X176703241Y-102391000D01*
X176875574Y-102363705D01*
X177041516Y-102309788D01*
X177196981Y-102230574D01*
X177338139Y-102128017D01*
X177461517Y-102004639D01*
X177564074Y-101863481D01*
X177643288Y-101708016D01*
X177697205Y-101542074D01*
X177724500Y-101369741D01*
X177724500Y-101195259D01*
X177697205Y-101022926D01*
X177643288Y-100856984D01*
X177564074Y-100701519D01*
X177461517Y-100560361D01*
X177461514Y-100560358D01*
X177461512Y-100560355D01*
X177338139Y-100436982D01*
X177301440Y-100410319D01*
X177258087Y-100354097D01*
X177249502Y-100308384D01*
X177249502Y-99335616D01*
X177269504Y-99267495D01*
X177301439Y-99233681D01*
X177338141Y-99207017D01*
X177461519Y-99083639D01*
X177564076Y-98942481D01*
X177643290Y-98787016D01*
X177697207Y-98621074D01*
X177724502Y-98448741D01*
X177724502Y-98274259D01*
X177697207Y-98101926D01*
X177643290Y-97935984D01*
X177564076Y-97780519D01*
X177461519Y-97639361D01*
X177461516Y-97639358D01*
X177461514Y-97639355D01*
X177338146Y-97515987D01*
X177338143Y-97515985D01*
X177338141Y-97515983D01*
X177196983Y-97413426D01*
X177041518Y-97334212D01*
X177041515Y-97334211D01*
X177041513Y-97334210D01*
X176875579Y-97280296D01*
X176875576Y-97280295D01*
X176703243Y-97253000D01*
X176528761Y-97253000D01*
X176356428Y-97280295D01*
X176356425Y-97280295D01*
X176356424Y-97280296D01*
X176190490Y-97334210D01*
X176190484Y-97334213D01*
X176035017Y-97413428D01*
X175893860Y-97515985D01*
X175893857Y-97515987D01*
X175770489Y-97639355D01*
X175770487Y-97639358D01*
X175667930Y-97780515D01*
X175588715Y-97935982D01*
X175588712Y-97935988D01*
X175555415Y-98038468D01*
X175534797Y-98101926D01*
X175507502Y-98274259D01*
X175507502Y-98448741D01*
X175534797Y-98621074D01*
X175534798Y-98621077D01*
X175568822Y-98725796D01*
X175588714Y-98787016D01*
X175667928Y-98942481D01*
X175770485Y-99083639D01*
X175770487Y-99083641D01*
X175770489Y-99083644D01*
X175893851Y-99207006D01*
X175893857Y-99207011D01*
X175893863Y-99207017D01*
X175930563Y-99233680D01*
X175973916Y-99289900D01*
X175982502Y-99335616D01*
X175982502Y-100308381D01*
X175962500Y-100376502D01*
X175930564Y-100410316D01*
X175893861Y-100436982D01*
X175893855Y-100436987D01*
X175770487Y-100560355D01*
X175770485Y-100560358D01*
X175667928Y-100701515D01*
X175588713Y-100856982D01*
X175588710Y-100856988D01*
X175534796Y-101022922D01*
X175534795Y-101022926D01*
X175507500Y-101195259D01*
X141270500Y-101195259D01*
X141270500Y-90092346D01*
X141290502Y-90024225D01*
X141304395Y-90006987D01*
X141304300Y-90006906D01*
X141307155Y-90003562D01*
X141307412Y-90003243D01*
X141307517Y-90003139D01*
X141410074Y-89861981D01*
X141489288Y-89706516D01*
X141543205Y-89540574D01*
X141570500Y-89368241D01*
X141570500Y-89368082D01*
X141570517Y-89368022D01*
X141570889Y-89363303D01*
X141571880Y-89363381D01*
X141590502Y-89299961D01*
X141607405Y-89278987D01*
X141696909Y-89189483D01*
X141898003Y-88988389D01*
X141986484Y-88855968D01*
X142029579Y-88751926D01*
X142047430Y-88708831D01*
X142055403Y-88668749D01*
X142078501Y-88552630D01*
X142078501Y-88393370D01*
X142078501Y-88388178D01*
X142078500Y-88388152D01*
X142078500Y-86600861D01*
X142078501Y-86600840D01*
X142078501Y-86435372D01*
X142078501Y-86435368D01*
X142047430Y-86279168D01*
X141986484Y-86132030D01*
X141898003Y-85999609D01*
X139945390Y-84046996D01*
X139812969Y-83958515D01*
X139736022Y-83926643D01*
X139680868Y-83903797D01*
X139665835Y-83897570D01*
X139665833Y-83897569D01*
X139665832Y-83897569D01*
X139587202Y-83881928D01*
X139509633Y-83866499D01*
X139509631Y-83866499D01*
X132796371Y-83866499D01*
X132796368Y-83866499D01*
X132703339Y-83885004D01*
X132640170Y-83897569D01*
X132640169Y-83897569D01*
X132640166Y-83897570D01*
X132569982Y-83926642D01*
X132569980Y-83926643D01*
X132493033Y-83958515D01*
X132493031Y-83958515D01*
X132493029Y-83958517D01*
X132360616Y-84046993D01*
X132360609Y-84046998D01*
X130304013Y-86103595D01*
X130241701Y-86137621D01*
X130219687Y-86139987D01*
X130219697Y-86140111D01*
X130215362Y-86140452D01*
X130214918Y-86140500D01*
X130214759Y-86140500D01*
X130042426Y-86167795D01*
X130042423Y-86167795D01*
X130042422Y-86167796D01*
X129876488Y-86221710D01*
X129876482Y-86221713D01*
X129721015Y-86300928D01*
X129579858Y-86403485D01*
X129579855Y-86403487D01*
X129579748Y-86403595D01*
X129579697Y-86403622D01*
X129576094Y-86406700D01*
X129575447Y-86405943D01*
X129517436Y-86437621D01*
X129490653Y-86440500D01*
X123618367Y-86440500D01*
X123462168Y-86471570D01*
X123462163Y-86471572D01*
X123388600Y-86502043D01*
X123315032Y-86532516D01*
X123182615Y-86620994D01*
X123182608Y-86620999D01*
X121668013Y-88135595D01*
X121605701Y-88169621D01*
X121583709Y-88171984D01*
X121583719Y-88172111D01*
X121579302Y-88172458D01*
X121578918Y-88172500D01*
X121578781Y-88172500D01*
X121406448Y-88199795D01*
X121406445Y-88199795D01*
X121406444Y-88199796D01*
X121240510Y-88253710D01*
X121240504Y-88253713D01*
X121085037Y-88332928D01*
X120943880Y-88435485D01*
X120943877Y-88435487D01*
X120820509Y-88558855D01*
X120820507Y-88558858D01*
X120717950Y-88700015D01*
X120638735Y-88855482D01*
X120638732Y-88855488D01*
X120586259Y-89016987D01*
X120584817Y-89021426D01*
X120557522Y-89193759D01*
X120557522Y-89368241D01*
X120584817Y-89540574D01*
X120638734Y-89706516D01*
X120717948Y-89861981D01*
X120820505Y-90003139D01*
X120820584Y-90003218D01*
X120820604Y-90003256D01*
X120823722Y-90006906D01*
X120822955Y-90007560D01*
X120854617Y-90065524D01*
X120857500Y-90092324D01*
X120857500Y-91033649D01*
X120837498Y-91101770D01*
X120823605Y-91119008D01*
X120823700Y-91119090D01*
X120820856Y-91122419D01*
X120820595Y-91122744D01*
X120820487Y-91122851D01*
X120820485Y-91122854D01*
X120717928Y-91264011D01*
X120638713Y-91419478D01*
X120638710Y-91419484D01*
X120590275Y-91568555D01*
X120584795Y-91585422D01*
X120557500Y-91757755D01*
X114283966Y-91757755D01*
X114169009Y-91642798D01*
X114169006Y-91642796D01*
X114169004Y-91642794D01*
X113996009Y-91517106D01*
X113996007Y-91517105D01*
X113994920Y-91516439D01*
X113994591Y-91516075D01*
X113992004Y-91514196D01*
X113992398Y-91513652D01*
X113947283Y-91463796D01*
X113935670Y-91393756D01*
X113963766Y-91328555D01*
X113992130Y-91303978D01*
X113992004Y-91303804D01*
X113994030Y-91302331D01*
X113994920Y-91301561D01*
X113995997Y-91300899D01*
X113996009Y-91300894D01*
X114169004Y-91175206D01*
X114320206Y-91024004D01*
X114445894Y-90851009D01*
X114542972Y-90660483D01*
X114609049Y-90457116D01*
X114642500Y-90245916D01*
X114642500Y-90032084D01*
X114609049Y-89820884D01*
X114542972Y-89617517D01*
X114445894Y-89426991D01*
X114320206Y-89253996D01*
X114320203Y-89253993D01*
X114320201Y-89253990D01*
X114169009Y-89102798D01*
X114169006Y-89102796D01*
X114169004Y-89102794D01*
X114020177Y-88994665D01*
X113996012Y-88977108D01*
X113994920Y-88976439D01*
X113994591Y-88976075D01*
X113992004Y-88974196D01*
X113992398Y-88973652D01*
X113947283Y-88923796D01*
X113935670Y-88853756D01*
X113963766Y-88788555D01*
X113992130Y-88763978D01*
X113992004Y-88763804D01*
X113994030Y-88762331D01*
X113994920Y-88761561D01*
X113995997Y-88760899D01*
X113996009Y-88760894D01*
X114169004Y-88635206D01*
X114320206Y-88484004D01*
X114445894Y-88311009D01*
X114542972Y-88120483D01*
X114609049Y-87917116D01*
X114642500Y-87705916D01*
X114642500Y-87492084D01*
X114609049Y-87280884D01*
X114542972Y-87077517D01*
X114445894Y-86886991D01*
X114320206Y-86713996D01*
X114320203Y-86713993D01*
X114320201Y-86713990D01*
X114217229Y-86611018D01*
X114183203Y-86548706D01*
X114188268Y-86477891D01*
X114230815Y-86421055D01*
X114262284Y-86403871D01*
X114380204Y-86359889D01*
X114382060Y-86358500D01*
X114497261Y-86272261D01*
X114584887Y-86155207D01*
X114584887Y-86155206D01*
X114584889Y-86155204D01*
X114633753Y-86024196D01*
X114635988Y-86018204D01*
X114635990Y-86018196D01*
X114642499Y-85957649D01*
X114642500Y-85957632D01*
X114642500Y-84160367D01*
X114642499Y-84160350D01*
X114635990Y-84099803D01*
X114635988Y-84099795D01*
X114600400Y-84004382D01*
X114584889Y-83962796D01*
X114584888Y-83962794D01*
X114584887Y-83962792D01*
X114497261Y-83845738D01*
X114380207Y-83758112D01*
X114380202Y-83758110D01*
X114243204Y-83707011D01*
X114243196Y-83707009D01*
X114182649Y-83700500D01*
X114182638Y-83700500D01*
X112385362Y-83700500D01*
X112385350Y-83700500D01*
X112324803Y-83707009D01*
X112324795Y-83707011D01*
X112187797Y-83758110D01*
X112187792Y-83758112D01*
X112070738Y-83845738D01*
X111983112Y-83962792D01*
X111983110Y-83962797D01*
X111932011Y-84099795D01*
X111932009Y-84099803D01*
X111925500Y-84160350D01*
X93992336Y-84160350D01*
X93968894Y-84012342D01*
X93890656Y-83771550D01*
X93775713Y-83545962D01*
X93626895Y-83341132D01*
X93626892Y-83341129D01*
X93626890Y-83341126D01*
X93447873Y-83162109D01*
X93447870Y-83162107D01*
X93447868Y-83162105D01*
X93243309Y-83013484D01*
X93243041Y-83013289D01*
X93243040Y-83013288D01*
X93243038Y-83013287D01*
X93017450Y-82898344D01*
X93001271Y-82893087D01*
X92776663Y-82820107D01*
X92776659Y-82820106D01*
X92776658Y-82820106D01*
X92534541Y-82781759D01*
X114761486Y-82781759D01*
X114761486Y-82956241D01*
X114788781Y-83128574D01*
X114788782Y-83128577D01*
X114841653Y-83291302D01*
X114842698Y-83294516D01*
X114921912Y-83449981D01*
X115024469Y-83591139D01*
X115024471Y-83591141D01*
X115024473Y-83591144D01*
X115147841Y-83714512D01*
X115147844Y-83714514D01*
X115147847Y-83714517D01*
X115289005Y-83817074D01*
X115444470Y-83896288D01*
X115610412Y-83950205D01*
X115782745Y-83977500D01*
X115782748Y-83977500D01*
X115957224Y-83977500D01*
X115957227Y-83977500D01*
X116129560Y-83950205D01*
X116295502Y-83896288D01*
X116450967Y-83817074D01*
X116592125Y-83714517D01*
X116715503Y-83591139D01*
X116742167Y-83554438D01*
X116798389Y-83511085D01*
X116844103Y-83502500D01*
X126340126Y-83502500D01*
X126408247Y-83522502D01*
X126454740Y-83576158D01*
X126464573Y-83608784D01*
X126478795Y-83698574D01*
X126479421Y-83700500D01*
X126526610Y-83845738D01*
X126532712Y-83864516D01*
X126611926Y-84019981D01*
X126714483Y-84161139D01*
X126714485Y-84161141D01*
X126714487Y-84161144D01*
X126837855Y-84284512D01*
X126837858Y-84284514D01*
X126837861Y-84284517D01*
X126979019Y-84387074D01*
X127134484Y-84466288D01*
X127300426Y-84520205D01*
X127472759Y-84547500D01*
X127472762Y-84547500D01*
X127647238Y-84547500D01*
X127647241Y-84547500D01*
X127819574Y-84520205D01*
X127985516Y-84466288D01*
X128140981Y-84387074D01*
X128282139Y-84284517D01*
X128405517Y-84161139D01*
X128508074Y-84019981D01*
X128587288Y-83864516D01*
X128641205Y-83698574D01*
X128668500Y-83526241D01*
X128668500Y-83351759D01*
X128641205Y-83179426D01*
X128587288Y-83013484D01*
X128508074Y-82858019D01*
X128405517Y-82716861D01*
X128405514Y-82716858D01*
X128405512Y-82716855D01*
X128282144Y-82593487D01*
X128282141Y-82593485D01*
X128282139Y-82593483D01*
X128140981Y-82490926D01*
X127985516Y-82411712D01*
X127985513Y-82411711D01*
X127985511Y-82411710D01*
X127819577Y-82357796D01*
X127819574Y-82357795D01*
X127647241Y-82330500D01*
X127472759Y-82330500D01*
X127441982Y-82335374D01*
X127401493Y-82341787D01*
X127331082Y-82332687D01*
X127311781Y-82322103D01*
X127290079Y-82307602D01*
X127290076Y-82307600D01*
X127290075Y-82307600D01*
X127174785Y-82259845D01*
X127101086Y-82245185D01*
X127052396Y-82235500D01*
X127052394Y-82235500D01*
X116844103Y-82235500D01*
X116775982Y-82215498D01*
X116742167Y-82183561D01*
X116715503Y-82146861D01*
X116715500Y-82146858D01*
X116715498Y-82146855D01*
X116592130Y-82023487D01*
X116592127Y-82023485D01*
X116592125Y-82023483D01*
X116450967Y-81920926D01*
X116295502Y-81841712D01*
X116295499Y-81841711D01*
X116295497Y-81841710D01*
X116129563Y-81787796D01*
X116129560Y-81787795D01*
X115957227Y-81760500D01*
X115782745Y-81760500D01*
X115610412Y-81787795D01*
X115610409Y-81787795D01*
X115610408Y-81787796D01*
X115444474Y-81841710D01*
X115444468Y-81841713D01*
X115289001Y-81920928D01*
X115147844Y-82023485D01*
X115147841Y-82023487D01*
X115024473Y-82146855D01*
X115024471Y-82146858D01*
X114921914Y-82288015D01*
X114842699Y-82443482D01*
X114842696Y-82443488D01*
X114788782Y-82609422D01*
X114788781Y-82609426D01*
X114761486Y-82781759D01*
X92534541Y-82781759D01*
X92526592Y-82780500D01*
X92273408Y-82780500D01*
X92023342Y-82820106D01*
X92023336Y-82820107D01*
X91782554Y-82898342D01*
X91782548Y-82898345D01*
X91556958Y-83013289D01*
X91352129Y-83162107D01*
X91352126Y-83162109D01*
X91173109Y-83341126D01*
X91173107Y-83341129D01*
X91024289Y-83545958D01*
X90909345Y-83771548D01*
X90909342Y-83771554D01*
X90831107Y-84012336D01*
X90831106Y-84012341D01*
X90831106Y-84012342D01*
X90791500Y-84262408D01*
X84713307Y-84262408D01*
X84606206Y-84114996D01*
X84580304Y-84089094D01*
X84546280Y-84026785D01*
X84551344Y-83955970D01*
X84580304Y-83910905D01*
X84606206Y-83885004D01*
X84731894Y-83712009D01*
X84828972Y-83521483D01*
X84895049Y-83318116D01*
X84928500Y-83106916D01*
X84928500Y-82893084D01*
X84895049Y-82681884D01*
X84828972Y-82478517D01*
X84731894Y-82287991D01*
X84606206Y-82114996D01*
X84606203Y-82114993D01*
X84606201Y-82114990D01*
X84455009Y-81963798D01*
X84455006Y-81963796D01*
X84455004Y-81963794D01*
X84286972Y-81841712D01*
X84282012Y-81838108D01*
X84282011Y-81838107D01*
X84282009Y-81838106D01*
X84091483Y-81741028D01*
X84091480Y-81741027D01*
X84091478Y-81741026D01*
X83888120Y-81674952D01*
X83888123Y-81674952D01*
X83848801Y-81668724D01*
X83676916Y-81641500D01*
X83463084Y-81641500D01*
X83251884Y-81674951D01*
X83251878Y-81674952D01*
X83048521Y-81741026D01*
X83048515Y-81741029D01*
X82857987Y-81838108D01*
X82684993Y-81963796D01*
X82684990Y-81963798D01*
X82533795Y-82114993D01*
X82421626Y-82269381D01*
X82365403Y-82312735D01*
X82294667Y-82318810D01*
X82231876Y-82285678D01*
X82217755Y-82269382D01*
X82193378Y-82235831D01*
X82193377Y-82235830D01*
X81521497Y-82907710D01*
X81498651Y-82822447D01*
X81438091Y-82717554D01*
X81352446Y-82631909D01*
X81247553Y-82571349D01*
X81162288Y-82548501D01*
X81834168Y-81876621D01*
X81834167Y-81876620D01*
X81781750Y-81838536D01*
X81781748Y-81838535D01*
X81591292Y-81741493D01*
X81591286Y-81741490D01*
X81388003Y-81675440D01*
X81176874Y-81642000D01*
X80963126Y-81642000D01*
X80751996Y-81675440D01*
X80548713Y-81741490D01*
X80548707Y-81741493D01*
X80358253Y-81838534D01*
X80305831Y-81876621D01*
X80305831Y-81876622D01*
X80977710Y-82548501D01*
X80892447Y-82571349D01*
X80787554Y-82631909D01*
X80701909Y-82717554D01*
X80641349Y-82822447D01*
X80618501Y-82907712D01*
X79946621Y-82235831D01*
X79908534Y-82288253D01*
X79811493Y-82478707D01*
X79811490Y-82478713D01*
X79745440Y-82681996D01*
X79712000Y-82893126D01*
X79712000Y-83106873D01*
X79745440Y-83318003D01*
X79811490Y-83521286D01*
X79811495Y-83521298D01*
X79874803Y-83645548D01*
X79887907Y-83715325D01*
X79861916Y-83779358D01*
X79862139Y-83779525D01*
X79861505Y-83780371D01*
X79861206Y-83781109D01*
X79859628Y-83782878D01*
X79769112Y-83903792D01*
X79769110Y-83903797D01*
X79718011Y-84040795D01*
X79718009Y-84040803D01*
X79711500Y-84101350D01*
X78470000Y-84101350D01*
X78470000Y-83418088D01*
X78490002Y-83349967D01*
X78525997Y-83313324D01*
X78536865Y-83306063D01*
X78821719Y-83072289D01*
X79082289Y-82811719D01*
X79316063Y-82526865D01*
X79520791Y-82220468D01*
X79694501Y-81895479D01*
X79835520Y-81555029D01*
X79942490Y-81202396D01*
X79954005Y-81144504D01*
X79986909Y-81081598D01*
X80048603Y-81046465D01*
X80075541Y-81043104D01*
X84546042Y-80970999D01*
X84614475Y-80989900D01*
X84661828Y-81042799D01*
X84671652Y-81072401D01*
X84677300Y-81100796D01*
X84697510Y-81202396D01*
X84781272Y-81478521D01*
X84804480Y-81555029D01*
X84804481Y-81555033D01*
X84945499Y-81895479D01*
X85119210Y-82220470D01*
X85323932Y-82526858D01*
X85323943Y-82526873D01*
X85557705Y-82811712D01*
X85557723Y-82811732D01*
X85818267Y-83072276D01*
X85818287Y-83072294D01*
X86093090Y-83297820D01*
X86103135Y-83306063D01*
X86409532Y-83510791D01*
X86734521Y-83684501D01*
X87038131Y-83810260D01*
X87054580Y-83817074D01*
X87074971Y-83825520D01*
X87427604Y-83932490D01*
X87427613Y-83932491D01*
X87427617Y-83932493D01*
X87516653Y-83950203D01*
X87789024Y-84004381D01*
X88155750Y-84040500D01*
X88155759Y-84040500D01*
X88524241Y-84040500D01*
X88524250Y-84040500D01*
X88890976Y-84004381D01*
X89188660Y-83945167D01*
X89252382Y-83932493D01*
X89252384Y-83932492D01*
X89252396Y-83932490D01*
X89605029Y-83825520D01*
X89945479Y-83684501D01*
X90270468Y-83510791D01*
X90576865Y-83306063D01*
X90861719Y-83072289D01*
X91122289Y-82811719D01*
X91356063Y-82526865D01*
X91560791Y-82220468D01*
X91734501Y-81895479D01*
X91875520Y-81555029D01*
X91982490Y-81202396D01*
X92054381Y-80840976D01*
X92090500Y-80474250D01*
X92090500Y-80105750D01*
X92069554Y-79893084D01*
X113141500Y-79893084D01*
X113141500Y-80106916D01*
X113174951Y-80318116D01*
X113174952Y-80318121D01*
X113241026Y-80521478D01*
X113241028Y-80521483D01*
X113338106Y-80712009D01*
X113463794Y-80885004D01*
X113463796Y-80885006D01*
X113463798Y-80885009D01*
X113614990Y-81036201D01*
X113614993Y-81036203D01*
X113614996Y-81036206D01*
X113787991Y-81161894D01*
X113978517Y-81258972D01*
X114181878Y-81325047D01*
X114181879Y-81325047D01*
X114181884Y-81325049D01*
X114393084Y-81358500D01*
X114393087Y-81358500D01*
X114606913Y-81358500D01*
X114606916Y-81358500D01*
X114818116Y-81325049D01*
X115021483Y-81258972D01*
X115212009Y-81161894D01*
X115385004Y-81036206D01*
X115536206Y-80885004D01*
X115661894Y-80712009D01*
X115661899Y-80711997D01*
X115662561Y-80710920D01*
X115662924Y-80710591D01*
X115664804Y-80708004D01*
X115665347Y-80708398D01*
X115715204Y-80663283D01*
X115785244Y-80651670D01*
X115850445Y-80679766D01*
X115875021Y-80708130D01*
X115875196Y-80708004D01*
X115876668Y-80710030D01*
X115877439Y-80710920D01*
X115878105Y-80712007D01*
X115878106Y-80712009D01*
X116003794Y-80885004D01*
X116003796Y-80885006D01*
X116003798Y-80885009D01*
X116154990Y-81036201D01*
X116154993Y-81036203D01*
X116154996Y-81036206D01*
X116327991Y-81161894D01*
X116518517Y-81258972D01*
X116721878Y-81325047D01*
X116721879Y-81325047D01*
X116721884Y-81325049D01*
X116933084Y-81358500D01*
X116933087Y-81358500D01*
X117146913Y-81358500D01*
X117146916Y-81358500D01*
X117358116Y-81325049D01*
X117561483Y-81258972D01*
X117752009Y-81161894D01*
X117925004Y-81036206D01*
X118076206Y-80885004D01*
X118201894Y-80712009D01*
X118201899Y-80711997D01*
X118202561Y-80710920D01*
X118202924Y-80710591D01*
X118204804Y-80708004D01*
X118205347Y-80708398D01*
X118255204Y-80663283D01*
X118325244Y-80651670D01*
X118390445Y-80679766D01*
X118415021Y-80708130D01*
X118415196Y-80708004D01*
X118416668Y-80710030D01*
X118417439Y-80710920D01*
X118418105Y-80712007D01*
X118418106Y-80712009D01*
X118543794Y-80885004D01*
X118543796Y-80885006D01*
X118543798Y-80885009D01*
X118694990Y-81036201D01*
X118694993Y-81036203D01*
X118694996Y-81036206D01*
X118867991Y-81161894D01*
X119058517Y-81258972D01*
X119261878Y-81325047D01*
X119261879Y-81325047D01*
X119261884Y-81325049D01*
X119473084Y-81358500D01*
X119473087Y-81358500D01*
X119686913Y-81358500D01*
X119686916Y-81358500D01*
X119898116Y-81325049D01*
X120101483Y-81258972D01*
X120292009Y-81161894D01*
X120465004Y-81036206D01*
X120616206Y-80885004D01*
X120741894Y-80712009D01*
X120741899Y-80711997D01*
X120742561Y-80710920D01*
X120742924Y-80710591D01*
X120744804Y-80708004D01*
X120745347Y-80708398D01*
X120795204Y-80663283D01*
X120865244Y-80651670D01*
X120930445Y-80679766D01*
X120955021Y-80708130D01*
X120955196Y-80708004D01*
X120956668Y-80710030D01*
X120957439Y-80710920D01*
X120958105Y-80712007D01*
X120958106Y-80712009D01*
X121083794Y-80885004D01*
X121083796Y-80885006D01*
X121083798Y-80885009D01*
X121234990Y-81036201D01*
X121234993Y-81036203D01*
X121234996Y-81036206D01*
X121407991Y-81161894D01*
X121598517Y-81258972D01*
X121801878Y-81325047D01*
X121801879Y-81325047D01*
X121801884Y-81325049D01*
X122013084Y-81358500D01*
X122013087Y-81358500D01*
X122226913Y-81358500D01*
X122226916Y-81358500D01*
X122438116Y-81325049D01*
X122641483Y-81258972D01*
X122832009Y-81161894D01*
X123005004Y-81036206D01*
X123156206Y-80885004D01*
X123281894Y-80712009D01*
X123281899Y-80711997D01*
X123282561Y-80710920D01*
X123282924Y-80710591D01*
X123284804Y-80708004D01*
X123285347Y-80708398D01*
X123335204Y-80663283D01*
X123405244Y-80651670D01*
X123470445Y-80679766D01*
X123495021Y-80708130D01*
X123495196Y-80708004D01*
X123496668Y-80710030D01*
X123497439Y-80710920D01*
X123498105Y-80712007D01*
X123498106Y-80712009D01*
X123623794Y-80885004D01*
X123623796Y-80885006D01*
X123623798Y-80885009D01*
X123774990Y-81036201D01*
X123774993Y-81036203D01*
X123774996Y-81036206D01*
X123947991Y-81161894D01*
X124138517Y-81258972D01*
X124341878Y-81325047D01*
X124341879Y-81325047D01*
X124341884Y-81325049D01*
X124553084Y-81358500D01*
X124553087Y-81358500D01*
X124766913Y-81358500D01*
X124766916Y-81358500D01*
X124978116Y-81325049D01*
X125181483Y-81258972D01*
X125372009Y-81161894D01*
X125545004Y-81036206D01*
X125696206Y-80885004D01*
X125821894Y-80712009D01*
X125821899Y-80711997D01*
X125822561Y-80710920D01*
X125822924Y-80710591D01*
X125824804Y-80708004D01*
X125825347Y-80708398D01*
X125875204Y-80663283D01*
X125945244Y-80651670D01*
X126010445Y-80679766D01*
X126035021Y-80708130D01*
X126035196Y-80708004D01*
X126036668Y-80710030D01*
X126037439Y-80710920D01*
X126038105Y-80712007D01*
X126038106Y-80712009D01*
X126163794Y-80885004D01*
X126163796Y-80885006D01*
X126163798Y-80885009D01*
X126314990Y-81036201D01*
X126314993Y-81036203D01*
X126314996Y-81036206D01*
X126487991Y-81161894D01*
X126678517Y-81258972D01*
X126881878Y-81325047D01*
X126881879Y-81325047D01*
X126881884Y-81325049D01*
X127093084Y-81358500D01*
X127093087Y-81358500D01*
X127306913Y-81358500D01*
X127306916Y-81358500D01*
X127518116Y-81325049D01*
X127721483Y-81258972D01*
X127912009Y-81161894D01*
X128085004Y-81036206D01*
X128236206Y-80885004D01*
X128361894Y-80712009D01*
X128361899Y-80711997D01*
X128362561Y-80710920D01*
X128362924Y-80710591D01*
X128364804Y-80708004D01*
X128365347Y-80708398D01*
X128415204Y-80663283D01*
X128485244Y-80651670D01*
X128550445Y-80679766D01*
X128575021Y-80708130D01*
X128575196Y-80708004D01*
X128576668Y-80710030D01*
X128577439Y-80710920D01*
X128578105Y-80712007D01*
X128578106Y-80712009D01*
X128703794Y-80885004D01*
X128703796Y-80885006D01*
X128703798Y-80885009D01*
X128854990Y-81036201D01*
X128854993Y-81036203D01*
X128854996Y-81036206D01*
X129027991Y-81161894D01*
X129218517Y-81258972D01*
X129421878Y-81325047D01*
X129421879Y-81325047D01*
X129421884Y-81325049D01*
X129633084Y-81358500D01*
X129633087Y-81358500D01*
X129846913Y-81358500D01*
X129846916Y-81358500D01*
X130058116Y-81325049D01*
X130261483Y-81258972D01*
X130452009Y-81161894D01*
X130625004Y-81036206D01*
X130776206Y-80885004D01*
X130901894Y-80712009D01*
X130901899Y-80711997D01*
X130902561Y-80710920D01*
X130902924Y-80710591D01*
X130904804Y-80708004D01*
X130905347Y-80708398D01*
X130955204Y-80663283D01*
X131025244Y-80651670D01*
X131090445Y-80679766D01*
X131115021Y-80708130D01*
X131115196Y-80708004D01*
X131116668Y-80710030D01*
X131117439Y-80710920D01*
X131118105Y-80712007D01*
X131118106Y-80712009D01*
X131243794Y-80885004D01*
X131243796Y-80885006D01*
X131243798Y-80885009D01*
X131394990Y-81036201D01*
X131394993Y-81036203D01*
X131394996Y-81036206D01*
X131567991Y-81161894D01*
X131758517Y-81258972D01*
X131961878Y-81325047D01*
X131961879Y-81325047D01*
X131961884Y-81325049D01*
X132173084Y-81358500D01*
X132173087Y-81358500D01*
X132386913Y-81358500D01*
X132386916Y-81358500D01*
X132598116Y-81325049D01*
X132801483Y-81258972D01*
X132992009Y-81161894D01*
X133165004Y-81036206D01*
X133316206Y-80885004D01*
X133441894Y-80712009D01*
X133441899Y-80711997D01*
X133442561Y-80710920D01*
X133442924Y-80710591D01*
X133444804Y-80708004D01*
X133445347Y-80708398D01*
X133495204Y-80663283D01*
X133565244Y-80651670D01*
X133630445Y-80679766D01*
X133655021Y-80708130D01*
X133655196Y-80708004D01*
X133656668Y-80710030D01*
X133657439Y-80710920D01*
X133658105Y-80712007D01*
X133658106Y-80712009D01*
X133783794Y-80885004D01*
X133783796Y-80885006D01*
X133783798Y-80885009D01*
X133934990Y-81036201D01*
X133934993Y-81036203D01*
X133934996Y-81036206D01*
X134107991Y-81161894D01*
X134298517Y-81258972D01*
X134501878Y-81325047D01*
X134501879Y-81325047D01*
X134501884Y-81325049D01*
X134713084Y-81358500D01*
X134713087Y-81358500D01*
X134926913Y-81358500D01*
X134926916Y-81358500D01*
X135138116Y-81325049D01*
X135341483Y-81258972D01*
X135532009Y-81161894D01*
X135705004Y-81036206D01*
X135856206Y-80885004D01*
X135981894Y-80712009D01*
X135981899Y-80711997D01*
X135982561Y-80710920D01*
X135982924Y-80710591D01*
X135984804Y-80708004D01*
X135985347Y-80708398D01*
X136035204Y-80663283D01*
X136105244Y-80651670D01*
X136170445Y-80679766D01*
X136195021Y-80708130D01*
X136195196Y-80708004D01*
X136196668Y-80710030D01*
X136197439Y-80710920D01*
X136198105Y-80712007D01*
X136198106Y-80712009D01*
X136323794Y-80885004D01*
X136323796Y-80885006D01*
X136323798Y-80885009D01*
X136474990Y-81036201D01*
X136474993Y-81036203D01*
X136474996Y-81036206D01*
X136647991Y-81161894D01*
X136838517Y-81258972D01*
X137041878Y-81325047D01*
X137041879Y-81325047D01*
X137041884Y-81325049D01*
X137253084Y-81358500D01*
X137253087Y-81358500D01*
X137466913Y-81358500D01*
X137466916Y-81358500D01*
X137678116Y-81325049D01*
X137881483Y-81258972D01*
X138072009Y-81161894D01*
X138245004Y-81036206D01*
X138396206Y-80885004D01*
X138521894Y-80712009D01*
X138521899Y-80711997D01*
X138522561Y-80710920D01*
X138522924Y-80710591D01*
X138524804Y-80708004D01*
X138525347Y-80708398D01*
X138575204Y-80663283D01*
X138645244Y-80651670D01*
X138710445Y-80679766D01*
X138735021Y-80708130D01*
X138735196Y-80708004D01*
X138736668Y-80710030D01*
X138737439Y-80710920D01*
X138738105Y-80712007D01*
X138738106Y-80712009D01*
X138863794Y-80885004D01*
X138863796Y-80885006D01*
X138863798Y-80885009D01*
X139014990Y-81036201D01*
X139014993Y-81036203D01*
X139014996Y-81036206D01*
X139187991Y-81161894D01*
X139378517Y-81258972D01*
X139581878Y-81325047D01*
X139581879Y-81325047D01*
X139581884Y-81325049D01*
X139793084Y-81358500D01*
X139793087Y-81358500D01*
X140006913Y-81358500D01*
X140006916Y-81358500D01*
X140218116Y-81325049D01*
X140421483Y-81258972D01*
X140612009Y-81161894D01*
X140785004Y-81036206D01*
X140936206Y-80885004D01*
X141061894Y-80712009D01*
X141061899Y-80711997D01*
X141062561Y-80710920D01*
X141062924Y-80710591D01*
X141064804Y-80708004D01*
X141065347Y-80708398D01*
X141115204Y-80663283D01*
X141185244Y-80651670D01*
X141250445Y-80679766D01*
X141275021Y-80708130D01*
X141275196Y-80708004D01*
X141276668Y-80710030D01*
X141277439Y-80710920D01*
X141278105Y-80712007D01*
X141278106Y-80712009D01*
X141403794Y-80885004D01*
X141403796Y-80885006D01*
X141403798Y-80885009D01*
X141554990Y-81036201D01*
X141554993Y-81036203D01*
X141554996Y-81036206D01*
X141727991Y-81161894D01*
X141918517Y-81258972D01*
X142121878Y-81325047D01*
X142121879Y-81325047D01*
X142121884Y-81325049D01*
X142333084Y-81358500D01*
X142333087Y-81358500D01*
X142546913Y-81358500D01*
X142546916Y-81358500D01*
X142758116Y-81325049D01*
X142961483Y-81258972D01*
X143152009Y-81161894D01*
X143325004Y-81036206D01*
X143476206Y-80885004D01*
X143601894Y-80712009D01*
X143601899Y-80711997D01*
X143602561Y-80710920D01*
X143602924Y-80710591D01*
X143604804Y-80708004D01*
X143605347Y-80708398D01*
X143655204Y-80663283D01*
X143725244Y-80651670D01*
X143790445Y-80679766D01*
X143815021Y-80708130D01*
X143815196Y-80708004D01*
X143816668Y-80710030D01*
X143817439Y-80710920D01*
X143818105Y-80712007D01*
X143818106Y-80712009D01*
X143943794Y-80885004D01*
X143943796Y-80885006D01*
X143943798Y-80885009D01*
X144094990Y-81036201D01*
X144094993Y-81036203D01*
X144094996Y-81036206D01*
X144267991Y-81161894D01*
X144458517Y-81258972D01*
X144661878Y-81325047D01*
X144661879Y-81325047D01*
X144661884Y-81325049D01*
X144873084Y-81358500D01*
X144873087Y-81358500D01*
X145086913Y-81358500D01*
X145086916Y-81358500D01*
X145298116Y-81325049D01*
X145501483Y-81258972D01*
X145692009Y-81161894D01*
X145865004Y-81036206D01*
X146016206Y-80885004D01*
X146141894Y-80712009D01*
X146141899Y-80711997D01*
X146142561Y-80710920D01*
X146142924Y-80710591D01*
X146144804Y-80708004D01*
X146145347Y-80708398D01*
X146195204Y-80663283D01*
X146265244Y-80651670D01*
X146330445Y-80679766D01*
X146355021Y-80708130D01*
X146355196Y-80708004D01*
X146356668Y-80710030D01*
X146357439Y-80710920D01*
X146358105Y-80712007D01*
X146358106Y-80712009D01*
X146483794Y-80885004D01*
X146483796Y-80885006D01*
X146483798Y-80885009D01*
X146634990Y-81036201D01*
X146634993Y-81036203D01*
X146634996Y-81036206D01*
X146807991Y-81161894D01*
X146998517Y-81258972D01*
X147201878Y-81325047D01*
X147201879Y-81325047D01*
X147201884Y-81325049D01*
X147413084Y-81358500D01*
X147413087Y-81358500D01*
X147626913Y-81358500D01*
X147626916Y-81358500D01*
X147838116Y-81325049D01*
X148041483Y-81258972D01*
X148232009Y-81161894D01*
X148405004Y-81036206D01*
X148556206Y-80885004D01*
X148681894Y-80712009D01*
X148681899Y-80711997D01*
X148682561Y-80710920D01*
X148682924Y-80710591D01*
X148684804Y-80708004D01*
X148685347Y-80708398D01*
X148735204Y-80663283D01*
X148805244Y-80651670D01*
X148870445Y-80679766D01*
X148895021Y-80708130D01*
X148895196Y-80708004D01*
X148896668Y-80710030D01*
X148897439Y-80710920D01*
X148898105Y-80712007D01*
X148898106Y-80712009D01*
X149023794Y-80885004D01*
X149023796Y-80885006D01*
X149023798Y-80885009D01*
X149174990Y-81036201D01*
X149174993Y-81036203D01*
X149174996Y-81036206D01*
X149347991Y-81161894D01*
X149538517Y-81258972D01*
X149741878Y-81325047D01*
X149741879Y-81325047D01*
X149741884Y-81325049D01*
X149953084Y-81358500D01*
X149953087Y-81358500D01*
X150166913Y-81358500D01*
X150166916Y-81358500D01*
X150378116Y-81325049D01*
X150581483Y-81258972D01*
X150772009Y-81161894D01*
X150945004Y-81036206D01*
X151047982Y-80933227D01*
X151110292Y-80899204D01*
X151181108Y-80904268D01*
X151237944Y-80946815D01*
X151255131Y-80978291D01*
X151299110Y-81096203D01*
X151299112Y-81096207D01*
X151386738Y-81213261D01*
X151503792Y-81300887D01*
X151503794Y-81300888D01*
X151503796Y-81300889D01*
X151555640Y-81320226D01*
X151640795Y-81351988D01*
X151640803Y-81351990D01*
X151701350Y-81358499D01*
X151701355Y-81358499D01*
X151701362Y-81358500D01*
X151701368Y-81358500D01*
X153498632Y-81358500D01*
X153498638Y-81358500D01*
X153498645Y-81358499D01*
X153498649Y-81358499D01*
X153559196Y-81351990D01*
X153559199Y-81351989D01*
X153559201Y-81351989D01*
X153569017Y-81348328D01*
X153578045Y-81344960D01*
X153696204Y-81300889D01*
X153711528Y-81289418D01*
X153813261Y-81213261D01*
X153897037Y-81101350D01*
X169041500Y-81101350D01*
X169041500Y-82898649D01*
X169048009Y-82959196D01*
X169048011Y-82959204D01*
X169099110Y-83096202D01*
X169099112Y-83096207D01*
X169186738Y-83213261D01*
X169303792Y-83300887D01*
X169303794Y-83300888D01*
X169303796Y-83300889D01*
X169354104Y-83319653D01*
X169440795Y-83351988D01*
X169440803Y-83351990D01*
X169501350Y-83358499D01*
X169501355Y-83358499D01*
X169501362Y-83358500D01*
X169501368Y-83358500D01*
X171298632Y-83358500D01*
X171298638Y-83358500D01*
X171298645Y-83358499D01*
X171298649Y-83358499D01*
X171359196Y-83351990D01*
X171359199Y-83351989D01*
X171359201Y-83351989D01*
X171496204Y-83300889D01*
X171504718Y-83294516D01*
X171613261Y-83213261D01*
X171700887Y-83096207D01*
X171700887Y-83096206D01*
X171700889Y-83096204D01*
X171744869Y-82978288D01*
X171787414Y-82921456D01*
X171853934Y-82896645D01*
X171923308Y-82911736D01*
X171952018Y-82933229D01*
X172054990Y-83036201D01*
X172054993Y-83036203D01*
X172054996Y-83036206D01*
X172227991Y-83161894D01*
X172418517Y-83258972D01*
X172621878Y-83325047D01*
X172621879Y-83325047D01*
X172621884Y-83325049D01*
X172833084Y-83358500D01*
X172833087Y-83358500D01*
X173046913Y-83358500D01*
X173046916Y-83358500D01*
X173258116Y-83325049D01*
X173461483Y-83258972D01*
X173652009Y-83161894D01*
X173825004Y-83036206D01*
X173976206Y-82885004D01*
X174101894Y-82712009D01*
X174101899Y-82711997D01*
X174102561Y-82710920D01*
X174102924Y-82710591D01*
X174104804Y-82708004D01*
X174105347Y-82708398D01*
X174155204Y-82663283D01*
X174225244Y-82651670D01*
X174290445Y-82679766D01*
X174315021Y-82708130D01*
X174315196Y-82708004D01*
X174316668Y-82710030D01*
X174317439Y-82710920D01*
X174318105Y-82712007D01*
X174318106Y-82712009D01*
X174443794Y-82885004D01*
X174443796Y-82885006D01*
X174443798Y-82885009D01*
X174594990Y-83036201D01*
X174594993Y-83036203D01*
X174594996Y-83036206D01*
X174767991Y-83161894D01*
X174958517Y-83258972D01*
X175161878Y-83325047D01*
X175161879Y-83325047D01*
X175161884Y-83325049D01*
X175373084Y-83358500D01*
X175373087Y-83358500D01*
X175586913Y-83358500D01*
X175586916Y-83358500D01*
X175798116Y-83325049D01*
X176001483Y-83258972D01*
X176192009Y-83161894D01*
X176365004Y-83036206D01*
X176516206Y-82885004D01*
X176641894Y-82712009D01*
X176641899Y-82711997D01*
X176642561Y-82710920D01*
X176642924Y-82710591D01*
X176644804Y-82708004D01*
X176645347Y-82708398D01*
X176695204Y-82663283D01*
X176765244Y-82651670D01*
X176830445Y-82679766D01*
X176855021Y-82708130D01*
X176855196Y-82708004D01*
X176856668Y-82710030D01*
X176857439Y-82710920D01*
X176858105Y-82712007D01*
X176858106Y-82712009D01*
X176983794Y-82885004D01*
X176983796Y-82885006D01*
X176983798Y-82885009D01*
X177134990Y-83036201D01*
X177134993Y-83036203D01*
X177134996Y-83036206D01*
X177307991Y-83161894D01*
X177498517Y-83258972D01*
X177701878Y-83325047D01*
X177701879Y-83325047D01*
X177701884Y-83325049D01*
X177913084Y-83358500D01*
X177913087Y-83358500D01*
X178126913Y-83358500D01*
X178126916Y-83358500D01*
X178338116Y-83325049D01*
X178541483Y-83258972D01*
X178732009Y-83161894D01*
X178905004Y-83036206D01*
X179056206Y-82885004D01*
X179181894Y-82712009D01*
X179181899Y-82711997D01*
X179182561Y-82710920D01*
X179182924Y-82710591D01*
X179184804Y-82708004D01*
X179185347Y-82708398D01*
X179235204Y-82663283D01*
X179305244Y-82651670D01*
X179370445Y-82679766D01*
X179395021Y-82708130D01*
X179395196Y-82708004D01*
X179396668Y-82710030D01*
X179397439Y-82710920D01*
X179398105Y-82712007D01*
X179398106Y-82712009D01*
X179523794Y-82885004D01*
X179523796Y-82885006D01*
X179523798Y-82885009D01*
X179674990Y-83036201D01*
X179674993Y-83036203D01*
X179674996Y-83036206D01*
X179847991Y-83161894D01*
X180038517Y-83258972D01*
X180241878Y-83325047D01*
X180241879Y-83325047D01*
X180241884Y-83325049D01*
X180453084Y-83358500D01*
X180453087Y-83358500D01*
X180666913Y-83358500D01*
X180666916Y-83358500D01*
X180878116Y-83325049D01*
X181081483Y-83258972D01*
X181272009Y-83161894D01*
X181445004Y-83036206D01*
X181596206Y-82885004D01*
X181721894Y-82712009D01*
X181721899Y-82711997D01*
X181722561Y-82710920D01*
X181722924Y-82710591D01*
X181724804Y-82708004D01*
X181725347Y-82708398D01*
X181775204Y-82663283D01*
X181845244Y-82651670D01*
X181910445Y-82679766D01*
X181935021Y-82708130D01*
X181935196Y-82708004D01*
X181936668Y-82710030D01*
X181937439Y-82710920D01*
X181938105Y-82712007D01*
X181938106Y-82712009D01*
X182063794Y-82885004D01*
X182063796Y-82885006D01*
X182063798Y-82885009D01*
X182214990Y-83036201D01*
X182214993Y-83036203D01*
X182214996Y-83036206D01*
X182387991Y-83161894D01*
X182578517Y-83258972D01*
X182781878Y-83325047D01*
X182781879Y-83325047D01*
X182781884Y-83325049D01*
X182993084Y-83358500D01*
X182993087Y-83358500D01*
X183206913Y-83358500D01*
X183206916Y-83358500D01*
X183418116Y-83325049D01*
X183621483Y-83258972D01*
X183812009Y-83161894D01*
X183985004Y-83036206D01*
X184136206Y-82885004D01*
X184261894Y-82712009D01*
X184261899Y-82711997D01*
X184262561Y-82710920D01*
X184262924Y-82710591D01*
X184264804Y-82708004D01*
X184265347Y-82708398D01*
X184315204Y-82663283D01*
X184385244Y-82651670D01*
X184450445Y-82679766D01*
X184475021Y-82708130D01*
X184475196Y-82708004D01*
X184476668Y-82710030D01*
X184477439Y-82710920D01*
X184478105Y-82712007D01*
X184478106Y-82712009D01*
X184603794Y-82885004D01*
X184603796Y-82885006D01*
X184603798Y-82885009D01*
X184754990Y-83036201D01*
X184754993Y-83036203D01*
X184754996Y-83036206D01*
X184927991Y-83161894D01*
X185118517Y-83258972D01*
X185321878Y-83325047D01*
X185321879Y-83325047D01*
X185321884Y-83325049D01*
X185533084Y-83358500D01*
X185533087Y-83358500D01*
X185746913Y-83358500D01*
X185746916Y-83358500D01*
X185958116Y-83325049D01*
X186161483Y-83258972D01*
X186352009Y-83161894D01*
X186525004Y-83036206D01*
X186676206Y-82885004D01*
X186801894Y-82712009D01*
X186801899Y-82711997D01*
X186802561Y-82710920D01*
X186802924Y-82710591D01*
X186804804Y-82708004D01*
X186805347Y-82708398D01*
X186855204Y-82663283D01*
X186925244Y-82651670D01*
X186990445Y-82679766D01*
X187015021Y-82708130D01*
X187015196Y-82708004D01*
X187016668Y-82710030D01*
X187017439Y-82710920D01*
X187018105Y-82712007D01*
X187018106Y-82712009D01*
X187143794Y-82885004D01*
X187143796Y-82885006D01*
X187143798Y-82885009D01*
X187294990Y-83036201D01*
X187294993Y-83036203D01*
X187294996Y-83036206D01*
X187467991Y-83161894D01*
X187658517Y-83258972D01*
X187861878Y-83325047D01*
X187861879Y-83325047D01*
X187861884Y-83325049D01*
X188073084Y-83358500D01*
X188073087Y-83358500D01*
X188286913Y-83358500D01*
X188286916Y-83358500D01*
X188498116Y-83325049D01*
X188701483Y-83258972D01*
X188892009Y-83161894D01*
X189065004Y-83036206D01*
X189216206Y-82885004D01*
X189341894Y-82712009D01*
X189341899Y-82711997D01*
X189342561Y-82710920D01*
X189342924Y-82710591D01*
X189344804Y-82708004D01*
X189345347Y-82708398D01*
X189395204Y-82663283D01*
X189465244Y-82651670D01*
X189530445Y-82679766D01*
X189555021Y-82708130D01*
X189555196Y-82708004D01*
X189556668Y-82710030D01*
X189557439Y-82710920D01*
X189558105Y-82712007D01*
X189558106Y-82712009D01*
X189683794Y-82885004D01*
X189683796Y-82885006D01*
X189683798Y-82885009D01*
X189834990Y-83036201D01*
X189834993Y-83036203D01*
X189834996Y-83036206D01*
X190007991Y-83161894D01*
X190198517Y-83258972D01*
X190401878Y-83325047D01*
X190401879Y-83325047D01*
X190401884Y-83325049D01*
X190613084Y-83358500D01*
X190613087Y-83358500D01*
X190826913Y-83358500D01*
X190826916Y-83358500D01*
X191038116Y-83325049D01*
X191241483Y-83258972D01*
X191432009Y-83161894D01*
X191605004Y-83036206D01*
X191756206Y-82885004D01*
X191881894Y-82712009D01*
X191881899Y-82711997D01*
X191882561Y-82710920D01*
X191882924Y-82710591D01*
X191884804Y-82708004D01*
X191885347Y-82708398D01*
X191935204Y-82663283D01*
X192005244Y-82651670D01*
X192070445Y-82679766D01*
X192095021Y-82708130D01*
X192095196Y-82708004D01*
X192096668Y-82710030D01*
X192097439Y-82710920D01*
X192098105Y-82712007D01*
X192098106Y-82712009D01*
X192223794Y-82885004D01*
X192223796Y-82885006D01*
X192223798Y-82885009D01*
X192374990Y-83036201D01*
X192374993Y-83036203D01*
X192374996Y-83036206D01*
X192399561Y-83054053D01*
X192442915Y-83110274D01*
X192451500Y-83155989D01*
X192451500Y-101659153D01*
X192431498Y-101727274D01*
X192414595Y-101748248D01*
X192384987Y-101777855D01*
X192384985Y-101777858D01*
X192282428Y-101919015D01*
X192203213Y-102074482D01*
X192203210Y-102074488D01*
X192153752Y-102226708D01*
X192149295Y-102240426D01*
X192122000Y-102412759D01*
X192122000Y-102587241D01*
X192149295Y-102759574D01*
X192149296Y-102759577D01*
X192194157Y-102897649D01*
X192203212Y-102925516D01*
X192282426Y-103080981D01*
X192282428Y-103080984D01*
X192292762Y-103095207D01*
X192384983Y-103222139D01*
X192384985Y-103222141D01*
X192384987Y-103222144D01*
X192508355Y-103345512D01*
X192508358Y-103345514D01*
X192508361Y-103345517D01*
X192649519Y-103448074D01*
X192804984Y-103527288D01*
X192970926Y-103581205D01*
X193143259Y-103608500D01*
X193143262Y-103608500D01*
X193317738Y-103608500D01*
X193317741Y-103608500D01*
X193490074Y-103581205D01*
X193656016Y-103527288D01*
X193811481Y-103448074D01*
X193952639Y-103345517D01*
X194076017Y-103222139D01*
X194178574Y-103080981D01*
X194257788Y-102925516D01*
X194311705Y-102759574D01*
X194339000Y-102587241D01*
X194339000Y-102412759D01*
X194311705Y-102240426D01*
X194257788Y-102074484D01*
X194178574Y-101919019D01*
X194096144Y-101805563D01*
X194092564Y-101800636D01*
X194068705Y-101733768D01*
X194068500Y-101726575D01*
X194068500Y-83155989D01*
X194088502Y-83087868D01*
X194120438Y-83054054D01*
X194145004Y-83036206D01*
X194296206Y-82885004D01*
X194421894Y-82712009D01*
X194421899Y-82711997D01*
X194422561Y-82710920D01*
X194422924Y-82710591D01*
X194424804Y-82708004D01*
X194425347Y-82708398D01*
X194475204Y-82663283D01*
X194545244Y-82651670D01*
X194610445Y-82679766D01*
X194635021Y-82708130D01*
X194635196Y-82708004D01*
X194636668Y-82710030D01*
X194637439Y-82710920D01*
X194638105Y-82712007D01*
X194638106Y-82712009D01*
X194763794Y-82885004D01*
X194763796Y-82885006D01*
X194763798Y-82885009D01*
X194914990Y-83036201D01*
X194914993Y-83036203D01*
X194914996Y-83036206D01*
X195087991Y-83161894D01*
X195278517Y-83258972D01*
X195481878Y-83325047D01*
X195481879Y-83325047D01*
X195481884Y-83325049D01*
X195693084Y-83358500D01*
X195693087Y-83358500D01*
X195906913Y-83358500D01*
X195906916Y-83358500D01*
X196118116Y-83325049D01*
X196321483Y-83258972D01*
X196512009Y-83161894D01*
X196685004Y-83036206D01*
X196836206Y-82885004D01*
X196961894Y-82712009D01*
X196961899Y-82711997D01*
X196962561Y-82710920D01*
X196962924Y-82710591D01*
X196964804Y-82708004D01*
X196965347Y-82708398D01*
X197015204Y-82663283D01*
X197085244Y-82651670D01*
X197150445Y-82679766D01*
X197175021Y-82708130D01*
X197175196Y-82708004D01*
X197176668Y-82710030D01*
X197177439Y-82710920D01*
X197178105Y-82712007D01*
X197178106Y-82712009D01*
X197303794Y-82885004D01*
X197303796Y-82885006D01*
X197303798Y-82885009D01*
X197454990Y-83036201D01*
X197454993Y-83036203D01*
X197454996Y-83036206D01*
X197627991Y-83161894D01*
X197818517Y-83258972D01*
X198021878Y-83325047D01*
X198021879Y-83325047D01*
X198021884Y-83325049D01*
X198233084Y-83358500D01*
X198233087Y-83358500D01*
X198446913Y-83358500D01*
X198446916Y-83358500D01*
X198658116Y-83325049D01*
X198668478Y-83321681D01*
X198739446Y-83319653D01*
X198796513Y-83352419D01*
X199615161Y-84171067D01*
X199615167Y-84171072D01*
X199718925Y-84240401D01*
X199800447Y-84274168D01*
X199834215Y-84288155D01*
X199956606Y-84312500D01*
X199956607Y-84312500D01*
X200081394Y-84312500D01*
X205800336Y-84312500D01*
X205868457Y-84332502D01*
X205914950Y-84386158D01*
X205925054Y-84456432D01*
X205924800Y-84458107D01*
X205911500Y-84542084D01*
X205911500Y-84755916D01*
X205933226Y-84893087D01*
X205944952Y-84967121D01*
X205990374Y-85106916D01*
X206011028Y-85170483D01*
X206108106Y-85361009D01*
X206233794Y-85534004D01*
X206233796Y-85534006D01*
X206233798Y-85534009D01*
X206384990Y-85685201D01*
X206384993Y-85685203D01*
X206384996Y-85685206D01*
X206557991Y-85810894D01*
X206557996Y-85810896D01*
X206559088Y-85811566D01*
X206559418Y-85811931D01*
X206561996Y-85813804D01*
X206561602Y-85814345D01*
X206606721Y-85864213D01*
X206618328Y-85934255D01*
X206590226Y-85999453D01*
X206561870Y-86024023D01*
X206561996Y-86024196D01*
X206559982Y-86025658D01*
X206559088Y-86026434D01*
X206557987Y-86027108D01*
X206384993Y-86152796D01*
X206384990Y-86152798D01*
X206233798Y-86303990D01*
X206233796Y-86303993D01*
X206108108Y-86476987D01*
X206011029Y-86667515D01*
X206011026Y-86667521D01*
X205944952Y-86870878D01*
X205944951Y-86870883D01*
X205944951Y-86870884D01*
X205911500Y-87082084D01*
X205911500Y-87295916D01*
X205942570Y-87492084D01*
X205944952Y-87507121D01*
X205999342Y-87674517D01*
X206011028Y-87710483D01*
X206108106Y-87901009D01*
X206233794Y-88074004D01*
X206233796Y-88074006D01*
X206233798Y-88074009D01*
X206384990Y-88225201D01*
X206384993Y-88225203D01*
X206384996Y-88225206D01*
X206557991Y-88350894D01*
X206557996Y-88350896D01*
X206559088Y-88351566D01*
X206559418Y-88351931D01*
X206561996Y-88353804D01*
X206561602Y-88354345D01*
X206606721Y-88404213D01*
X206618328Y-88474255D01*
X206590226Y-88539453D01*
X206561870Y-88564023D01*
X206561996Y-88564196D01*
X206559982Y-88565658D01*
X206559088Y-88566434D01*
X206557987Y-88567108D01*
X206384993Y-88692796D01*
X206384990Y-88692798D01*
X206233798Y-88843990D01*
X206233794Y-88843996D01*
X206215946Y-88868561D01*
X206159726Y-88911915D01*
X206114011Y-88920500D01*
X204370367Y-88920500D01*
X204277659Y-88938941D01*
X204214169Y-88951570D01*
X204214167Y-88951570D01*
X204214161Y-88951572D01*
X204110128Y-88994665D01*
X204110127Y-88994666D01*
X204067031Y-89012517D01*
X204022133Y-89042517D01*
X203934612Y-89100996D01*
X203934606Y-89101001D01*
X203791999Y-89243608D01*
X203791994Y-89243615D01*
X203703516Y-89376031D01*
X203679161Y-89434831D01*
X203642572Y-89523163D01*
X203642570Y-89523168D01*
X203611500Y-89679367D01*
X203611500Y-101796079D01*
X203591498Y-101864200D01*
X203587437Y-101870139D01*
X203551925Y-101919017D01*
X203472711Y-102074482D01*
X203472708Y-102074488D01*
X203423250Y-102226708D01*
X203418793Y-102240426D01*
X203391498Y-102412759D01*
X203391498Y-102587241D01*
X203418793Y-102759574D01*
X203418794Y-102759577D01*
X203463655Y-102897649D01*
X203472710Y-102925516D01*
X203551924Y-103080981D01*
X203551926Y-103080984D01*
X203562260Y-103095207D01*
X203654481Y-103222139D01*
X203654483Y-103222141D01*
X203654485Y-103222144D01*
X203777853Y-103345512D01*
X203777856Y-103345514D01*
X203777859Y-103345517D01*
X203919017Y-103448074D01*
X204074482Y-103527288D01*
X204240424Y-103581205D01*
X204412757Y-103608500D01*
X204412760Y-103608500D01*
X204587236Y-103608500D01*
X204587239Y-103608500D01*
X204759572Y-103581205D01*
X204925514Y-103527288D01*
X205080979Y-103448074D01*
X205222137Y-103345517D01*
X205345515Y-103222139D01*
X205448072Y-103080981D01*
X205527286Y-102925516D01*
X205581203Y-102759574D01*
X205608498Y-102587241D01*
X205608498Y-102511759D01*
X209331500Y-102511759D01*
X209331500Y-102686241D01*
X209358795Y-102858574D01*
X209358796Y-102858577D01*
X209391163Y-102958196D01*
X209412712Y-103024516D01*
X209491926Y-103179981D01*
X209540622Y-103247006D01*
X209541855Y-103248702D01*
X209565713Y-103315569D01*
X209549633Y-103384721D01*
X209541857Y-103396822D01*
X209511925Y-103438021D01*
X209432713Y-103593482D01*
X209432710Y-103593488D01*
X209381791Y-103750205D01*
X209378795Y-103759426D01*
X209351500Y-103931759D01*
X209351500Y-104106241D01*
X209378795Y-104278574D01*
X209432712Y-104444516D01*
X209511926Y-104599981D01*
X209511928Y-104599984D01*
X209588651Y-104705584D01*
X209612510Y-104772452D01*
X209596429Y-104841603D01*
X209588652Y-104853705D01*
X209541927Y-104918016D01*
X209462713Y-105073482D01*
X209462710Y-105073488D01*
X209415069Y-105220116D01*
X209408795Y-105239426D01*
X209381500Y-105411759D01*
X209381500Y-105586241D01*
X209408795Y-105758574D01*
X209462712Y-105924516D01*
X209535212Y-106066804D01*
X209541928Y-106079984D01*
X209615916Y-106181820D01*
X209639775Y-106248688D01*
X209623694Y-106317839D01*
X209615917Y-106329941D01*
X209551927Y-106418016D01*
X209472713Y-106573482D01*
X209472710Y-106573488D01*
X209418796Y-106739422D01*
X209418795Y-106739426D01*
X209391500Y-106911759D01*
X209391500Y-107086241D01*
X209418795Y-107258574D01*
X209472712Y-107424516D01*
X209551926Y-107579981D01*
X209654483Y-107721139D01*
X209654485Y-107721141D01*
X209654487Y-107721144D01*
X209777855Y-107844512D01*
X209777858Y-107844514D01*
X209777861Y-107844517D01*
X209919019Y-107947074D01*
X210074484Y-108026288D01*
X210240426Y-108080205D01*
X210412759Y-108107500D01*
X210412762Y-108107500D01*
X210587238Y-108107500D01*
X210587241Y-108107500D01*
X210759574Y-108080205D01*
X210925516Y-108026288D01*
X211080981Y-107947074D01*
X211222139Y-107844517D01*
X211345517Y-107721139D01*
X211448074Y-107579981D01*
X211527288Y-107424516D01*
X211581205Y-107258574D01*
X211608500Y-107086241D01*
X211608500Y-106911759D01*
X211581205Y-106739426D01*
X211527288Y-106573484D01*
X211448074Y-106418019D01*
X211439193Y-106405796D01*
X211385985Y-106332561D01*
X211362127Y-106265693D01*
X211378207Y-106196542D01*
X211429121Y-106147062D01*
X211487921Y-106132500D01*
X215385393Y-106132500D01*
X215385394Y-106132500D01*
X215507785Y-106108155D01*
X215623075Y-106060400D01*
X215726833Y-105991071D01*
X219426405Y-102291497D01*
X219488717Y-102257473D01*
X219559532Y-102262537D01*
X219616368Y-102305084D01*
X219641179Y-102371604D01*
X219641500Y-102380593D01*
X219641500Y-102468916D01*
X219674660Y-102678278D01*
X219674952Y-102680121D01*
X219738458Y-102875574D01*
X219741028Y-102883483D01*
X219838106Y-103074009D01*
X219838108Y-103074012D01*
X219853504Y-103095203D01*
X219963794Y-103247004D01*
X219963796Y-103247006D01*
X219963798Y-103247009D01*
X220114990Y-103398201D01*
X220114993Y-103398203D01*
X220114996Y-103398206D01*
X220287991Y-103523894D01*
X220287996Y-103523896D01*
X220289088Y-103524566D01*
X220289418Y-103524931D01*
X220291996Y-103526804D01*
X220291602Y-103527345D01*
X220336721Y-103577213D01*
X220348328Y-103647255D01*
X220320226Y-103712453D01*
X220291870Y-103737023D01*
X220291996Y-103737196D01*
X220289982Y-103738658D01*
X220289088Y-103739434D01*
X220287987Y-103740108D01*
X220114993Y-103865796D01*
X220114990Y-103865798D01*
X219963798Y-104016990D01*
X219963796Y-104016993D01*
X219838108Y-104189987D01*
X219741029Y-104380515D01*
X219741026Y-104380521D01*
X219674952Y-104583878D01*
X219674951Y-104583883D01*
X219674951Y-104583884D01*
X219641500Y-104795084D01*
X219641500Y-105008916D01*
X219674951Y-105220116D01*
X219674952Y-105220121D01*
X219741026Y-105423478D01*
X219741028Y-105423483D01*
X219838106Y-105614009D01*
X219963794Y-105787004D01*
X219963796Y-105787006D01*
X219963798Y-105787009D01*
X220114990Y-105938201D01*
X220114993Y-105938203D01*
X220114996Y-105938206D01*
X220287991Y-106063894D01*
X220287996Y-106063896D01*
X220289088Y-106064566D01*
X220289418Y-106064931D01*
X220291996Y-106066804D01*
X220291602Y-106067345D01*
X220336721Y-106117213D01*
X220348328Y-106187255D01*
X220320226Y-106252453D01*
X220291870Y-106277023D01*
X220291996Y-106277196D01*
X220289982Y-106278658D01*
X220289088Y-106279434D01*
X220287987Y-106280108D01*
X220114993Y-106405796D01*
X220114990Y-106405798D01*
X219963798Y-106556990D01*
X219963796Y-106556993D01*
X219838108Y-106729987D01*
X219741029Y-106920515D01*
X219741026Y-106920521D01*
X219674952Y-107123878D01*
X219674951Y-107123883D01*
X219674951Y-107123884D01*
X219641500Y-107335084D01*
X219641500Y-107548916D01*
X219674951Y-107760116D01*
X219674952Y-107760121D01*
X219735695Y-107947071D01*
X219741028Y-107963483D01*
X219838106Y-108154009D01*
X219963794Y-108327004D01*
X219963796Y-108327006D01*
X219963798Y-108327009D01*
X220114990Y-108478201D01*
X220114993Y-108478203D01*
X220114996Y-108478206D01*
X220287991Y-108603894D01*
X220478517Y-108700972D01*
X220681878Y-108767047D01*
X220681879Y-108767047D01*
X220681884Y-108767049D01*
X220893084Y-108800500D01*
X220893087Y-108800500D01*
X221106913Y-108800500D01*
X221106916Y-108800500D01*
X221318116Y-108767049D01*
X221521483Y-108700972D01*
X221712009Y-108603894D01*
X221885004Y-108478206D01*
X222036206Y-108327004D01*
X222161894Y-108154009D01*
X222258972Y-107963483D01*
X222325049Y-107760116D01*
X222358500Y-107548916D01*
X222358500Y-107335084D01*
X222325049Y-107123884D01*
X222258972Y-106920517D01*
X222161894Y-106729991D01*
X222036206Y-106556996D01*
X222036203Y-106556993D01*
X222036201Y-106556990D01*
X221885009Y-106405798D01*
X221885006Y-106405796D01*
X221885004Y-106405794D01*
X221712009Y-106280106D01*
X221712007Y-106280105D01*
X221710920Y-106279439D01*
X221710591Y-106279075D01*
X221708004Y-106277196D01*
X221708398Y-106276652D01*
X221663283Y-106226796D01*
X221651670Y-106156756D01*
X221679766Y-106091555D01*
X221708130Y-106066978D01*
X221708004Y-106066804D01*
X221710030Y-106065331D01*
X221710920Y-106064561D01*
X221711997Y-106063899D01*
X221712009Y-106063894D01*
X221885004Y-105938206D01*
X222036206Y-105787004D01*
X222161894Y-105614009D01*
X222258972Y-105423483D01*
X222325049Y-105220116D01*
X222358500Y-105008916D01*
X222358500Y-104795084D01*
X222325049Y-104583884D01*
X222258972Y-104380517D01*
X222161894Y-104189991D01*
X222036206Y-104016996D01*
X222036203Y-104016993D01*
X222036201Y-104016990D01*
X221885009Y-103865798D01*
X221885006Y-103865796D01*
X221885004Y-103865794D01*
X221725909Y-103750205D01*
X221712012Y-103740108D01*
X221710920Y-103739439D01*
X221710591Y-103739075D01*
X221708004Y-103737196D01*
X221708398Y-103736652D01*
X221663283Y-103686796D01*
X221651670Y-103616756D01*
X221679766Y-103551555D01*
X221708130Y-103526978D01*
X221708004Y-103526804D01*
X221710030Y-103525331D01*
X221710920Y-103524561D01*
X221711997Y-103523899D01*
X221712009Y-103523894D01*
X221885004Y-103398206D01*
X222036206Y-103247004D01*
X222161894Y-103074009D01*
X222258972Y-102883483D01*
X222325049Y-102680116D01*
X222358500Y-102468916D01*
X222358500Y-102255084D01*
X222325049Y-102043884D01*
X222258972Y-101840517D01*
X222161894Y-101649991D01*
X222036206Y-101476996D01*
X222036203Y-101476993D01*
X222036201Y-101476990D01*
X221933229Y-101374018D01*
X221899203Y-101311706D01*
X221904268Y-101240891D01*
X221946815Y-101184055D01*
X221978284Y-101166871D01*
X222096204Y-101122889D01*
X222113628Y-101109846D01*
X222213261Y-101035261D01*
X222300887Y-100918207D01*
X222300887Y-100918206D01*
X222300889Y-100918204D01*
X222351782Y-100781755D01*
X222351988Y-100781204D01*
X222351990Y-100781196D01*
X222358499Y-100720649D01*
X222358500Y-100720632D01*
X222358500Y-98923367D01*
X222358499Y-98923350D01*
X222351990Y-98862803D01*
X222351988Y-98862795D01*
X222300889Y-98725797D01*
X222300887Y-98725792D01*
X222213261Y-98608738D01*
X222096207Y-98521112D01*
X222096202Y-98521110D01*
X221959204Y-98470011D01*
X221959196Y-98470009D01*
X221898649Y-98463500D01*
X221898638Y-98463500D01*
X220101362Y-98463500D01*
X220101350Y-98463500D01*
X220040803Y-98470009D01*
X220040795Y-98470011D01*
X219903797Y-98521110D01*
X219903792Y-98521112D01*
X219786738Y-98608738D01*
X219699112Y-98725792D01*
X219699110Y-98725797D01*
X219648011Y-98862795D01*
X219648009Y-98862803D01*
X219641500Y-98923350D01*
X219641500Y-100232406D01*
X219621498Y-100300527D01*
X219604595Y-100321501D01*
X215097501Y-104828595D01*
X215035189Y-104862621D01*
X215008406Y-104865500D01*
X211464117Y-104865500D01*
X211458796Y-104863937D01*
X211453362Y-104865040D01*
X211425100Y-104854043D01*
X211395996Y-104845498D01*
X211390991Y-104840772D01*
X211387197Y-104839296D01*
X211362197Y-104813583D01*
X211361364Y-104812437D01*
X211337491Y-104745575D01*
X211353556Y-104676420D01*
X211361336Y-104664309D01*
X211408074Y-104599981D01*
X211487288Y-104444516D01*
X211541205Y-104278574D01*
X211568500Y-104106241D01*
X211568500Y-103931759D01*
X211541205Y-103759426D01*
X211487288Y-103593484D01*
X211408074Y-103438019D01*
X211358142Y-103369294D01*
X211334286Y-103302430D01*
X211350366Y-103233278D01*
X211358145Y-103221174D01*
X211364621Y-103212261D01*
X211388074Y-103179981D01*
X211467288Y-103024516D01*
X211521205Y-102858574D01*
X211548500Y-102686241D01*
X211548500Y-102511759D01*
X211521205Y-102339426D01*
X211467288Y-102173484D01*
X211388074Y-102018019D01*
X211285517Y-101876861D01*
X211285514Y-101876858D01*
X211285512Y-101876855D01*
X211162144Y-101753487D01*
X211162141Y-101753485D01*
X211162139Y-101753483D01*
X211020981Y-101650926D01*
X210865516Y-101571712D01*
X210865513Y-101571711D01*
X210865511Y-101571710D01*
X210699577Y-101517796D01*
X210699574Y-101517795D01*
X210527241Y-101490500D01*
X210352759Y-101490500D01*
X210180426Y-101517795D01*
X210180423Y-101517795D01*
X210180422Y-101517796D01*
X210014488Y-101571710D01*
X210014482Y-101571713D01*
X209859015Y-101650928D01*
X209717858Y-101753485D01*
X209717855Y-101753487D01*
X209594487Y-101876855D01*
X209594485Y-101876858D01*
X209491928Y-102018015D01*
X209412713Y-102173482D01*
X209412710Y-102173488D01*
X209358796Y-102339422D01*
X209358795Y-102339426D01*
X209331500Y-102511759D01*
X205608498Y-102511759D01*
X205608498Y-102412759D01*
X205581203Y-102240426D01*
X205527286Y-102074484D01*
X205448072Y-101919019D01*
X205345515Y-101777861D01*
X205345512Y-101777858D01*
X205345510Y-101777855D01*
X205265405Y-101697750D01*
X205231379Y-101635438D01*
X205228500Y-101608655D01*
X205228500Y-90663500D01*
X205248502Y-90595379D01*
X205302158Y-90548886D01*
X205354500Y-90537500D01*
X206114011Y-90537500D01*
X206145806Y-90546836D01*
X206177931Y-90554917D01*
X206180130Y-90556914D01*
X206182132Y-90557502D01*
X206205933Y-90577324D01*
X206211317Y-90583067D01*
X206233794Y-90614004D01*
X206338202Y-90718412D01*
X206339597Y-90719900D01*
X206354716Y-90749846D01*
X206370796Y-90779293D01*
X206370645Y-90781396D01*
X206371595Y-90783277D01*
X206368125Y-90816624D01*
X206365731Y-90850108D01*
X206364466Y-90851796D01*
X206364249Y-90853892D01*
X206343291Y-90880083D01*
X206323184Y-90906944D01*
X206320723Y-90908287D01*
X206319892Y-90909327D01*
X206317095Y-90910268D01*
X206291708Y-90924131D01*
X206173797Y-90968110D01*
X206173792Y-90968112D01*
X206056738Y-91055738D01*
X205969112Y-91172792D01*
X205969110Y-91172797D01*
X205918011Y-91309795D01*
X205918009Y-91309803D01*
X205911500Y-91370350D01*
X205911500Y-93167649D01*
X205918009Y-93228196D01*
X205918011Y-93228204D01*
X205969110Y-93365202D01*
X205969112Y-93365207D01*
X206056738Y-93482261D01*
X206173792Y-93569887D01*
X206173794Y-93569888D01*
X206173796Y-93569889D01*
X206232875Y-93591924D01*
X206310795Y-93620988D01*
X206310803Y-93620990D01*
X206371350Y-93627499D01*
X206371355Y-93627499D01*
X206371362Y-93627500D01*
X206371368Y-93627500D01*
X208168632Y-93627500D01*
X208168638Y-93627500D01*
X208168645Y-93627499D01*
X208168649Y-93627499D01*
X208229196Y-93620990D01*
X208229199Y-93620989D01*
X208229201Y-93620989D01*
X208366204Y-93569889D01*
X208374066Y-93564004D01*
X208483261Y-93482261D01*
X208570887Y-93365207D01*
X208570887Y-93365206D01*
X208570889Y-93365204D01*
X208621989Y-93228201D01*
X208624970Y-93200478D01*
X208628499Y-93167649D01*
X208628500Y-93167632D01*
X208628500Y-91370367D01*
X208628499Y-91370350D01*
X208621990Y-91309803D01*
X208621988Y-91309795D01*
X208571788Y-91175206D01*
X208570889Y-91172796D01*
X208570888Y-91172794D01*
X208570887Y-91172792D01*
X208483261Y-91055738D01*
X208366207Y-90968112D01*
X208366203Y-90968110D01*
X208248291Y-90924131D01*
X208191455Y-90881585D01*
X208166645Y-90815064D01*
X208181737Y-90745690D01*
X208203226Y-90716983D01*
X208306206Y-90614004D01*
X208431894Y-90441009D01*
X208528972Y-90250483D01*
X208595049Y-90047116D01*
X208628500Y-89835916D01*
X208628500Y-89622084D01*
X208595049Y-89410884D01*
X208528972Y-89207517D01*
X208431894Y-89016991D01*
X208306206Y-88843996D01*
X208306203Y-88843993D01*
X208306201Y-88843990D01*
X208155009Y-88692798D01*
X208155006Y-88692796D01*
X208155004Y-88692794D01*
X208006938Y-88585218D01*
X207982012Y-88567108D01*
X207980920Y-88566439D01*
X207980591Y-88566075D01*
X207978004Y-88564196D01*
X207978398Y-88563652D01*
X207933283Y-88513796D01*
X207921670Y-88443756D01*
X207949766Y-88378555D01*
X207978130Y-88353978D01*
X207978004Y-88353804D01*
X207980030Y-88352331D01*
X207980920Y-88351561D01*
X207981997Y-88350899D01*
X207982009Y-88350894D01*
X208155004Y-88225206D01*
X208306206Y-88074004D01*
X208431894Y-87901009D01*
X208528972Y-87710483D01*
X208595049Y-87507116D01*
X208628500Y-87295916D01*
X208628500Y-87082084D01*
X208595049Y-86870884D01*
X208528972Y-86667517D01*
X208431894Y-86476991D01*
X208306206Y-86303996D01*
X208306203Y-86303993D01*
X208306201Y-86303990D01*
X208155009Y-86152798D01*
X208155006Y-86152796D01*
X208155004Y-86152794D01*
X207982009Y-86027106D01*
X207982007Y-86027105D01*
X207980920Y-86026439D01*
X207980591Y-86026075D01*
X207978004Y-86024196D01*
X207978398Y-86023652D01*
X207933283Y-85973796D01*
X207921670Y-85903756D01*
X207949766Y-85838555D01*
X207978130Y-85813978D01*
X207978004Y-85813804D01*
X207980030Y-85812331D01*
X207980920Y-85811561D01*
X207981997Y-85810899D01*
X207982009Y-85810894D01*
X208155004Y-85685206D01*
X208306206Y-85534004D01*
X208431894Y-85361009D01*
X208528972Y-85170483D01*
X208595049Y-84967116D01*
X208614552Y-84843977D01*
X209934500Y-84843977D01*
X209934500Y-99804022D01*
X209934501Y-99804037D01*
X209969422Y-99990841D01*
X209969424Y-99990848D01*
X210038076Y-100168058D01*
X210038081Y-100168069D01*
X210138128Y-100329650D01*
X210266161Y-100470095D01*
X210266166Y-100470100D01*
X210417831Y-100584633D01*
X210587960Y-100669347D01*
X210770758Y-100721357D01*
X210841723Y-100727933D01*
X210959995Y-100738893D01*
X210960000Y-100738893D01*
X210960005Y-100738893D01*
X211046019Y-100730922D01*
X211149242Y-100721357D01*
X211332040Y-100669347D01*
X211502169Y-100584633D01*
X211653834Y-100470100D01*
X211781872Y-100329649D01*
X211881922Y-100168063D01*
X211950577Y-99990844D01*
X211985500Y-99804027D01*
X211985500Y-99709000D01*
X211985500Y-99700715D01*
X211985500Y-93740262D01*
X212299500Y-93740262D01*
X212299500Y-94099737D01*
X212339748Y-94456952D01*
X212387062Y-94664246D01*
X212419738Y-94807408D01*
X212419740Y-94807414D01*
X212419739Y-94807414D01*
X212538457Y-95146690D01*
X212538468Y-95146717D01*
X212694431Y-95470577D01*
X212694436Y-95470586D01*
X212885685Y-95774956D01*
X213109814Y-96056006D01*
X213363993Y-96310185D01*
X213428326Y-96361489D01*
X213469114Y-96419600D01*
X213472009Y-96490538D01*
X213436094Y-96551780D01*
X213428326Y-96558511D01*
X213363993Y-96609814D01*
X213109814Y-96863993D01*
X212885685Y-97145043D01*
X212694436Y-97449413D01*
X212694431Y-97449422D01*
X212538468Y-97773282D01*
X212538457Y-97773309D01*
X212419739Y-98112585D01*
X212339748Y-98463047D01*
X212299500Y-98820262D01*
X212299500Y-99179737D01*
X212339748Y-99536952D01*
X212387062Y-99744246D01*
X212419738Y-99887408D01*
X212419740Y-99887414D01*
X212419739Y-99887414D01*
X212538457Y-100226690D01*
X212538468Y-100226717D01*
X212694431Y-100550577D01*
X212694436Y-100550586D01*
X212885685Y-100854956D01*
X213109814Y-101136006D01*
X213363993Y-101390185D01*
X213472847Y-101476993D01*
X213645044Y-101614315D01*
X213816796Y-101722234D01*
X213934319Y-101796079D01*
X213949418Y-101805566D01*
X214273292Y-101961536D01*
X214273308Y-101961541D01*
X214273309Y-101961542D01*
X214612585Y-102080260D01*
X214612588Y-102080260D01*
X214612592Y-102080262D01*
X214821799Y-102128012D01*
X214963047Y-102160251D01*
X214963048Y-102160251D01*
X214963052Y-102160252D01*
X215198662Y-102186798D01*
X215320262Y-102200500D01*
X215320264Y-102200500D01*
X215679738Y-102200500D01*
X215783650Y-102188791D01*
X216036948Y-102160252D01*
X216387408Y-102080262D01*
X216403927Y-102074482D01*
X216472233Y-102050580D01*
X216726708Y-101961536D01*
X217050582Y-101805566D01*
X217354956Y-101614315D01*
X217636003Y-101390188D01*
X217890188Y-101136003D01*
X218114315Y-100854956D01*
X218305566Y-100550582D01*
X218461536Y-100226708D01*
X218580262Y-99887408D01*
X218660252Y-99536948D01*
X218700500Y-99179736D01*
X218700500Y-98820264D01*
X218660252Y-98463052D01*
X218580262Y-98112592D01*
X218576528Y-98101922D01*
X218461542Y-97773309D01*
X218461541Y-97773308D01*
X218461536Y-97773292D01*
X218305566Y-97449418D01*
X218114315Y-97145044D01*
X217890188Y-96863997D01*
X217890185Y-96863993D01*
X217636006Y-96609814D01*
X217635999Y-96609808D01*
X217571674Y-96558511D01*
X217530886Y-96500401D01*
X217527989Y-96429463D01*
X217563905Y-96368221D01*
X217571674Y-96361489D01*
X217635999Y-96310191D01*
X217636006Y-96310185D01*
X217890185Y-96056006D01*
X217890188Y-96056003D01*
X218114315Y-95774956D01*
X218305566Y-95470582D01*
X218461536Y-95146708D01*
X218550580Y-94892233D01*
X218580260Y-94807414D01*
X218580260Y-94807413D01*
X218580262Y-94807408D01*
X218660252Y-94456948D01*
X218700500Y-94099736D01*
X218700500Y-93740264D01*
X218697113Y-93710207D01*
X218681677Y-93573204D01*
X218660252Y-93383052D01*
X218580262Y-93032592D01*
X218567850Y-92997121D01*
X218461542Y-92693309D01*
X218461541Y-92693308D01*
X218461536Y-92693292D01*
X218305566Y-92369418D01*
X218114315Y-92065044D01*
X217962236Y-91874342D01*
X217890185Y-91783993D01*
X217636006Y-91529814D01*
X217354956Y-91305685D01*
X217050586Y-91114436D01*
X217050577Y-91114431D01*
X216726717Y-90958468D01*
X216726712Y-90958466D01*
X216726708Y-90958464D01*
X216726702Y-90958461D01*
X216726690Y-90958457D01*
X216387414Y-90839739D01*
X216036952Y-90759748D01*
X215679738Y-90719500D01*
X215679736Y-90719500D01*
X215320264Y-90719500D01*
X215320262Y-90719500D01*
X214963047Y-90759748D01*
X214612585Y-90839739D01*
X214273309Y-90958457D01*
X214273282Y-90958468D01*
X213949422Y-91114431D01*
X213949413Y-91114436D01*
X213645043Y-91305685D01*
X213363993Y-91529814D01*
X213109814Y-91783993D01*
X212885685Y-92065043D01*
X212694436Y-92369413D01*
X212694431Y-92369422D01*
X212538468Y-92693282D01*
X212538457Y-92693309D01*
X212419739Y-93032585D01*
X212339748Y-93383047D01*
X212299500Y-93740262D01*
X211985500Y-93740262D01*
X211985500Y-84928438D01*
X211985500Y-84843973D01*
X211950577Y-84657156D01*
X211881922Y-84479937D01*
X211881045Y-84478521D01*
X211781871Y-84318349D01*
X211653838Y-84177904D01*
X211653836Y-84177903D01*
X211653834Y-84177900D01*
X211502169Y-84063367D01*
X211332040Y-83978653D01*
X211332035Y-83978651D01*
X211332031Y-83978650D01*
X211149238Y-83926642D01*
X210960005Y-83909107D01*
X210959995Y-83909107D01*
X210770763Y-83926642D01*
X210770759Y-83926642D01*
X210587968Y-83978650D01*
X210587960Y-83978653D01*
X210417829Y-84063368D01*
X210332886Y-84127515D01*
X210275215Y-84171067D01*
X210266161Y-84177904D01*
X210138128Y-84318349D01*
X210038081Y-84479930D01*
X210038076Y-84479941D01*
X209969424Y-84657151D01*
X209969422Y-84657158D01*
X209934501Y-84843962D01*
X209934500Y-84843977D01*
X208614552Y-84843977D01*
X208628500Y-84755916D01*
X208628500Y-84542084D01*
X208595049Y-84330884D01*
X208528972Y-84127517D01*
X208431894Y-83936991D01*
X208306206Y-83763996D01*
X208306203Y-83763993D01*
X208306201Y-83763990D01*
X208155009Y-83612798D01*
X208155006Y-83612796D01*
X208155004Y-83612794D01*
X207982009Y-83487106D01*
X207791483Y-83390028D01*
X207747009Y-83375577D01*
X207727144Y-83369123D01*
X207668539Y-83329049D01*
X207640902Y-83263652D01*
X207653009Y-83193695D01*
X207692017Y-83147356D01*
X207845004Y-83036206D01*
X207996206Y-82885004D01*
X208121894Y-82712009D01*
X208121899Y-82711997D01*
X208122561Y-82710920D01*
X208122924Y-82710591D01*
X208124804Y-82708004D01*
X208125347Y-82708398D01*
X208175204Y-82663283D01*
X208245244Y-82651670D01*
X208310445Y-82679766D01*
X208335021Y-82708130D01*
X208335196Y-82708004D01*
X208336668Y-82710030D01*
X208337439Y-82710920D01*
X208338105Y-82712007D01*
X208338106Y-82712009D01*
X208463794Y-82885004D01*
X208463796Y-82885006D01*
X208463798Y-82885009D01*
X208614990Y-83036201D01*
X208614993Y-83036203D01*
X208614996Y-83036206D01*
X208787991Y-83161894D01*
X208978517Y-83258972D01*
X209181878Y-83325047D01*
X209181879Y-83325047D01*
X209181884Y-83325049D01*
X209393084Y-83358500D01*
X209393087Y-83358500D01*
X209606913Y-83358500D01*
X209606916Y-83358500D01*
X209818116Y-83325049D01*
X210021483Y-83258972D01*
X210212009Y-83161894D01*
X210385004Y-83036206D01*
X210536206Y-82885004D01*
X210661894Y-82712009D01*
X210758972Y-82521483D01*
X210825049Y-82318116D01*
X210858500Y-82106916D01*
X210858500Y-81893084D01*
X210825049Y-81681884D01*
X210758972Y-81478517D01*
X210661894Y-81287991D01*
X210536206Y-81114996D01*
X210536203Y-81114993D01*
X210536201Y-81114990D01*
X210385009Y-80963798D01*
X210385006Y-80963796D01*
X210385004Y-80963794D01*
X210212009Y-80838106D01*
X210021483Y-80741028D01*
X210021480Y-80741027D01*
X210021478Y-80741026D01*
X209818120Y-80674952D01*
X209818123Y-80674952D01*
X209778801Y-80668724D01*
X209606916Y-80641500D01*
X209393084Y-80641500D01*
X209190856Y-80673530D01*
X209181878Y-80674952D01*
X208978521Y-80741026D01*
X208978515Y-80741029D01*
X208787987Y-80838108D01*
X208614993Y-80963796D01*
X208614990Y-80963798D01*
X208463798Y-81114990D01*
X208463796Y-81114993D01*
X208338108Y-81287987D01*
X208337434Y-81289088D01*
X208337068Y-81289418D01*
X208335196Y-81291996D01*
X208334654Y-81291602D01*
X208284787Y-81336721D01*
X208214745Y-81348328D01*
X208149547Y-81320226D01*
X208124976Y-81291870D01*
X208124804Y-81291996D01*
X208123341Y-81289982D01*
X208122566Y-81289088D01*
X208121896Y-81287996D01*
X208121894Y-81287991D01*
X207996206Y-81114996D01*
X207996203Y-81114993D01*
X207996201Y-81114990D01*
X207845009Y-80963798D01*
X207845006Y-80963796D01*
X207845004Y-80963794D01*
X207672009Y-80838106D01*
X207481483Y-80741028D01*
X207481480Y-80741027D01*
X207481478Y-80741026D01*
X207278120Y-80674952D01*
X207278123Y-80674952D01*
X207238801Y-80668724D01*
X207066916Y-80641500D01*
X206853084Y-80641500D01*
X206641884Y-80674951D01*
X206641882Y-80674951D01*
X206641879Y-80674952D01*
X206631510Y-80678321D01*
X206560543Y-80680345D01*
X206503485Y-80647581D01*
X205642835Y-79786931D01*
X205642833Y-79786929D01*
X205539075Y-79717600D01*
X205423785Y-79669845D01*
X205350086Y-79655185D01*
X205301396Y-79645500D01*
X205301394Y-79645500D01*
X197458606Y-79645500D01*
X197458600Y-79645500D01*
X197336217Y-79669844D01*
X197336209Y-79669846D01*
X197302447Y-79683830D01*
X197302447Y-79683831D01*
X197220925Y-79717599D01*
X197117171Y-79786925D01*
X197117169Y-79786926D01*
X196256513Y-80647582D01*
X196194201Y-80681607D01*
X196128481Y-80678319D01*
X196118116Y-80674951D01*
X195906916Y-80641500D01*
X195693084Y-80641500D01*
X195490856Y-80673530D01*
X195481878Y-80674952D01*
X195278521Y-80741026D01*
X195278515Y-80741029D01*
X195087987Y-80838108D01*
X194914993Y-80963796D01*
X194914990Y-80963798D01*
X194763798Y-81114990D01*
X194763796Y-81114993D01*
X194638108Y-81287987D01*
X194637434Y-81289088D01*
X194637068Y-81289418D01*
X194635196Y-81291996D01*
X194634654Y-81291602D01*
X194584787Y-81336721D01*
X194514745Y-81348328D01*
X194449547Y-81320226D01*
X194424976Y-81291870D01*
X194424804Y-81291996D01*
X194423341Y-81289982D01*
X194422566Y-81289088D01*
X194421896Y-81287996D01*
X194421894Y-81287991D01*
X194296206Y-81114996D01*
X194296203Y-81114993D01*
X194296201Y-81114990D01*
X194145009Y-80963798D01*
X194145006Y-80963796D01*
X194145004Y-80963794D01*
X193972009Y-80838106D01*
X193781483Y-80741028D01*
X193781480Y-80741027D01*
X193781478Y-80741026D01*
X193578120Y-80674952D01*
X193578123Y-80674952D01*
X193538801Y-80668724D01*
X193366916Y-80641500D01*
X193153084Y-80641500D01*
X192950856Y-80673530D01*
X192941878Y-80674952D01*
X192738521Y-80741026D01*
X192738515Y-80741029D01*
X192547987Y-80838108D01*
X192374993Y-80963796D01*
X192374990Y-80963798D01*
X192223798Y-81114990D01*
X192223796Y-81114993D01*
X192098108Y-81287987D01*
X192097434Y-81289088D01*
X192097068Y-81289418D01*
X192095196Y-81291996D01*
X192094654Y-81291602D01*
X192044787Y-81336721D01*
X191974745Y-81348328D01*
X191909547Y-81320226D01*
X191884976Y-81291870D01*
X191884804Y-81291996D01*
X191883341Y-81289982D01*
X191882566Y-81289088D01*
X191881896Y-81287996D01*
X191881894Y-81287991D01*
X191756206Y-81114996D01*
X191756203Y-81114993D01*
X191756201Y-81114990D01*
X191605009Y-80963798D01*
X191605006Y-80963796D01*
X191605004Y-80963794D01*
X191432009Y-80838106D01*
X191241483Y-80741028D01*
X191241480Y-80741027D01*
X191241478Y-80741026D01*
X191038120Y-80674952D01*
X191038123Y-80674952D01*
X190998801Y-80668724D01*
X190826916Y-80641500D01*
X190613084Y-80641500D01*
X190410856Y-80673530D01*
X190401878Y-80674952D01*
X190198521Y-80741026D01*
X190198515Y-80741029D01*
X190007987Y-80838108D01*
X189834993Y-80963796D01*
X189834990Y-80963798D01*
X189683798Y-81114990D01*
X189683796Y-81114993D01*
X189558108Y-81287987D01*
X189557434Y-81289088D01*
X189557068Y-81289418D01*
X189555196Y-81291996D01*
X189554654Y-81291602D01*
X189504787Y-81336721D01*
X189434745Y-81348328D01*
X189369547Y-81320226D01*
X189344976Y-81291870D01*
X189344804Y-81291996D01*
X189343341Y-81289982D01*
X189342566Y-81289088D01*
X189341896Y-81287996D01*
X189341894Y-81287991D01*
X189216206Y-81114996D01*
X189216203Y-81114993D01*
X189216201Y-81114990D01*
X189065009Y-80963798D01*
X189065006Y-80963796D01*
X189065004Y-80963794D01*
X188892009Y-80838106D01*
X188701483Y-80741028D01*
X188701480Y-80741027D01*
X188701478Y-80741026D01*
X188498120Y-80674952D01*
X188498123Y-80674952D01*
X188458801Y-80668724D01*
X188286916Y-80641500D01*
X188073084Y-80641500D01*
X187870856Y-80673530D01*
X187861878Y-80674952D01*
X187658521Y-80741026D01*
X187658515Y-80741029D01*
X187467987Y-80838108D01*
X187294993Y-80963796D01*
X187294990Y-80963798D01*
X187143798Y-81114990D01*
X187143796Y-81114993D01*
X187018108Y-81287987D01*
X187017434Y-81289088D01*
X187017068Y-81289418D01*
X187015196Y-81291996D01*
X187014654Y-81291602D01*
X186964787Y-81336721D01*
X186894745Y-81348328D01*
X186829547Y-81320226D01*
X186804976Y-81291870D01*
X186804804Y-81291996D01*
X186803341Y-81289982D01*
X186802566Y-81289088D01*
X186801896Y-81287996D01*
X186801894Y-81287991D01*
X186676206Y-81114996D01*
X186676203Y-81114993D01*
X186676201Y-81114990D01*
X186525009Y-80963798D01*
X186525006Y-80963796D01*
X186525004Y-80963794D01*
X186352009Y-80838106D01*
X186161483Y-80741028D01*
X186161480Y-80741027D01*
X186161478Y-80741026D01*
X185958120Y-80674952D01*
X185958123Y-80674952D01*
X185918801Y-80668724D01*
X185746916Y-80641500D01*
X185533084Y-80641500D01*
X185330856Y-80673530D01*
X185321878Y-80674952D01*
X185118521Y-80741026D01*
X185118515Y-80741029D01*
X184927987Y-80838108D01*
X184754993Y-80963796D01*
X184754990Y-80963798D01*
X184603798Y-81114990D01*
X184603796Y-81114993D01*
X184478108Y-81287987D01*
X184477434Y-81289088D01*
X184477068Y-81289418D01*
X184475196Y-81291996D01*
X184474654Y-81291602D01*
X184424787Y-81336721D01*
X184354745Y-81348328D01*
X184289547Y-81320226D01*
X184264976Y-81291870D01*
X184264804Y-81291996D01*
X184263341Y-81289982D01*
X184262566Y-81289088D01*
X184261896Y-81287996D01*
X184261894Y-81287991D01*
X184136206Y-81114996D01*
X184136203Y-81114993D01*
X184136201Y-81114990D01*
X183985009Y-80963798D01*
X183985006Y-80963796D01*
X183985004Y-80963794D01*
X183812009Y-80838106D01*
X183621483Y-80741028D01*
X183621480Y-80741027D01*
X183621478Y-80741026D01*
X183418120Y-80674952D01*
X183418123Y-80674952D01*
X183378801Y-80668724D01*
X183206916Y-80641500D01*
X182993084Y-80641500D01*
X182790856Y-80673530D01*
X182781878Y-80674952D01*
X182578521Y-80741026D01*
X182578515Y-80741029D01*
X182387987Y-80838108D01*
X182214993Y-80963796D01*
X182214990Y-80963798D01*
X182063798Y-81114990D01*
X182063796Y-81114993D01*
X181938108Y-81287987D01*
X181937434Y-81289088D01*
X181937068Y-81289418D01*
X181935196Y-81291996D01*
X181934654Y-81291602D01*
X181884787Y-81336721D01*
X181814745Y-81348328D01*
X181749547Y-81320226D01*
X181724976Y-81291870D01*
X181724804Y-81291996D01*
X181723341Y-81289982D01*
X181722566Y-81289088D01*
X181721896Y-81287996D01*
X181721894Y-81287991D01*
X181596206Y-81114996D01*
X181596203Y-81114993D01*
X181596201Y-81114990D01*
X181445009Y-80963798D01*
X181445006Y-80963796D01*
X181445004Y-80963794D01*
X181272009Y-80838106D01*
X181081483Y-80741028D01*
X181081480Y-80741027D01*
X181081478Y-80741026D01*
X180878120Y-80674952D01*
X180878123Y-80674952D01*
X180838801Y-80668724D01*
X180666916Y-80641500D01*
X180453084Y-80641500D01*
X180250856Y-80673530D01*
X180241878Y-80674952D01*
X180038521Y-80741026D01*
X180038515Y-80741029D01*
X179847987Y-80838108D01*
X179674993Y-80963796D01*
X179674990Y-80963798D01*
X179523798Y-81114990D01*
X179523796Y-81114993D01*
X179398108Y-81287987D01*
X179397434Y-81289088D01*
X179397068Y-81289418D01*
X179395196Y-81291996D01*
X179394654Y-81291602D01*
X179344787Y-81336721D01*
X179274745Y-81348328D01*
X179209547Y-81320226D01*
X179184976Y-81291870D01*
X179184804Y-81291996D01*
X179183341Y-81289982D01*
X179182566Y-81289088D01*
X179181896Y-81287996D01*
X179181894Y-81287991D01*
X179056206Y-81114996D01*
X179056203Y-81114993D01*
X179056201Y-81114990D01*
X178905009Y-80963798D01*
X178905006Y-80963796D01*
X178905004Y-80963794D01*
X178732009Y-80838106D01*
X178541483Y-80741028D01*
X178541480Y-80741027D01*
X178541478Y-80741026D01*
X178338120Y-80674952D01*
X178338123Y-80674952D01*
X178298801Y-80668724D01*
X178126916Y-80641500D01*
X177913084Y-80641500D01*
X177710856Y-80673530D01*
X177701878Y-80674952D01*
X177498521Y-80741026D01*
X177498515Y-80741029D01*
X177307987Y-80838108D01*
X177134993Y-80963796D01*
X177134990Y-80963798D01*
X176983798Y-81114990D01*
X176983796Y-81114993D01*
X176858108Y-81287987D01*
X176857434Y-81289088D01*
X176857068Y-81289418D01*
X176855196Y-81291996D01*
X176854654Y-81291602D01*
X176804787Y-81336721D01*
X176734745Y-81348328D01*
X176669547Y-81320226D01*
X176644976Y-81291870D01*
X176644804Y-81291996D01*
X176643341Y-81289982D01*
X176642566Y-81289088D01*
X176641896Y-81287996D01*
X176641894Y-81287991D01*
X176516206Y-81114996D01*
X176516203Y-81114993D01*
X176516201Y-81114990D01*
X176365009Y-80963798D01*
X176365006Y-80963796D01*
X176365004Y-80963794D01*
X176192009Y-80838106D01*
X176001483Y-80741028D01*
X176001480Y-80741027D01*
X176001478Y-80741026D01*
X175798120Y-80674952D01*
X175798123Y-80674952D01*
X175758801Y-80668724D01*
X175586916Y-80641500D01*
X175373084Y-80641500D01*
X175170856Y-80673530D01*
X175161878Y-80674952D01*
X174958521Y-80741026D01*
X174958515Y-80741029D01*
X174767987Y-80838108D01*
X174594993Y-80963796D01*
X174594990Y-80963798D01*
X174443798Y-81114990D01*
X174443796Y-81114993D01*
X174318108Y-81287987D01*
X174317434Y-81289088D01*
X174317068Y-81289418D01*
X174315196Y-81291996D01*
X174314654Y-81291602D01*
X174264787Y-81336721D01*
X174194745Y-81348328D01*
X174129547Y-81320226D01*
X174104976Y-81291870D01*
X174104804Y-81291996D01*
X174103341Y-81289982D01*
X174102566Y-81289088D01*
X174101896Y-81287996D01*
X174101894Y-81287991D01*
X173976206Y-81114996D01*
X173976203Y-81114993D01*
X173976201Y-81114990D01*
X173825009Y-80963798D01*
X173825006Y-80963796D01*
X173825004Y-80963794D01*
X173652009Y-80838106D01*
X173461483Y-80741028D01*
X173461480Y-80741027D01*
X173461478Y-80741026D01*
X173258120Y-80674952D01*
X173258123Y-80674952D01*
X173218801Y-80668724D01*
X173046916Y-80641500D01*
X172833084Y-80641500D01*
X172630856Y-80673530D01*
X172621878Y-80674952D01*
X172418521Y-80741026D01*
X172418515Y-80741029D01*
X172227987Y-80838108D01*
X172054995Y-80963794D01*
X171952018Y-81066771D01*
X171889706Y-81100796D01*
X171818890Y-81095730D01*
X171762054Y-81053184D01*
X171744871Y-81021715D01*
X171700889Y-80903796D01*
X171700886Y-80903792D01*
X171700886Y-80903791D01*
X171613261Y-80786738D01*
X171496207Y-80699112D01*
X171496202Y-80699110D01*
X171359204Y-80648011D01*
X171359196Y-80648009D01*
X171298649Y-80641500D01*
X171298638Y-80641500D01*
X169501362Y-80641500D01*
X169501350Y-80641500D01*
X169440803Y-80648009D01*
X169440795Y-80648011D01*
X169303797Y-80699110D01*
X169303792Y-80699112D01*
X169186738Y-80786738D01*
X169099112Y-80903792D01*
X169099110Y-80903797D01*
X169048011Y-81040795D01*
X169048009Y-81040803D01*
X169041500Y-81101350D01*
X153897037Y-81101350D01*
X153900887Y-81096207D01*
X153900887Y-81096206D01*
X153900889Y-81096204D01*
X153951989Y-80959201D01*
X153954782Y-80933229D01*
X153958499Y-80898649D01*
X153958500Y-80898632D01*
X153958500Y-79101367D01*
X153958499Y-79101350D01*
X153951990Y-79040803D01*
X153951988Y-79040795D01*
X153900889Y-78903797D01*
X153900887Y-78903792D01*
X153813261Y-78786738D01*
X153696207Y-78699112D01*
X153696202Y-78699110D01*
X153559204Y-78648011D01*
X153559196Y-78648009D01*
X153498649Y-78641500D01*
X153498638Y-78641500D01*
X151701362Y-78641500D01*
X151701350Y-78641500D01*
X151640803Y-78648009D01*
X151640795Y-78648011D01*
X151503797Y-78699110D01*
X151503792Y-78699112D01*
X151386738Y-78786738D01*
X151299112Y-78903792D01*
X151299110Y-78903797D01*
X151255131Y-79021708D01*
X151212584Y-79078544D01*
X151146064Y-79103354D01*
X151076690Y-79088262D01*
X151047981Y-79066770D01*
X150945009Y-78963798D01*
X150945006Y-78963796D01*
X150945004Y-78963794D01*
X150772009Y-78838106D01*
X150581483Y-78741028D01*
X150581480Y-78741027D01*
X150581478Y-78741026D01*
X150378120Y-78674952D01*
X150378123Y-78674952D01*
X150338801Y-78668724D01*
X150166916Y-78641500D01*
X149953084Y-78641500D01*
X149741884Y-78674951D01*
X149741878Y-78674952D01*
X149538521Y-78741026D01*
X149538515Y-78741029D01*
X149347987Y-78838108D01*
X149174993Y-78963796D01*
X149174990Y-78963798D01*
X149023798Y-79114990D01*
X149023796Y-79114993D01*
X148898108Y-79287987D01*
X148897434Y-79289088D01*
X148897068Y-79289418D01*
X148895196Y-79291996D01*
X148894654Y-79291602D01*
X148844787Y-79336721D01*
X148774745Y-79348328D01*
X148709547Y-79320226D01*
X148684976Y-79291870D01*
X148684804Y-79291996D01*
X148683341Y-79289982D01*
X148682566Y-79289088D01*
X148681896Y-79287996D01*
X148681894Y-79287991D01*
X148556206Y-79114996D01*
X148556203Y-79114993D01*
X148556201Y-79114990D01*
X148405009Y-78963798D01*
X148405006Y-78963796D01*
X148405004Y-78963794D01*
X148232009Y-78838106D01*
X148041483Y-78741028D01*
X148041480Y-78741027D01*
X148041478Y-78741026D01*
X147838120Y-78674952D01*
X147838123Y-78674952D01*
X147798801Y-78668724D01*
X147626916Y-78641500D01*
X147413084Y-78641500D01*
X147201884Y-78674951D01*
X147201878Y-78674952D01*
X146998521Y-78741026D01*
X146998515Y-78741029D01*
X146807987Y-78838108D01*
X146634993Y-78963796D01*
X146634990Y-78963798D01*
X146483798Y-79114990D01*
X146483796Y-79114993D01*
X146358108Y-79287987D01*
X146357434Y-79289088D01*
X146357068Y-79289418D01*
X146355196Y-79291996D01*
X146354654Y-79291602D01*
X146304787Y-79336721D01*
X146234745Y-79348328D01*
X146169547Y-79320226D01*
X146144976Y-79291870D01*
X146144804Y-79291996D01*
X146143341Y-79289982D01*
X146142566Y-79289088D01*
X146141896Y-79287996D01*
X146141894Y-79287991D01*
X146016206Y-79114996D01*
X146016203Y-79114993D01*
X146016201Y-79114990D01*
X145865009Y-78963798D01*
X145865006Y-78963796D01*
X145865004Y-78963794D01*
X145692009Y-78838106D01*
X145501483Y-78741028D01*
X145501480Y-78741027D01*
X145501478Y-78741026D01*
X145298120Y-78674952D01*
X145298123Y-78674952D01*
X145258801Y-78668724D01*
X145086916Y-78641500D01*
X144873084Y-78641500D01*
X144661884Y-78674951D01*
X144661878Y-78674952D01*
X144458521Y-78741026D01*
X144458515Y-78741029D01*
X144267987Y-78838108D01*
X144094993Y-78963796D01*
X144094990Y-78963798D01*
X143943798Y-79114990D01*
X143943796Y-79114993D01*
X143818108Y-79287987D01*
X143817434Y-79289088D01*
X143817068Y-79289418D01*
X143815196Y-79291996D01*
X143814654Y-79291602D01*
X143764787Y-79336721D01*
X143694745Y-79348328D01*
X143629547Y-79320226D01*
X143604976Y-79291870D01*
X143604804Y-79291996D01*
X143603341Y-79289982D01*
X143602566Y-79289088D01*
X143601896Y-79287996D01*
X143601894Y-79287991D01*
X143476206Y-79114996D01*
X143476203Y-79114993D01*
X143476201Y-79114990D01*
X143325009Y-78963798D01*
X143325006Y-78963796D01*
X143325004Y-78963794D01*
X143152009Y-78838106D01*
X142961483Y-78741028D01*
X142961480Y-78741027D01*
X142961478Y-78741026D01*
X142758120Y-78674952D01*
X142758123Y-78674952D01*
X142718801Y-78668724D01*
X142546916Y-78641500D01*
X142333084Y-78641500D01*
X142121884Y-78674951D01*
X142121878Y-78674952D01*
X141918521Y-78741026D01*
X141918515Y-78741029D01*
X141727987Y-78838108D01*
X141554993Y-78963796D01*
X141554990Y-78963798D01*
X141403798Y-79114990D01*
X141403796Y-79114993D01*
X141278108Y-79287987D01*
X141277434Y-79289088D01*
X141277068Y-79289418D01*
X141275196Y-79291996D01*
X141274654Y-79291602D01*
X141224787Y-79336721D01*
X141154745Y-79348328D01*
X141089547Y-79320226D01*
X141064976Y-79291870D01*
X141064804Y-79291996D01*
X141063341Y-79289982D01*
X141062566Y-79289088D01*
X141061896Y-79287996D01*
X141061894Y-79287991D01*
X140936206Y-79114996D01*
X140936203Y-79114993D01*
X140936201Y-79114990D01*
X140785009Y-78963798D01*
X140785006Y-78963796D01*
X140785004Y-78963794D01*
X140612009Y-78838106D01*
X140421483Y-78741028D01*
X140421480Y-78741027D01*
X140421478Y-78741026D01*
X140218120Y-78674952D01*
X140218123Y-78674952D01*
X140178801Y-78668724D01*
X140006916Y-78641500D01*
X139793084Y-78641500D01*
X139581884Y-78674951D01*
X139581878Y-78674952D01*
X139378521Y-78741026D01*
X139378515Y-78741029D01*
X139187987Y-78838108D01*
X139014993Y-78963796D01*
X139014990Y-78963798D01*
X138863798Y-79114990D01*
X138863796Y-79114993D01*
X138738108Y-79287987D01*
X138737434Y-79289088D01*
X138737068Y-79289418D01*
X138735196Y-79291996D01*
X138734654Y-79291602D01*
X138684787Y-79336721D01*
X138614745Y-79348328D01*
X138549547Y-79320226D01*
X138524976Y-79291870D01*
X138524804Y-79291996D01*
X138523341Y-79289982D01*
X138522566Y-79289088D01*
X138521896Y-79287996D01*
X138521894Y-79287991D01*
X138396206Y-79114996D01*
X138396203Y-79114993D01*
X138396201Y-79114990D01*
X138245009Y-78963798D01*
X138245006Y-78963796D01*
X138245004Y-78963794D01*
X138072009Y-78838106D01*
X137881483Y-78741028D01*
X137881480Y-78741027D01*
X137881478Y-78741026D01*
X137678120Y-78674952D01*
X137678123Y-78674952D01*
X137638801Y-78668724D01*
X137466916Y-78641500D01*
X137253084Y-78641500D01*
X137041884Y-78674951D01*
X137041878Y-78674952D01*
X136838521Y-78741026D01*
X136838515Y-78741029D01*
X136647987Y-78838108D01*
X136474993Y-78963796D01*
X136474990Y-78963798D01*
X136323798Y-79114990D01*
X136323796Y-79114993D01*
X136198108Y-79287987D01*
X136197434Y-79289088D01*
X136197068Y-79289418D01*
X136195196Y-79291996D01*
X136194654Y-79291602D01*
X136144787Y-79336721D01*
X136074745Y-79348328D01*
X136009547Y-79320226D01*
X135984976Y-79291870D01*
X135984804Y-79291996D01*
X135983341Y-79289982D01*
X135982566Y-79289088D01*
X135981896Y-79287996D01*
X135981894Y-79287991D01*
X135856206Y-79114996D01*
X135856203Y-79114993D01*
X135856201Y-79114990D01*
X135705009Y-78963798D01*
X135705006Y-78963796D01*
X135705004Y-78963794D01*
X135532009Y-78838106D01*
X135341483Y-78741028D01*
X135341480Y-78741027D01*
X135341478Y-78741026D01*
X135138120Y-78674952D01*
X135138123Y-78674952D01*
X135098801Y-78668724D01*
X134926916Y-78641500D01*
X134713084Y-78641500D01*
X134501884Y-78674951D01*
X134501878Y-78674952D01*
X134298521Y-78741026D01*
X134298515Y-78741029D01*
X134107987Y-78838108D01*
X133934993Y-78963796D01*
X133934990Y-78963798D01*
X133783798Y-79114990D01*
X133783796Y-79114993D01*
X133658108Y-79287987D01*
X133657434Y-79289088D01*
X133657068Y-79289418D01*
X133655196Y-79291996D01*
X133654654Y-79291602D01*
X133604787Y-79336721D01*
X133534745Y-79348328D01*
X133469547Y-79320226D01*
X133444976Y-79291870D01*
X133444804Y-79291996D01*
X133443341Y-79289982D01*
X133442566Y-79289088D01*
X133441896Y-79287996D01*
X133441894Y-79287991D01*
X133316206Y-79114996D01*
X133316203Y-79114993D01*
X133316201Y-79114990D01*
X133165009Y-78963798D01*
X133165006Y-78963796D01*
X133165004Y-78963794D01*
X132992009Y-78838106D01*
X132801483Y-78741028D01*
X132801480Y-78741027D01*
X132801478Y-78741026D01*
X132598120Y-78674952D01*
X132598123Y-78674952D01*
X132558801Y-78668724D01*
X132386916Y-78641500D01*
X132173084Y-78641500D01*
X131961884Y-78674951D01*
X131961878Y-78674952D01*
X131758521Y-78741026D01*
X131758515Y-78741029D01*
X131567987Y-78838108D01*
X131394993Y-78963796D01*
X131394990Y-78963798D01*
X131243798Y-79114990D01*
X131243796Y-79114993D01*
X131118108Y-79287987D01*
X131117434Y-79289088D01*
X131117068Y-79289418D01*
X131115196Y-79291996D01*
X131114654Y-79291602D01*
X131064787Y-79336721D01*
X130994745Y-79348328D01*
X130929547Y-79320226D01*
X130904976Y-79291870D01*
X130904804Y-79291996D01*
X130903341Y-79289982D01*
X130902566Y-79289088D01*
X130901896Y-79287996D01*
X130901894Y-79287991D01*
X130776206Y-79114996D01*
X130776203Y-79114993D01*
X130776201Y-79114990D01*
X130625009Y-78963798D01*
X130625006Y-78963796D01*
X130625004Y-78963794D01*
X130452009Y-78838106D01*
X130261483Y-78741028D01*
X130261480Y-78741027D01*
X130261478Y-78741026D01*
X130058120Y-78674952D01*
X130058123Y-78674952D01*
X130018801Y-78668724D01*
X129846916Y-78641500D01*
X129633084Y-78641500D01*
X129421884Y-78674951D01*
X129421878Y-78674952D01*
X129218521Y-78741026D01*
X129218515Y-78741029D01*
X129027987Y-78838108D01*
X128854993Y-78963796D01*
X128854990Y-78963798D01*
X128703798Y-79114990D01*
X128703796Y-79114993D01*
X128578108Y-79287987D01*
X128577434Y-79289088D01*
X128577068Y-79289418D01*
X128575196Y-79291996D01*
X128574654Y-79291602D01*
X128524787Y-79336721D01*
X128454745Y-79348328D01*
X128389547Y-79320226D01*
X128364976Y-79291870D01*
X128364804Y-79291996D01*
X128363341Y-79289982D01*
X128362566Y-79289088D01*
X128361896Y-79287996D01*
X128361894Y-79287991D01*
X128236206Y-79114996D01*
X128236203Y-79114993D01*
X128236201Y-79114990D01*
X128085009Y-78963798D01*
X128085006Y-78963796D01*
X128085004Y-78963794D01*
X127912009Y-78838106D01*
X127721483Y-78741028D01*
X127721480Y-78741027D01*
X127721478Y-78741026D01*
X127518120Y-78674952D01*
X127518123Y-78674952D01*
X127478801Y-78668724D01*
X127306916Y-78641500D01*
X127093084Y-78641500D01*
X126881884Y-78674951D01*
X126881878Y-78674952D01*
X126678521Y-78741026D01*
X126678515Y-78741029D01*
X126487987Y-78838108D01*
X126314993Y-78963796D01*
X126314990Y-78963798D01*
X126163798Y-79114990D01*
X126163796Y-79114993D01*
X126038108Y-79287987D01*
X126037434Y-79289088D01*
X126037068Y-79289418D01*
X126035196Y-79291996D01*
X126034654Y-79291602D01*
X125984787Y-79336721D01*
X125914745Y-79348328D01*
X125849547Y-79320226D01*
X125824976Y-79291870D01*
X125824804Y-79291996D01*
X125823341Y-79289982D01*
X125822566Y-79289088D01*
X125821896Y-79287996D01*
X125821894Y-79287991D01*
X125696206Y-79114996D01*
X125696203Y-79114993D01*
X125696201Y-79114990D01*
X125545009Y-78963798D01*
X125545006Y-78963796D01*
X125545004Y-78963794D01*
X125372009Y-78838106D01*
X125181483Y-78741028D01*
X125181480Y-78741027D01*
X125181478Y-78741026D01*
X124978120Y-78674952D01*
X124978123Y-78674952D01*
X124938801Y-78668724D01*
X124766916Y-78641500D01*
X124553084Y-78641500D01*
X124341884Y-78674951D01*
X124341878Y-78674952D01*
X124138521Y-78741026D01*
X124138515Y-78741029D01*
X123947987Y-78838108D01*
X123774993Y-78963796D01*
X123774990Y-78963798D01*
X123623798Y-79114990D01*
X123623796Y-79114993D01*
X123498108Y-79287987D01*
X123497434Y-79289088D01*
X123497068Y-79289418D01*
X123495196Y-79291996D01*
X123494654Y-79291602D01*
X123444787Y-79336721D01*
X123374745Y-79348328D01*
X123309547Y-79320226D01*
X123284976Y-79291870D01*
X123284804Y-79291996D01*
X123283341Y-79289982D01*
X123282566Y-79289088D01*
X123281896Y-79287996D01*
X123281894Y-79287991D01*
X123156206Y-79114996D01*
X123156203Y-79114993D01*
X123156201Y-79114990D01*
X123005009Y-78963798D01*
X123005006Y-78963796D01*
X123005004Y-78963794D01*
X122832009Y-78838106D01*
X122641483Y-78741028D01*
X122641480Y-78741027D01*
X122641478Y-78741026D01*
X122438120Y-78674952D01*
X122438123Y-78674952D01*
X122398801Y-78668724D01*
X122226916Y-78641500D01*
X122013084Y-78641500D01*
X121801884Y-78674951D01*
X121801878Y-78674952D01*
X121598521Y-78741026D01*
X121598515Y-78741029D01*
X121407987Y-78838108D01*
X121234993Y-78963796D01*
X121234990Y-78963798D01*
X121083798Y-79114990D01*
X121083796Y-79114993D01*
X120958108Y-79287987D01*
X120957434Y-79289088D01*
X120957068Y-79289418D01*
X120955196Y-79291996D01*
X120954654Y-79291602D01*
X120904787Y-79336721D01*
X120834745Y-79348328D01*
X120769547Y-79320226D01*
X120744976Y-79291870D01*
X120744804Y-79291996D01*
X120743341Y-79289982D01*
X120742566Y-79289088D01*
X120741896Y-79287996D01*
X120741894Y-79287991D01*
X120616206Y-79114996D01*
X120616203Y-79114993D01*
X120616201Y-79114990D01*
X120465009Y-78963798D01*
X120465006Y-78963796D01*
X120465004Y-78963794D01*
X120292009Y-78838106D01*
X120101483Y-78741028D01*
X120101480Y-78741027D01*
X120101478Y-78741026D01*
X119898120Y-78674952D01*
X119898123Y-78674952D01*
X119858801Y-78668724D01*
X119686916Y-78641500D01*
X119473084Y-78641500D01*
X119261884Y-78674951D01*
X119261878Y-78674952D01*
X119058521Y-78741026D01*
X119058515Y-78741029D01*
X118867987Y-78838108D01*
X118694993Y-78963796D01*
X118694990Y-78963798D01*
X118543798Y-79114990D01*
X118543796Y-79114993D01*
X118418108Y-79287987D01*
X118417434Y-79289088D01*
X118417068Y-79289418D01*
X118415196Y-79291996D01*
X118414654Y-79291602D01*
X118364787Y-79336721D01*
X118294745Y-79348328D01*
X118229547Y-79320226D01*
X118204976Y-79291870D01*
X118204804Y-79291996D01*
X118203341Y-79289982D01*
X118202566Y-79289088D01*
X118201896Y-79287996D01*
X118201894Y-79287991D01*
X118076206Y-79114996D01*
X118076203Y-79114993D01*
X118076201Y-79114990D01*
X117925009Y-78963798D01*
X117925006Y-78963796D01*
X117925004Y-78963794D01*
X117752009Y-78838106D01*
X117561483Y-78741028D01*
X117561480Y-78741027D01*
X117561478Y-78741026D01*
X117358120Y-78674952D01*
X117358123Y-78674952D01*
X117318801Y-78668724D01*
X117146916Y-78641500D01*
X116933084Y-78641500D01*
X116721884Y-78674951D01*
X116721878Y-78674952D01*
X116518521Y-78741026D01*
X116518515Y-78741029D01*
X116327987Y-78838108D01*
X116154993Y-78963796D01*
X116154990Y-78963798D01*
X116003798Y-79114990D01*
X116003796Y-79114993D01*
X115878108Y-79287987D01*
X115877434Y-79289088D01*
X115877068Y-79289418D01*
X115875196Y-79291996D01*
X115874654Y-79291602D01*
X115824787Y-79336721D01*
X115754745Y-79348328D01*
X115689547Y-79320226D01*
X115664976Y-79291870D01*
X115664804Y-79291996D01*
X115663341Y-79289982D01*
X115662566Y-79289088D01*
X115661896Y-79287996D01*
X115661894Y-79287991D01*
X115536206Y-79114996D01*
X115536203Y-79114993D01*
X115536201Y-79114990D01*
X115385009Y-78963798D01*
X115385006Y-78963796D01*
X115385004Y-78963794D01*
X115212009Y-78838106D01*
X115021483Y-78741028D01*
X115021480Y-78741027D01*
X115021478Y-78741026D01*
X114818120Y-78674952D01*
X114818123Y-78674952D01*
X114778801Y-78668724D01*
X114606916Y-78641500D01*
X114393084Y-78641500D01*
X114181884Y-78674951D01*
X114181878Y-78674952D01*
X113978521Y-78741026D01*
X113978515Y-78741029D01*
X113787987Y-78838108D01*
X113614993Y-78963796D01*
X113614990Y-78963798D01*
X113463798Y-79114990D01*
X113463796Y-79114993D01*
X113338108Y-79287987D01*
X113241029Y-79478515D01*
X113241026Y-79478521D01*
X113174952Y-79681878D01*
X113174951Y-79681883D01*
X113174951Y-79681884D01*
X113141500Y-79893084D01*
X92069554Y-79893084D01*
X92054381Y-79739024D01*
X92002563Y-79478517D01*
X91982493Y-79377617D01*
X91982491Y-79377613D01*
X91982490Y-79377604D01*
X91875520Y-79024971D01*
X91734501Y-78684521D01*
X91593522Y-78420768D01*
X91579051Y-78351264D01*
X91604455Y-78284968D01*
X91661668Y-78242930D01*
X91732526Y-78238497D01*
X91761846Y-78249107D01*
X91782550Y-78259656D01*
X92023342Y-78337894D01*
X92273408Y-78377500D01*
X92273411Y-78377500D01*
X92526589Y-78377500D01*
X92526592Y-78377500D01*
X92776658Y-78337894D01*
X93017450Y-78259656D01*
X93243038Y-78144713D01*
X93447868Y-77995895D01*
X93626895Y-77816868D01*
X93775713Y-77612038D01*
X93890656Y-77386450D01*
X93968894Y-77145658D01*
X94008500Y-76895592D01*
X94008500Y-76642408D01*
X93968894Y-76392342D01*
X93890656Y-76151550D01*
X93775713Y-75925962D01*
X93626895Y-75721132D01*
X93626892Y-75721129D01*
X93626890Y-75721126D01*
X93447873Y-75542109D01*
X93447870Y-75542107D01*
X93447868Y-75542105D01*
X93243038Y-75393287D01*
X93207859Y-75375362D01*
X93156244Y-75326614D01*
X93139179Y-75257699D01*
X93162080Y-75190497D01*
X93217678Y-75146345D01*
X93265345Y-75137096D01*
X209838790Y-75402277D01*
G37*
G04 #@! TD.AperFunction*
M02*
