G04 #@! TF.GenerationSoftware,KiCad,Pcbnew,5.1.9+dfsg1-1*
G04 #@! TF.CreationDate,2021-03-24T21:41:14+01:00*
G04 #@! TF.ProjectId,ctrl-m,6374726c-2d6d-42e6-9b69-6361645f7063,1.0*
G04 #@! TF.SameCoordinates,Original*
G04 #@! TF.FileFunction,Profile,NP*
%FSLAX46Y46*%
G04 Gerber Fmt 4.6, Leading zero omitted, Abs format (unit mm)*
G04 Created by KiCad (PCBNEW 5.1.9+dfsg1-1) date 2021-03-24 21:41:14*
%MOMM*%
%LPD*%
G01*
G04 APERTURE LIST*
G04 #@! TA.AperFunction,Profile*
%ADD10C,0.050000*%
G04 #@! TD*
G04 APERTURE END LIST*
D10*
X80710000Y-114299000D02*
G75*
G02*
X80710000Y-112299000I0J1000000D01*
G01*
X209970000Y-114939000D02*
X209970000Y-109889000D01*
X209960000Y-99709000D02*
X209960000Y-84939000D01*
X211970000Y-114939000D02*
G75*
G02*
X209970000Y-114939000I-1000000J0D01*
G01*
X211960000Y-99709000D02*
G75*
G02*
X209960000Y-99709000I-1000000J0D01*
G01*
X209970000Y-109889000D02*
G75*
G02*
X211970000Y-109889000I1000000J0D01*
G01*
X209960000Y-84939000D02*
G75*
G02*
X211960000Y-84939000I1000000J0D01*
G01*
X75500000Y-112309000D02*
G75*
G02*
X75490000Y-114308950I-10000J-999950D01*
G01*
X207690000Y-112299000D02*
G75*
G02*
X207690000Y-114299000I0J-1000000D01*
G01*
X207690000Y-114299000D02*
X201220000Y-114299000D01*
X207690000Y-112299000D02*
X201220000Y-112299000D01*
X201220000Y-114299000D02*
X191780000Y-114299000D01*
X191780000Y-114299000D02*
G75*
G02*
X191780000Y-112299000I0J1000000D01*
G01*
X201220000Y-112299000D02*
X191780000Y-112299000D01*
X188810000Y-112299000D02*
G75*
G02*
X188810000Y-114299000I0J-1000000D01*
G01*
X188810000Y-114299000D02*
X176290000Y-114299000D01*
X188810000Y-112299000D02*
X179370000Y-112299000D01*
X176290000Y-114299000D02*
X163700000Y-114319000D01*
X179370000Y-112299000D02*
X166850000Y-112299000D01*
X163700000Y-114319000D02*
X154260000Y-114319000D01*
X154260000Y-114319000D02*
G75*
G02*
X154260000Y-112319000I0J1000000D01*
G01*
X166850000Y-112299000D02*
X154260000Y-112319000D01*
X151260000Y-112299000D02*
G75*
G02*
X151260000Y-114299000I0J-1000000D01*
G01*
X151260000Y-114299000D02*
X138800000Y-114299000D01*
X151260000Y-112299000D02*
X138800000Y-112299000D01*
X138800000Y-114299000D02*
X129360000Y-114299000D01*
X129360000Y-114299000D02*
G75*
G02*
X129360000Y-112299000I0J1000000D01*
G01*
X138800000Y-112299000D02*
X129360000Y-112299000D01*
X126150000Y-112309000D02*
G75*
G02*
X126150000Y-114309000I0J-1000000D01*
G01*
X126150000Y-114309000D02*
X113130000Y-114299000D01*
X126150000Y-112309000D02*
X116710000Y-112309000D01*
X113130000Y-114299000D02*
X103690000Y-114299000D01*
X103690000Y-114299000D02*
G75*
G02*
X103690000Y-112299000I0J1000000D01*
G01*
X116710000Y-112309000D02*
X103690000Y-112299000D01*
X100480000Y-112299000D02*
G75*
G02*
X100480000Y-114299000I0J-1000000D01*
G01*
X100480000Y-114299000D02*
X80710000Y-114299000D01*
X100480000Y-112299000D02*
X80710000Y-112299000D01*
X75500000Y-112309000D02*
X65600000Y-112309000D01*
X65600000Y-114309000D02*
G75*
G02*
X65600000Y-112309000I0J1000000D01*
G01*
X75490000Y-114308950D02*
X65600000Y-114309000D01*
X211960000Y-99709000D02*
X211960000Y-84939000D01*
X211970000Y-114939000D02*
X211970000Y-109889000D01*
X60000000Y-114299000D02*
X60000000Y-125499000D01*
X62289000Y-112299050D02*
G75*
G02*
X62279000Y-114299000I-10000J-999950D01*
G01*
X60000000Y-114299000D02*
X62279000Y-114299000D01*
X60000000Y-112299000D02*
X62289000Y-112299050D01*
X209990000Y-75000000D02*
X60000000Y-75000000D01*
X211990000Y-75000000D02*
X231000000Y-75000000D01*
X211990000Y-75000000D02*
X211989950Y-77289000D01*
X209990000Y-75000000D02*
X209990000Y-77279000D01*
X212000000Y-119949000D02*
X212000000Y-125499000D01*
X209990000Y-125499000D02*
X210000000Y-119949000D01*
X209990000Y-125499000D02*
X60000000Y-125500000D01*
X212000000Y-125499000D02*
X231000000Y-125500000D01*
X211989950Y-77289000D02*
G75*
G02*
X209990000Y-77279000I-999950J10000D01*
G01*
X210000000Y-119949000D02*
G75*
G02*
X212000000Y-119949000I1000000J0D01*
G01*
X60000000Y-112299000D02*
X60000000Y-75000000D01*
X231000000Y-75000000D02*
X231000000Y-125500000D01*
M02*
