G04 #@! TF.GenerationSoftware,KiCad,Pcbnew,9.0.7+dfsg-1*
G04 #@! TF.CreationDate,2026-02-12T00:04:33+01:00*
G04 #@! TF.ProjectId,ctrl-m,6374726c-2d6d-42e6-9b69-6361645f7063,1.2*
G04 #@! TF.SameCoordinates,Original*
G04 #@! TF.FileFunction,Copper,L2,Bot*
G04 #@! TF.FilePolarity,Positive*
%FSLAX46Y46*%
G04 Gerber Fmt 4.6, Leading zero omitted, Abs format (unit mm)*
G04 Created by KiCad (PCBNEW 9.0.7+dfsg-1) date 2026-02-12 00:04:33*
%MOMM*%
%LPD*%
G01*
G04 APERTURE LIST*
G04 Aperture macros list*
%AMRoundRect*
0 Rectangle with rounded corners*
0 $1 Rounding radius*
0 $2 $3 $4 $5 $6 $7 $8 $9 X,Y pos of 4 corners*
0 Add a 4 corners polygon primitive as box body*
4,1,4,$2,$3,$4,$5,$6,$7,$8,$9,$2,$3,0*
0 Add four circle primitives for the rounded corners*
1,1,$1+$1,$2,$3*
1,1,$1+$1,$4,$5*
1,1,$1+$1,$6,$7*
1,1,$1+$1,$8,$9*
0 Add four rect primitives between the rounded corners*
20,1,$1+$1,$2,$3,$4,$5,0*
20,1,$1+$1,$4,$5,$6,$7,0*
20,1,$1+$1,$6,$7,$8,$9,0*
20,1,$1+$1,$8,$9,$2,$3,0*%
%AMFreePoly0*
4,1,9,3.862500,-0.866500,0.737500,-0.866500,0.737500,-0.450000,-0.737500,-0.450000,-0.737500,0.450000,0.737500,0.450000,0.737500,0.866500,3.862500,0.866500,3.862500,-0.866500,3.862500,-0.866500,$1*%
G04 Aperture macros list end*
%ADD10C,0.300000*%
G04 #@! TA.AperFunction,NonConductor*
%ADD11C,0.300000*%
G04 #@! TD*
G04 #@! TA.AperFunction,ComponentPad*
%ADD12R,1.700000X1.700000*%
G04 #@! TD*
G04 #@! TA.AperFunction,ComponentPad*
%ADD13C,1.700000*%
G04 #@! TD*
G04 #@! TA.AperFunction,ComponentPad*
%ADD14C,3.500000*%
G04 #@! TD*
G04 #@! TA.AperFunction,ComponentPad*
%ADD15R,1.000000X1.000000*%
G04 #@! TD*
G04 #@! TA.AperFunction,ComponentPad*
%ADD16O,1.000000X1.000000*%
G04 #@! TD*
G04 #@! TA.AperFunction,ComponentPad*
%ADD17O,1.700000X1.700000*%
G04 #@! TD*
G04 #@! TA.AperFunction,ComponentPad*
%ADD18C,2.400000*%
G04 #@! TD*
G04 #@! TA.AperFunction,ComponentPad*
%ADD19C,2.200000*%
G04 #@! TD*
G04 #@! TA.AperFunction,ComponentPad*
%ADD20C,8.000000*%
G04 #@! TD*
G04 #@! TA.AperFunction,ComponentPad*
%ADD21C,4.000000*%
G04 #@! TD*
G04 #@! TA.AperFunction,ComponentPad*
%ADD22C,2.500000*%
G04 #@! TD*
G04 #@! TA.AperFunction,SMDPad,CuDef*
%ADD23RoundRect,0.218750X-0.218750X-0.256250X0.218750X-0.256250X0.218750X0.256250X-0.218750X0.256250X0*%
G04 #@! TD*
G04 #@! TA.AperFunction,SMDPad,CuDef*
%ADD24RoundRect,0.218750X0.256250X-0.218750X0.256250X0.218750X-0.256250X0.218750X-0.256250X-0.218750X0*%
G04 #@! TD*
G04 #@! TA.AperFunction,SMDPad,CuDef*
%ADD25RoundRect,0.218750X-0.256250X0.218750X-0.256250X-0.218750X0.256250X-0.218750X0.256250X0.218750X0*%
G04 #@! TD*
G04 #@! TA.AperFunction,SMDPad,CuDef*
%ADD26RoundRect,0.075000X0.415425X0.521491X-0.521491X-0.415425X-0.415425X-0.521491X0.521491X0.415425X0*%
G04 #@! TD*
G04 #@! TA.AperFunction,SMDPad,CuDef*
%ADD27RoundRect,0.075000X-0.415425X0.521491X-0.521491X0.415425X0.415425X-0.521491X0.521491X-0.415425X0*%
G04 #@! TD*
G04 #@! TA.AperFunction,SMDPad,CuDef*
%ADD28R,0.650000X1.060000*%
G04 #@! TD*
G04 #@! TA.AperFunction,SMDPad,CuDef*
%ADD29C,0.750000*%
G04 #@! TD*
G04 #@! TA.AperFunction,SMDPad,CuDef*
%ADD30R,1.300000X0.900000*%
G04 #@! TD*
G04 #@! TA.AperFunction,SMDPad,CuDef*
%ADD31FreePoly0,180.000000*%
G04 #@! TD*
G04 #@! TA.AperFunction,SMDPad,CuDef*
%ADD32RoundRect,0.243750X0.456250X-0.243750X0.456250X0.243750X-0.456250X0.243750X-0.456250X-0.243750X0*%
G04 #@! TD*
G04 #@! TA.AperFunction,SMDPad,CuDef*
%ADD33RoundRect,0.243750X-0.456250X0.243750X-0.456250X-0.243750X0.456250X-0.243750X0.456250X0.243750X0*%
G04 #@! TD*
G04 #@! TA.AperFunction,ViaPad*
%ADD34C,1.200000*%
G04 #@! TD*
G04 #@! TA.AperFunction,Conductor*
%ADD35C,0.600000*%
G04 #@! TD*
G04 #@! TA.AperFunction,Conductor*
%ADD36C,0.250000*%
G04 #@! TD*
G04 #@! TA.AperFunction,Conductor*
%ADD37C,0.400000*%
G04 #@! TD*
G04 #@! TA.AperFunction,Conductor*
%ADD38C,2.000000*%
G04 #@! TD*
G04 APERTURE END LIST*
D10*
D11*
X121785713Y-107369870D02*
X121785713Y-105869870D01*
X121785713Y-105869870D02*
X121285713Y-106941299D01*
X121285713Y-106941299D02*
X120785713Y-105869870D01*
X120785713Y-105869870D02*
X120785713Y-107369870D01*
X119857141Y-107369870D02*
X119999998Y-107298442D01*
X119999998Y-107298442D02*
X120071427Y-107227013D01*
X120071427Y-107227013D02*
X120142855Y-107084156D01*
X120142855Y-107084156D02*
X120142855Y-106655584D01*
X120142855Y-106655584D02*
X120071427Y-106512727D01*
X120071427Y-106512727D02*
X119999998Y-106441299D01*
X119999998Y-106441299D02*
X119857141Y-106369870D01*
X119857141Y-106369870D02*
X119642855Y-106369870D01*
X119642855Y-106369870D02*
X119499998Y-106441299D01*
X119499998Y-106441299D02*
X119428570Y-106512727D01*
X119428570Y-106512727D02*
X119357141Y-106655584D01*
X119357141Y-106655584D02*
X119357141Y-107084156D01*
X119357141Y-107084156D02*
X119428570Y-107227013D01*
X119428570Y-107227013D02*
X119499998Y-107298442D01*
X119499998Y-107298442D02*
X119642855Y-107369870D01*
X119642855Y-107369870D02*
X119857141Y-107369870D01*
X118071427Y-107369870D02*
X118071427Y-105869870D01*
X118071427Y-107298442D02*
X118214284Y-107369870D01*
X118214284Y-107369870D02*
X118499998Y-107369870D01*
X118499998Y-107369870D02*
X118642855Y-107298442D01*
X118642855Y-107298442D02*
X118714284Y-107227013D01*
X118714284Y-107227013D02*
X118785712Y-107084156D01*
X118785712Y-107084156D02*
X118785712Y-106655584D01*
X118785712Y-106655584D02*
X118714284Y-106512727D01*
X118714284Y-106512727D02*
X118642855Y-106441299D01*
X118642855Y-106441299D02*
X118499998Y-106369870D01*
X118499998Y-106369870D02*
X118214284Y-106369870D01*
X118214284Y-106369870D02*
X118071427Y-106441299D01*
X116785712Y-107298442D02*
X116928569Y-107369870D01*
X116928569Y-107369870D02*
X117214284Y-107369870D01*
X117214284Y-107369870D02*
X117357141Y-107298442D01*
X117357141Y-107298442D02*
X117428569Y-107155584D01*
X117428569Y-107155584D02*
X117428569Y-106584156D01*
X117428569Y-106584156D02*
X117357141Y-106441299D01*
X117357141Y-106441299D02*
X117214284Y-106369870D01*
X117214284Y-106369870D02*
X116928569Y-106369870D01*
X116928569Y-106369870D02*
X116785712Y-106441299D01*
X116785712Y-106441299D02*
X116714284Y-106584156D01*
X116714284Y-106584156D02*
X116714284Y-106727013D01*
X116714284Y-106727013D02*
X117428569Y-106869870D01*
X115857141Y-107369870D02*
X115999998Y-107298442D01*
X115999998Y-107298442D02*
X116071427Y-107155584D01*
X116071427Y-107155584D02*
X116071427Y-105869870D01*
X114142856Y-107369870D02*
X114142856Y-105869870D01*
X114142856Y-105869870D02*
X113642856Y-106941299D01*
X113642856Y-106941299D02*
X113142856Y-105869870D01*
X113142856Y-105869870D02*
X113142856Y-107369870D01*
X111285713Y-105869870D02*
X111285713Y-107084156D01*
X111285713Y-107084156D02*
X111214284Y-107227013D01*
X111214284Y-107227013D02*
X111142856Y-107298442D01*
X111142856Y-107298442D02*
X110999998Y-107369870D01*
X110999998Y-107369870D02*
X110714284Y-107369870D01*
X110714284Y-107369870D02*
X110571427Y-107298442D01*
X110571427Y-107298442D02*
X110499998Y-107227013D01*
X110499998Y-107227013D02*
X110428570Y-107084156D01*
X110428570Y-107084156D02*
X110428570Y-105869870D01*
X109785712Y-107298442D02*
X109571427Y-107369870D01*
X109571427Y-107369870D02*
X109214284Y-107369870D01*
X109214284Y-107369870D02*
X109071427Y-107298442D01*
X109071427Y-107298442D02*
X108999998Y-107227013D01*
X108999998Y-107227013D02*
X108928569Y-107084156D01*
X108928569Y-107084156D02*
X108928569Y-106941299D01*
X108928569Y-106941299D02*
X108999998Y-106798442D01*
X108999998Y-106798442D02*
X109071427Y-106727013D01*
X109071427Y-106727013D02*
X109214284Y-106655584D01*
X109214284Y-106655584D02*
X109499998Y-106584156D01*
X109499998Y-106584156D02*
X109642855Y-106512727D01*
X109642855Y-106512727D02*
X109714284Y-106441299D01*
X109714284Y-106441299D02*
X109785712Y-106298442D01*
X109785712Y-106298442D02*
X109785712Y-106155584D01*
X109785712Y-106155584D02*
X109714284Y-106012727D01*
X109714284Y-106012727D02*
X109642855Y-105941299D01*
X109642855Y-105941299D02*
X109499998Y-105869870D01*
X109499998Y-105869870D02*
X109142855Y-105869870D01*
X109142855Y-105869870D02*
X108928569Y-105941299D01*
X107785713Y-106584156D02*
X107571427Y-106655584D01*
X107571427Y-106655584D02*
X107499998Y-106727013D01*
X107499998Y-106727013D02*
X107428570Y-106869870D01*
X107428570Y-106869870D02*
X107428570Y-107084156D01*
X107428570Y-107084156D02*
X107499998Y-107227013D01*
X107499998Y-107227013D02*
X107571427Y-107298442D01*
X107571427Y-107298442D02*
X107714284Y-107369870D01*
X107714284Y-107369870D02*
X108285713Y-107369870D01*
X108285713Y-107369870D02*
X108285713Y-105869870D01*
X108285713Y-105869870D02*
X107785713Y-105869870D01*
X107785713Y-105869870D02*
X107642856Y-105941299D01*
X107642856Y-105941299D02*
X107571427Y-106012727D01*
X107571427Y-106012727D02*
X107499998Y-106155584D01*
X107499998Y-106155584D02*
X107499998Y-106298442D01*
X107499998Y-106298442D02*
X107571427Y-106441299D01*
X107571427Y-106441299D02*
X107642856Y-106512727D01*
X107642856Y-106512727D02*
X107785713Y-106584156D01*
X107785713Y-106584156D02*
X108285713Y-106584156D01*
X104785713Y-107227013D02*
X104857141Y-107298442D01*
X104857141Y-107298442D02*
X105071427Y-107369870D01*
X105071427Y-107369870D02*
X105214284Y-107369870D01*
X105214284Y-107369870D02*
X105428570Y-107298442D01*
X105428570Y-107298442D02*
X105571427Y-107155584D01*
X105571427Y-107155584D02*
X105642856Y-107012727D01*
X105642856Y-107012727D02*
X105714284Y-106727013D01*
X105714284Y-106727013D02*
X105714284Y-106512727D01*
X105714284Y-106512727D02*
X105642856Y-106227013D01*
X105642856Y-106227013D02*
X105571427Y-106084156D01*
X105571427Y-106084156D02*
X105428570Y-105941299D01*
X105428570Y-105941299D02*
X105214284Y-105869870D01*
X105214284Y-105869870D02*
X105071427Y-105869870D01*
X105071427Y-105869870D02*
X104857141Y-105941299D01*
X104857141Y-105941299D02*
X104785713Y-106012727D01*
X103928570Y-107369870D02*
X104071427Y-107298442D01*
X104071427Y-107298442D02*
X104142856Y-107227013D01*
X104142856Y-107227013D02*
X104214284Y-107084156D01*
X104214284Y-107084156D02*
X104214284Y-106655584D01*
X104214284Y-106655584D02*
X104142856Y-106512727D01*
X104142856Y-106512727D02*
X104071427Y-106441299D01*
X104071427Y-106441299D02*
X103928570Y-106369870D01*
X103928570Y-106369870D02*
X103714284Y-106369870D01*
X103714284Y-106369870D02*
X103571427Y-106441299D01*
X103571427Y-106441299D02*
X103499999Y-106512727D01*
X103499999Y-106512727D02*
X103428570Y-106655584D01*
X103428570Y-106655584D02*
X103428570Y-107084156D01*
X103428570Y-107084156D02*
X103499999Y-107227013D01*
X103499999Y-107227013D02*
X103571427Y-107298442D01*
X103571427Y-107298442D02*
X103714284Y-107369870D01*
X103714284Y-107369870D02*
X103928570Y-107369870D01*
X102785713Y-106369870D02*
X102785713Y-107369870D01*
X102785713Y-106512727D02*
X102714284Y-106441299D01*
X102714284Y-106441299D02*
X102571427Y-106369870D01*
X102571427Y-106369870D02*
X102357141Y-106369870D01*
X102357141Y-106369870D02*
X102214284Y-106441299D01*
X102214284Y-106441299D02*
X102142856Y-106584156D01*
X102142856Y-106584156D02*
X102142856Y-107369870D01*
X101642855Y-106369870D02*
X101071427Y-106369870D01*
X101428570Y-105869870D02*
X101428570Y-107155584D01*
X101428570Y-107155584D02*
X101357141Y-107298442D01*
X101357141Y-107298442D02*
X101214284Y-107369870D01*
X101214284Y-107369870D02*
X101071427Y-107369870D01*
X100571427Y-107369870D02*
X100571427Y-106369870D01*
X100571427Y-106655584D02*
X100499998Y-106512727D01*
X100499998Y-106512727D02*
X100428570Y-106441299D01*
X100428570Y-106441299D02*
X100285712Y-106369870D01*
X100285712Y-106369870D02*
X100142855Y-106369870D01*
X99428570Y-107369870D02*
X99571427Y-107298442D01*
X99571427Y-107298442D02*
X99642856Y-107227013D01*
X99642856Y-107227013D02*
X99714284Y-107084156D01*
X99714284Y-107084156D02*
X99714284Y-106655584D01*
X99714284Y-106655584D02*
X99642856Y-106512727D01*
X99642856Y-106512727D02*
X99571427Y-106441299D01*
X99571427Y-106441299D02*
X99428570Y-106369870D01*
X99428570Y-106369870D02*
X99214284Y-106369870D01*
X99214284Y-106369870D02*
X99071427Y-106441299D01*
X99071427Y-106441299D02*
X98999999Y-106512727D01*
X98999999Y-106512727D02*
X98928570Y-106655584D01*
X98928570Y-106655584D02*
X98928570Y-107084156D01*
X98928570Y-107084156D02*
X98999999Y-107227013D01*
X98999999Y-107227013D02*
X99071427Y-107298442D01*
X99071427Y-107298442D02*
X99214284Y-107369870D01*
X99214284Y-107369870D02*
X99428570Y-107369870D01*
X98071427Y-107369870D02*
X98214284Y-107298442D01*
X98214284Y-107298442D02*
X98285713Y-107155584D01*
X98285713Y-107155584D02*
X98285713Y-105869870D01*
X97285713Y-107369870D02*
X97428570Y-107298442D01*
X97428570Y-107298442D02*
X97499999Y-107155584D01*
X97499999Y-107155584D02*
X97499999Y-105869870D01*
X96142856Y-107298442D02*
X96285713Y-107369870D01*
X96285713Y-107369870D02*
X96571428Y-107369870D01*
X96571428Y-107369870D02*
X96714285Y-107298442D01*
X96714285Y-107298442D02*
X96785713Y-107155584D01*
X96785713Y-107155584D02*
X96785713Y-106584156D01*
X96785713Y-106584156D02*
X96714285Y-106441299D01*
X96714285Y-106441299D02*
X96571428Y-106369870D01*
X96571428Y-106369870D02*
X96285713Y-106369870D01*
X96285713Y-106369870D02*
X96142856Y-106441299D01*
X96142856Y-106441299D02*
X96071428Y-106584156D01*
X96071428Y-106584156D02*
X96071428Y-106727013D01*
X96071428Y-106727013D02*
X96785713Y-106869870D01*
X95428571Y-107369870D02*
X95428571Y-106369870D01*
X95428571Y-106655584D02*
X95357142Y-106512727D01*
X95357142Y-106512727D02*
X95285714Y-106441299D01*
X95285714Y-106441299D02*
X95142856Y-106369870D01*
X95142856Y-106369870D02*
X94999999Y-106369870D01*
X128750001Y-109784786D02*
X128750001Y-108284786D01*
X128107144Y-109784786D02*
X128107144Y-108999072D01*
X128107144Y-108999072D02*
X128178572Y-108856215D01*
X128178572Y-108856215D02*
X128321429Y-108784786D01*
X128321429Y-108784786D02*
X128535715Y-108784786D01*
X128535715Y-108784786D02*
X128678572Y-108856215D01*
X128678572Y-108856215D02*
X128750001Y-108927643D01*
X127607143Y-108784786D02*
X127035715Y-108784786D01*
X127392858Y-108284786D02*
X127392858Y-109570500D01*
X127392858Y-109570500D02*
X127321429Y-109713358D01*
X127321429Y-109713358D02*
X127178572Y-109784786D01*
X127178572Y-109784786D02*
X127035715Y-109784786D01*
X126750000Y-108784786D02*
X126178572Y-108784786D01*
X126535715Y-108284786D02*
X126535715Y-109570500D01*
X126535715Y-109570500D02*
X126464286Y-109713358D01*
X126464286Y-109713358D02*
X126321429Y-109784786D01*
X126321429Y-109784786D02*
X126178572Y-109784786D01*
X125678572Y-108784786D02*
X125678572Y-110284786D01*
X125678572Y-108856215D02*
X125535715Y-108784786D01*
X125535715Y-108784786D02*
X125250000Y-108784786D01*
X125250000Y-108784786D02*
X125107143Y-108856215D01*
X125107143Y-108856215D02*
X125035715Y-108927643D01*
X125035715Y-108927643D02*
X124964286Y-109070500D01*
X124964286Y-109070500D02*
X124964286Y-109499072D01*
X124964286Y-109499072D02*
X125035715Y-109641929D01*
X125035715Y-109641929D02*
X125107143Y-109713358D01*
X125107143Y-109713358D02*
X125250000Y-109784786D01*
X125250000Y-109784786D02*
X125535715Y-109784786D01*
X125535715Y-109784786D02*
X125678572Y-109713358D01*
X124392857Y-109713358D02*
X124250000Y-109784786D01*
X124250000Y-109784786D02*
X123964286Y-109784786D01*
X123964286Y-109784786D02*
X123821429Y-109713358D01*
X123821429Y-109713358D02*
X123750000Y-109570500D01*
X123750000Y-109570500D02*
X123750000Y-109499072D01*
X123750000Y-109499072D02*
X123821429Y-109356215D01*
X123821429Y-109356215D02*
X123964286Y-109284786D01*
X123964286Y-109284786D02*
X124178572Y-109284786D01*
X124178572Y-109284786D02*
X124321429Y-109213358D01*
X124321429Y-109213358D02*
X124392857Y-109070500D01*
X124392857Y-109070500D02*
X124392857Y-108999072D01*
X124392857Y-108999072D02*
X124321429Y-108856215D01*
X124321429Y-108856215D02*
X124178572Y-108784786D01*
X124178572Y-108784786D02*
X123964286Y-108784786D01*
X123964286Y-108784786D02*
X123821429Y-108856215D01*
X123107143Y-109641929D02*
X123035714Y-109713358D01*
X123035714Y-109713358D02*
X123107143Y-109784786D01*
X123107143Y-109784786D02*
X123178571Y-109713358D01*
X123178571Y-109713358D02*
X123107143Y-109641929D01*
X123107143Y-109641929D02*
X123107143Y-109784786D01*
X123107143Y-108856215D02*
X123035714Y-108927643D01*
X123035714Y-108927643D02*
X123107143Y-108999072D01*
X123107143Y-108999072D02*
X123178571Y-108927643D01*
X123178571Y-108927643D02*
X123107143Y-108856215D01*
X123107143Y-108856215D02*
X123107143Y-108999072D01*
X121321428Y-108213358D02*
X122607142Y-110141929D01*
X119749999Y-108213358D02*
X121035713Y-110141929D01*
X118607142Y-108784786D02*
X118607142Y-109999072D01*
X118607142Y-109999072D02*
X118678570Y-110141929D01*
X118678570Y-110141929D02*
X118749999Y-110213358D01*
X118749999Y-110213358D02*
X118892856Y-110284786D01*
X118892856Y-110284786D02*
X119107142Y-110284786D01*
X119107142Y-110284786D02*
X119249999Y-110213358D01*
X118607142Y-109713358D02*
X118749999Y-109784786D01*
X118749999Y-109784786D02*
X119035713Y-109784786D01*
X119035713Y-109784786D02*
X119178570Y-109713358D01*
X119178570Y-109713358D02*
X119249999Y-109641929D01*
X119249999Y-109641929D02*
X119321427Y-109499072D01*
X119321427Y-109499072D02*
X119321427Y-109070500D01*
X119321427Y-109070500D02*
X119249999Y-108927643D01*
X119249999Y-108927643D02*
X119178570Y-108856215D01*
X119178570Y-108856215D02*
X119035713Y-108784786D01*
X119035713Y-108784786D02*
X118749999Y-108784786D01*
X118749999Y-108784786D02*
X118607142Y-108856215D01*
X117892856Y-109784786D02*
X117892856Y-108784786D01*
X117892856Y-108284786D02*
X117964284Y-108356215D01*
X117964284Y-108356215D02*
X117892856Y-108427643D01*
X117892856Y-108427643D02*
X117821427Y-108356215D01*
X117821427Y-108356215D02*
X117892856Y-108284786D01*
X117892856Y-108284786D02*
X117892856Y-108427643D01*
X117392855Y-108784786D02*
X116821427Y-108784786D01*
X117178570Y-108284786D02*
X117178570Y-109570500D01*
X117178570Y-109570500D02*
X117107141Y-109713358D01*
X117107141Y-109713358D02*
X116964284Y-109784786D01*
X116964284Y-109784786D02*
X116821427Y-109784786D01*
X116321427Y-109784786D02*
X116321427Y-108284786D01*
X115678570Y-109784786D02*
X115678570Y-108999072D01*
X115678570Y-108999072D02*
X115749998Y-108856215D01*
X115749998Y-108856215D02*
X115892855Y-108784786D01*
X115892855Y-108784786D02*
X116107141Y-108784786D01*
X116107141Y-108784786D02*
X116249998Y-108856215D01*
X116249998Y-108856215D02*
X116321427Y-108927643D01*
X114321427Y-108784786D02*
X114321427Y-109784786D01*
X114964284Y-108784786D02*
X114964284Y-109570500D01*
X114964284Y-109570500D02*
X114892855Y-109713358D01*
X114892855Y-109713358D02*
X114749998Y-109784786D01*
X114749998Y-109784786D02*
X114535712Y-109784786D01*
X114535712Y-109784786D02*
X114392855Y-109713358D01*
X114392855Y-109713358D02*
X114321427Y-109641929D01*
X113607141Y-109784786D02*
X113607141Y-108284786D01*
X113607141Y-108856215D02*
X113464284Y-108784786D01*
X113464284Y-108784786D02*
X113178569Y-108784786D01*
X113178569Y-108784786D02*
X113035712Y-108856215D01*
X113035712Y-108856215D02*
X112964284Y-108927643D01*
X112964284Y-108927643D02*
X112892855Y-109070500D01*
X112892855Y-109070500D02*
X112892855Y-109499072D01*
X112892855Y-109499072D02*
X112964284Y-109641929D01*
X112964284Y-109641929D02*
X113035712Y-109713358D01*
X113035712Y-109713358D02*
X113178569Y-109784786D01*
X113178569Y-109784786D02*
X113464284Y-109784786D01*
X113464284Y-109784786D02*
X113607141Y-109713358D01*
X112249998Y-109641929D02*
X112178569Y-109713358D01*
X112178569Y-109713358D02*
X112249998Y-109784786D01*
X112249998Y-109784786D02*
X112321426Y-109713358D01*
X112321426Y-109713358D02*
X112249998Y-109641929D01*
X112249998Y-109641929D02*
X112249998Y-109784786D01*
X110892855Y-109713358D02*
X111035712Y-109784786D01*
X111035712Y-109784786D02*
X111321426Y-109784786D01*
X111321426Y-109784786D02*
X111464283Y-109713358D01*
X111464283Y-109713358D02*
X111535712Y-109641929D01*
X111535712Y-109641929D02*
X111607140Y-109499072D01*
X111607140Y-109499072D02*
X111607140Y-109070500D01*
X111607140Y-109070500D02*
X111535712Y-108927643D01*
X111535712Y-108927643D02*
X111464283Y-108856215D01*
X111464283Y-108856215D02*
X111321426Y-108784786D01*
X111321426Y-108784786D02*
X111035712Y-108784786D01*
X111035712Y-108784786D02*
X110892855Y-108856215D01*
X110035712Y-109784786D02*
X110178569Y-109713358D01*
X110178569Y-109713358D02*
X110249998Y-109641929D01*
X110249998Y-109641929D02*
X110321426Y-109499072D01*
X110321426Y-109499072D02*
X110321426Y-109070500D01*
X110321426Y-109070500D02*
X110249998Y-108927643D01*
X110249998Y-108927643D02*
X110178569Y-108856215D01*
X110178569Y-108856215D02*
X110035712Y-108784786D01*
X110035712Y-108784786D02*
X109821426Y-108784786D01*
X109821426Y-108784786D02*
X109678569Y-108856215D01*
X109678569Y-108856215D02*
X109607141Y-108927643D01*
X109607141Y-108927643D02*
X109535712Y-109070500D01*
X109535712Y-109070500D02*
X109535712Y-109499072D01*
X109535712Y-109499072D02*
X109607141Y-109641929D01*
X109607141Y-109641929D02*
X109678569Y-109713358D01*
X109678569Y-109713358D02*
X109821426Y-109784786D01*
X109821426Y-109784786D02*
X110035712Y-109784786D01*
X108892855Y-109784786D02*
X108892855Y-108784786D01*
X108892855Y-108927643D02*
X108821426Y-108856215D01*
X108821426Y-108856215D02*
X108678569Y-108784786D01*
X108678569Y-108784786D02*
X108464283Y-108784786D01*
X108464283Y-108784786D02*
X108321426Y-108856215D01*
X108321426Y-108856215D02*
X108249998Y-108999072D01*
X108249998Y-108999072D02*
X108249998Y-109784786D01*
X108249998Y-108999072D02*
X108178569Y-108856215D01*
X108178569Y-108856215D02*
X108035712Y-108784786D01*
X108035712Y-108784786D02*
X107821426Y-108784786D01*
X107821426Y-108784786D02*
X107678569Y-108856215D01*
X107678569Y-108856215D02*
X107607140Y-108999072D01*
X107607140Y-108999072D02*
X107607140Y-109784786D01*
X105821426Y-108213358D02*
X107107140Y-110141929D01*
X105321426Y-108784786D02*
X105321426Y-109784786D01*
X105321426Y-108927643D02*
X105249997Y-108856215D01*
X105249997Y-108856215D02*
X105107140Y-108784786D01*
X105107140Y-108784786D02*
X104892854Y-108784786D01*
X104892854Y-108784786D02*
X104749997Y-108856215D01*
X104749997Y-108856215D02*
X104678569Y-108999072D01*
X104678569Y-108999072D02*
X104678569Y-109784786D01*
X103321426Y-108784786D02*
X103321426Y-109784786D01*
X103964283Y-108784786D02*
X103964283Y-109570500D01*
X103964283Y-109570500D02*
X103892854Y-109713358D01*
X103892854Y-109713358D02*
X103749997Y-109784786D01*
X103749997Y-109784786D02*
X103535711Y-109784786D01*
X103535711Y-109784786D02*
X103392854Y-109713358D01*
X103392854Y-109713358D02*
X103321426Y-109641929D01*
X102035711Y-109713358D02*
X102178568Y-109784786D01*
X102178568Y-109784786D02*
X102464283Y-109784786D01*
X102464283Y-109784786D02*
X102607140Y-109713358D01*
X102607140Y-109713358D02*
X102678568Y-109570500D01*
X102678568Y-109570500D02*
X102678568Y-108999072D01*
X102678568Y-108999072D02*
X102607140Y-108856215D01*
X102607140Y-108856215D02*
X102464283Y-108784786D01*
X102464283Y-108784786D02*
X102178568Y-108784786D01*
X102178568Y-108784786D02*
X102035711Y-108856215D01*
X102035711Y-108856215D02*
X101964283Y-108999072D01*
X101964283Y-108999072D02*
X101964283Y-109141929D01*
X101964283Y-109141929D02*
X102678568Y-109284786D01*
X101392854Y-109713358D02*
X101249997Y-109784786D01*
X101249997Y-109784786D02*
X100964283Y-109784786D01*
X100964283Y-109784786D02*
X100821426Y-109713358D01*
X100821426Y-109713358D02*
X100749997Y-109570500D01*
X100749997Y-109570500D02*
X100749997Y-109499072D01*
X100749997Y-109499072D02*
X100821426Y-109356215D01*
X100821426Y-109356215D02*
X100964283Y-109284786D01*
X100964283Y-109284786D02*
X101178569Y-109284786D01*
X101178569Y-109284786D02*
X101321426Y-109213358D01*
X101321426Y-109213358D02*
X101392854Y-109070500D01*
X101392854Y-109070500D02*
X101392854Y-108999072D01*
X101392854Y-108999072D02*
X101321426Y-108856215D01*
X101321426Y-108856215D02*
X101178569Y-108784786D01*
X101178569Y-108784786D02*
X100964283Y-108784786D01*
X100964283Y-108784786D02*
X100821426Y-108856215D01*
X100178568Y-109713358D02*
X100035711Y-109784786D01*
X100035711Y-109784786D02*
X99749997Y-109784786D01*
X99749997Y-109784786D02*
X99607140Y-109713358D01*
X99607140Y-109713358D02*
X99535711Y-109570500D01*
X99535711Y-109570500D02*
X99535711Y-109499072D01*
X99535711Y-109499072D02*
X99607140Y-109356215D01*
X99607140Y-109356215D02*
X99749997Y-109284786D01*
X99749997Y-109284786D02*
X99964283Y-109284786D01*
X99964283Y-109284786D02*
X100107140Y-109213358D01*
X100107140Y-109213358D02*
X100178568Y-109070500D01*
X100178568Y-109070500D02*
X100178568Y-108999072D01*
X100178568Y-108999072D02*
X100107140Y-108856215D01*
X100107140Y-108856215D02*
X99964283Y-108784786D01*
X99964283Y-108784786D02*
X99749997Y-108784786D01*
X99749997Y-108784786D02*
X99607140Y-108856215D01*
X98607139Y-108284786D02*
X98464282Y-108284786D01*
X98464282Y-108284786D02*
X98321425Y-108356215D01*
X98321425Y-108356215D02*
X98249997Y-108427643D01*
X98249997Y-108427643D02*
X98178568Y-108570500D01*
X98178568Y-108570500D02*
X98107139Y-108856215D01*
X98107139Y-108856215D02*
X98107139Y-109213358D01*
X98107139Y-109213358D02*
X98178568Y-109499072D01*
X98178568Y-109499072D02*
X98249997Y-109641929D01*
X98249997Y-109641929D02*
X98321425Y-109713358D01*
X98321425Y-109713358D02*
X98464282Y-109784786D01*
X98464282Y-109784786D02*
X98607139Y-109784786D01*
X98607139Y-109784786D02*
X98749997Y-109713358D01*
X98749997Y-109713358D02*
X98821425Y-109641929D01*
X98821425Y-109641929D02*
X98892854Y-109499072D01*
X98892854Y-109499072D02*
X98964282Y-109213358D01*
X98964282Y-109213358D02*
X98964282Y-108856215D01*
X98964282Y-108856215D02*
X98892854Y-108570500D01*
X98892854Y-108570500D02*
X98821425Y-108427643D01*
X98821425Y-108427643D02*
X98749997Y-108356215D01*
X98749997Y-108356215D02*
X98607139Y-108284786D01*
X97464283Y-109784786D02*
X97464283Y-108784786D01*
X97464283Y-109070500D02*
X97392854Y-108927643D01*
X97392854Y-108927643D02*
X97321426Y-108856215D01*
X97321426Y-108856215D02*
X97178568Y-108784786D01*
X97178568Y-108784786D02*
X97035711Y-108784786D01*
X95464283Y-108213358D02*
X96749997Y-110141929D01*
X94321426Y-109713358D02*
X94464283Y-109784786D01*
X94464283Y-109784786D02*
X94749997Y-109784786D01*
X94749997Y-109784786D02*
X94892854Y-109713358D01*
X94892854Y-109713358D02*
X94964283Y-109641929D01*
X94964283Y-109641929D02*
X95035711Y-109499072D01*
X95035711Y-109499072D02*
X95035711Y-109070500D01*
X95035711Y-109070500D02*
X94964283Y-108927643D01*
X94964283Y-108927643D02*
X94892854Y-108856215D01*
X94892854Y-108856215D02*
X94749997Y-108784786D01*
X94749997Y-108784786D02*
X94464283Y-108784786D01*
X94464283Y-108784786D02*
X94321426Y-108856215D01*
X93892854Y-108784786D02*
X93321426Y-108784786D01*
X93678569Y-108284786D02*
X93678569Y-109570500D01*
X93678569Y-109570500D02*
X93607140Y-109713358D01*
X93607140Y-109713358D02*
X93464283Y-109784786D01*
X93464283Y-109784786D02*
X93321426Y-109784786D01*
X92821426Y-109784786D02*
X92821426Y-108784786D01*
X92821426Y-109070500D02*
X92749997Y-108927643D01*
X92749997Y-108927643D02*
X92678569Y-108856215D01*
X92678569Y-108856215D02*
X92535711Y-108784786D01*
X92535711Y-108784786D02*
X92392854Y-108784786D01*
X91678569Y-109784786D02*
X91821426Y-109713358D01*
X91821426Y-109713358D02*
X91892855Y-109570500D01*
X91892855Y-109570500D02*
X91892855Y-108284786D01*
X91107141Y-109213358D02*
X89964284Y-109213358D01*
X89249998Y-109784786D02*
X89249998Y-108284786D01*
X89249998Y-108284786D02*
X88749998Y-109356215D01*
X88749998Y-109356215D02*
X88249998Y-108284786D01*
X88249998Y-108284786D02*
X88249998Y-109784786D01*
D10*
D11*
X97155712Y-102520185D02*
X97084284Y-102448757D01*
X97084284Y-102448757D02*
X96941427Y-102377328D01*
X96941427Y-102377328D02*
X96584284Y-102377328D01*
X96584284Y-102377328D02*
X96441427Y-102448757D01*
X96441427Y-102448757D02*
X96369998Y-102520185D01*
X96369998Y-102520185D02*
X96298569Y-102663042D01*
X96298569Y-102663042D02*
X96298569Y-102805900D01*
X96298569Y-102805900D02*
X96369998Y-103020185D01*
X96369998Y-103020185D02*
X97227141Y-103877328D01*
X97227141Y-103877328D02*
X96298569Y-103877328D01*
X95369998Y-102377328D02*
X95227141Y-102377328D01*
X95227141Y-102377328D02*
X95084284Y-102448757D01*
X95084284Y-102448757D02*
X95012856Y-102520185D01*
X95012856Y-102520185D02*
X94941427Y-102663042D01*
X94941427Y-102663042D02*
X94869998Y-102948757D01*
X94869998Y-102948757D02*
X94869998Y-103305900D01*
X94869998Y-103305900D02*
X94941427Y-103591614D01*
X94941427Y-103591614D02*
X95012856Y-103734471D01*
X95012856Y-103734471D02*
X95084284Y-103805900D01*
X95084284Y-103805900D02*
X95227141Y-103877328D01*
X95227141Y-103877328D02*
X95369998Y-103877328D01*
X95369998Y-103877328D02*
X95512856Y-103805900D01*
X95512856Y-103805900D02*
X95584284Y-103734471D01*
X95584284Y-103734471D02*
X95655713Y-103591614D01*
X95655713Y-103591614D02*
X95727141Y-103305900D01*
X95727141Y-103305900D02*
X95727141Y-102948757D01*
X95727141Y-102948757D02*
X95655713Y-102663042D01*
X95655713Y-102663042D02*
X95584284Y-102520185D01*
X95584284Y-102520185D02*
X95512856Y-102448757D01*
X95512856Y-102448757D02*
X95369998Y-102377328D01*
X94298570Y-102520185D02*
X94227142Y-102448757D01*
X94227142Y-102448757D02*
X94084285Y-102377328D01*
X94084285Y-102377328D02*
X93727142Y-102377328D01*
X93727142Y-102377328D02*
X93584285Y-102448757D01*
X93584285Y-102448757D02*
X93512856Y-102520185D01*
X93512856Y-102520185D02*
X93441427Y-102663042D01*
X93441427Y-102663042D02*
X93441427Y-102805900D01*
X93441427Y-102805900D02*
X93512856Y-103020185D01*
X93512856Y-103020185D02*
X94369999Y-103877328D01*
X94369999Y-103877328D02*
X93441427Y-103877328D01*
X92155714Y-102377328D02*
X92441428Y-102377328D01*
X92441428Y-102377328D02*
X92584285Y-102448757D01*
X92584285Y-102448757D02*
X92655714Y-102520185D01*
X92655714Y-102520185D02*
X92798571Y-102734471D01*
X92798571Y-102734471D02*
X92869999Y-103020185D01*
X92869999Y-103020185D02*
X92869999Y-103591614D01*
X92869999Y-103591614D02*
X92798571Y-103734471D01*
X92798571Y-103734471D02*
X92727142Y-103805900D01*
X92727142Y-103805900D02*
X92584285Y-103877328D01*
X92584285Y-103877328D02*
X92298571Y-103877328D01*
X92298571Y-103877328D02*
X92155714Y-103805900D01*
X92155714Y-103805900D02*
X92084285Y-103734471D01*
X92084285Y-103734471D02*
X92012856Y-103591614D01*
X92012856Y-103591614D02*
X92012856Y-103234471D01*
X92012856Y-103234471D02*
X92084285Y-103091614D01*
X92084285Y-103091614D02*
X92155714Y-103020185D01*
X92155714Y-103020185D02*
X92298571Y-102948757D01*
X92298571Y-102948757D02*
X92584285Y-102948757D01*
X92584285Y-102948757D02*
X92727142Y-103020185D01*
X92727142Y-103020185D02*
X92798571Y-103091614D01*
X92798571Y-103091614D02*
X92869999Y-103234471D01*
X90298571Y-102305900D02*
X91584285Y-104234471D01*
X89512856Y-102377328D02*
X89369999Y-102377328D01*
X89369999Y-102377328D02*
X89227142Y-102448757D01*
X89227142Y-102448757D02*
X89155714Y-102520185D01*
X89155714Y-102520185D02*
X89084285Y-102663042D01*
X89084285Y-102663042D02*
X89012856Y-102948757D01*
X89012856Y-102948757D02*
X89012856Y-103305900D01*
X89012856Y-103305900D02*
X89084285Y-103591614D01*
X89084285Y-103591614D02*
X89155714Y-103734471D01*
X89155714Y-103734471D02*
X89227142Y-103805900D01*
X89227142Y-103805900D02*
X89369999Y-103877328D01*
X89369999Y-103877328D02*
X89512856Y-103877328D01*
X89512856Y-103877328D02*
X89655714Y-103805900D01*
X89655714Y-103805900D02*
X89727142Y-103734471D01*
X89727142Y-103734471D02*
X89798571Y-103591614D01*
X89798571Y-103591614D02*
X89869999Y-103305900D01*
X89869999Y-103305900D02*
X89869999Y-102948757D01*
X89869999Y-102948757D02*
X89798571Y-102663042D01*
X89798571Y-102663042D02*
X89727142Y-102520185D01*
X89727142Y-102520185D02*
X89655714Y-102448757D01*
X89655714Y-102448757D02*
X89512856Y-102377328D01*
X88441428Y-102520185D02*
X88370000Y-102448757D01*
X88370000Y-102448757D02*
X88227143Y-102377328D01*
X88227143Y-102377328D02*
X87870000Y-102377328D01*
X87870000Y-102377328D02*
X87727143Y-102448757D01*
X87727143Y-102448757D02*
X87655714Y-102520185D01*
X87655714Y-102520185D02*
X87584285Y-102663042D01*
X87584285Y-102663042D02*
X87584285Y-102805900D01*
X87584285Y-102805900D02*
X87655714Y-103020185D01*
X87655714Y-103020185D02*
X88512857Y-103877328D01*
X88512857Y-103877328D02*
X87584285Y-103877328D01*
D12*
X130000000Y-101999000D03*
D13*
X127460000Y-101999000D03*
X124920000Y-101999000D03*
X122380000Y-101999000D03*
X119840000Y-101999000D03*
X117300000Y-101999000D03*
X114760000Y-101999000D03*
X112220000Y-101999000D03*
D12*
X81070000Y-85000000D03*
D13*
X83570000Y-85000000D03*
X83570000Y-83000000D03*
X81070000Y-83000000D03*
D14*
X76300000Y-80290000D03*
X88340000Y-80290000D03*
D15*
X109347000Y-92964000D03*
D16*
X108077000Y-92964000D03*
X109347000Y-91694000D03*
X108077000Y-91694000D03*
X109347000Y-90424000D03*
X108077000Y-90424000D03*
X109347000Y-89154000D03*
X108077000Y-89154000D03*
X109347000Y-87884000D03*
X108077000Y-87884000D03*
D12*
X152600000Y-80000000D03*
D17*
X150060000Y-80000000D03*
X147520000Y-80000000D03*
X144980000Y-80000000D03*
X142440000Y-80000000D03*
X139900000Y-80000000D03*
X137360000Y-80000000D03*
X134820000Y-80000000D03*
X132280000Y-80000000D03*
X129740000Y-80000000D03*
X127200000Y-80000000D03*
X124660000Y-80000000D03*
X122120000Y-80000000D03*
X119580000Y-80000000D03*
X117040000Y-80000000D03*
X114500000Y-80000000D03*
D12*
X170400000Y-82000000D03*
D17*
X172940000Y-82000000D03*
X175480000Y-82000000D03*
X178020000Y-82000000D03*
X180560000Y-82000000D03*
X183100000Y-82000000D03*
X185640000Y-82000000D03*
X188180000Y-82000000D03*
X190720000Y-82000000D03*
X193260000Y-82000000D03*
X195800000Y-82000000D03*
X198340000Y-82000000D03*
D12*
X201880000Y-82000000D03*
D17*
X204420000Y-82000000D03*
X206960000Y-82000000D03*
X209500000Y-82000000D03*
D18*
X215500000Y-93920000D03*
X215500000Y-99000000D03*
X64000000Y-109749000D03*
X64000000Y-104669000D03*
X78060000Y-101000000D03*
X83140000Y-101000000D03*
D12*
X221000000Y-99822000D03*
D17*
X221000000Y-102362000D03*
X221000000Y-104902000D03*
X221000000Y-107442000D03*
D12*
X113284000Y-85059000D03*
D17*
X113284000Y-87599000D03*
X113284000Y-90139000D03*
X113284000Y-92679000D03*
X113284000Y-95219000D03*
D18*
X83140000Y-110469000D03*
X78060000Y-110469000D03*
D12*
X207270000Y-92269000D03*
D17*
X207270000Y-89729000D03*
X207270000Y-87189000D03*
X207270000Y-84649000D03*
D19*
X92400000Y-76769000D03*
X92400000Y-84389000D03*
D20*
X68000000Y-120300000D03*
X226000000Y-120500000D03*
D21*
X72470000Y-80169000D03*
X96500000Y-80199000D03*
D22*
X87900000Y-87000000D03*
D23*
X133536500Y-101289000D03*
X135111500Y-101289000D03*
D24*
X124900000Y-95250000D03*
X124900000Y-93675000D03*
X108728000Y-82558000D03*
X108728000Y-80983000D03*
D25*
X178076500Y-96748500D03*
X178076500Y-98323500D03*
D26*
X132902788Y-89301124D03*
X133256342Y-89654678D03*
X133609895Y-90008231D03*
X133963449Y-90361785D03*
X134317002Y-90715338D03*
X134670555Y-91068891D03*
X135024109Y-91422445D03*
X135377662Y-91775998D03*
X135731215Y-92129551D03*
X136084769Y-92483105D03*
X136438322Y-92836658D03*
X136791876Y-93190212D03*
D27*
X136791876Y-95187788D03*
X136438322Y-95541342D03*
X136084769Y-95894895D03*
X135731215Y-96248449D03*
X135377662Y-96602002D03*
X135024109Y-96955555D03*
X134670555Y-97309109D03*
X134317002Y-97662662D03*
X133963449Y-98016215D03*
X133609895Y-98369769D03*
X133256342Y-98723322D03*
X132902788Y-99076876D03*
D26*
X130905212Y-99076876D03*
X130551658Y-98723322D03*
X130198105Y-98369769D03*
X129844551Y-98016215D03*
X129490998Y-97662662D03*
X129137445Y-97309109D03*
X128783891Y-96955555D03*
X128430338Y-96602002D03*
X128076785Y-96248449D03*
X127723231Y-95894895D03*
X127369678Y-95541342D03*
X127016124Y-95187788D03*
D27*
X127016124Y-93190212D03*
X127369678Y-92836658D03*
X127723231Y-92483105D03*
X128076785Y-92129551D03*
X128430338Y-91775998D03*
X128783891Y-91422445D03*
X129137445Y-91068891D03*
X129490998Y-90715338D03*
X129844551Y-90361785D03*
X130198105Y-90008231D03*
X130551658Y-89654678D03*
X130905212Y-89301124D03*
D25*
X123320000Y-91211500D03*
X123320000Y-92786500D03*
X174774500Y-97891500D03*
X174774500Y-99466500D03*
X179664000Y-98399500D03*
X179664000Y-99974500D03*
D24*
X138811000Y-89789000D03*
X138811000Y-88214000D03*
D28*
X85471000Y-92329000D03*
X84521000Y-92329000D03*
X83571000Y-92329000D03*
X83571000Y-90129000D03*
X84521000Y-90129000D03*
X85471000Y-90129000D03*
D24*
X131924000Y-87289000D03*
X131924000Y-85714000D03*
D29*
X64330000Y-77499000D03*
X216340000Y-112529000D03*
X117400000Y-94219000D03*
D30*
X106050000Y-102469000D03*
D31*
X105962500Y-100969000D03*
D30*
X106050000Y-99469000D03*
D24*
X100500000Y-99381500D03*
X100500000Y-100956500D03*
D32*
X98500000Y-99331500D03*
X98500000Y-101206500D03*
D33*
X108495000Y-104267000D03*
X108495000Y-102392000D03*
D34*
X184600000Y-112549000D03*
X187200000Y-112549000D03*
X153050000Y-112549000D03*
X102350000Y-112549000D03*
X207850000Y-112549000D03*
X130550000Y-112549000D03*
X104950000Y-112549000D03*
X185900000Y-112549000D03*
X155650000Y-112549000D03*
X209150000Y-112549000D03*
X103650000Y-112549000D03*
X206550000Y-112549000D03*
X129250000Y-112549000D03*
X154350000Y-112549000D03*
X127950000Y-112549000D03*
X96700000Y-99369000D03*
X101900000Y-99069000D03*
X106590000Y-104267000D03*
X107900000Y-99469000D03*
X84840000Y-93869000D03*
X136779000Y-101536500D03*
X131826000Y-91059000D03*
X210510000Y-79799000D03*
X133915328Y-93227010D03*
X133500001Y-86299001D03*
X123480000Y-94099000D03*
X129022064Y-94423520D03*
X131889500Y-97091500D03*
X110070000Y-82669000D03*
X139965501Y-87364501D03*
X210500000Y-106999000D03*
X140462000Y-102616000D03*
X204499998Y-102500000D03*
X121666022Y-89281000D03*
X121666000Y-91844996D03*
X140462000Y-89281000D03*
X130302000Y-87249000D03*
X193230500Y-102500000D03*
X66500000Y-112549000D03*
X65200000Y-112549000D03*
X210600000Y-117379000D03*
X63900000Y-112549000D03*
X78065010Y-112709000D03*
X127560000Y-83439000D03*
X115869986Y-82869000D03*
X210460000Y-104019000D03*
X176616002Y-98361500D03*
X210490000Y-105499000D03*
X132070007Y-100868993D03*
X133870014Y-102669000D03*
X176616000Y-101282500D03*
X210440000Y-102599000D03*
D35*
X87020000Y-99269000D02*
X94000000Y-99269000D01*
X129000000Y-103999000D02*
X130000000Y-103999000D01*
X130000000Y-101999000D02*
X130000000Y-103999000D01*
X106050000Y-102469000D02*
X106054000Y-102473000D01*
X106054000Y-102473000D02*
X109681000Y-102473000D01*
X109681000Y-102473000D02*
X111207000Y-103999000D01*
X111207000Y-103999000D02*
X129000000Y-103999000D01*
D36*
X127240446Y-98499000D02*
X120000000Y-98499000D01*
X120000000Y-98499000D02*
X118260000Y-98499000D01*
X118260000Y-98499000D02*
X114760000Y-101999000D01*
X128166874Y-100401000D02*
X126518000Y-100401000D01*
X126518000Y-100401000D02*
X124920000Y-101999000D01*
X127910766Y-99950000D02*
X125000000Y-99950000D01*
X125000000Y-99950000D02*
X124429000Y-99950000D01*
X124429000Y-99950000D02*
X122380000Y-101999000D01*
X127654660Y-99499000D02*
X123000000Y-99499000D01*
X123000000Y-99499000D02*
X122340000Y-99499000D01*
X122340000Y-99499000D02*
X119840000Y-101999000D01*
X121000000Y-98950000D02*
X120349000Y-98950000D01*
X120349000Y-98950000D02*
X117300000Y-101999000D01*
X130551658Y-98723322D02*
X127460000Y-101814980D01*
X127460000Y-101814980D02*
X127460000Y-101999000D01*
X130551658Y-98723322D02*
X130551658Y-98757264D01*
X128166874Y-100401000D02*
X130198105Y-98369769D01*
X129844551Y-98016215D02*
X127910766Y-99950000D01*
X129490998Y-97662662D02*
X127654660Y-99499000D01*
X121000000Y-98950000D02*
X127496554Y-98950000D01*
X127496554Y-98950000D02*
X129137445Y-97309109D01*
X128783891Y-96955555D02*
X127240446Y-98499000D01*
D35*
X130000000Y-103999000D02*
X132439992Y-103999000D01*
X132439992Y-103999000D02*
X132469996Y-103968996D01*
X140462000Y-102616000D02*
X139079000Y-103999000D01*
X132500000Y-103999000D02*
X132469996Y-103968996D01*
X139079000Y-103999000D02*
X132500000Y-103999000D01*
X132469996Y-103968996D02*
X132469996Y-102269004D01*
X132469996Y-102269004D02*
X133450000Y-101289000D01*
X133450000Y-101289000D02*
X133536500Y-101289000D01*
X107579949Y-104267000D02*
X106590000Y-104267000D01*
X135111500Y-101289000D02*
X136531500Y-101289000D01*
X96737500Y-99331500D02*
X96700000Y-99369000D01*
X131889500Y-97091500D02*
X131889500Y-97356480D01*
X138811000Y-88214000D02*
X139116002Y-88214000D01*
X108495000Y-104267000D02*
X107579949Y-104267000D01*
X128703584Y-94742000D02*
X129022064Y-94423520D01*
D36*
X130551658Y-89654678D02*
X131826000Y-90929020D01*
D35*
X100500000Y-99381500D02*
X100812500Y-99069000D01*
X132915000Y-85714000D02*
X133500001Y-86299001D01*
D36*
X133212020Y-98679000D02*
X133223000Y-98679000D01*
X131826000Y-90929020D02*
X131826000Y-91059000D01*
X128016000Y-94869000D02*
X127381000Y-95504000D01*
D35*
X131826000Y-91059000D02*
X131294606Y-90527606D01*
X128397000Y-94742000D02*
X128703584Y-94742000D01*
X123480000Y-93979000D02*
X123480000Y-93039000D01*
X131924000Y-85714000D02*
X132915000Y-85714000D01*
D36*
X135366340Y-91775998D02*
X134615327Y-92527011D01*
D35*
X84521000Y-93550000D02*
X84840000Y-93869000D01*
X98500000Y-99331500D02*
X96737500Y-99331500D01*
X131889500Y-97091500D02*
X131889500Y-97345500D01*
X136531500Y-101289000D02*
X136779000Y-101536500D01*
X123480000Y-94099000D02*
X124500000Y-94099000D01*
X131889500Y-97345500D02*
X132334000Y-97790000D01*
X100812500Y-99069000D02*
X101900000Y-99069000D01*
X124500000Y-94099000D02*
X124900000Y-93699000D01*
D36*
X128270993Y-94869000D02*
X128016000Y-94869000D01*
D35*
X84521000Y-92329000D02*
X84521000Y-93550000D01*
D36*
X132334000Y-97790000D02*
X133212020Y-98679000D01*
D35*
X139116002Y-88214000D02*
X139965501Y-87364501D01*
X110035000Y-82634000D02*
X110070000Y-82669000D01*
X106050000Y-99469000D02*
X107900000Y-99469000D01*
D36*
X131889500Y-97356480D02*
X132334000Y-97790000D01*
X135377662Y-91775998D02*
X135366340Y-91775998D01*
D35*
X108728000Y-82634000D02*
X110035000Y-82634000D01*
D36*
X134615327Y-92527011D02*
X133915328Y-93227010D01*
D35*
X123480000Y-93039000D02*
X123320000Y-92879000D01*
X84521000Y-90934002D02*
X84184001Y-91271001D01*
X100500000Y-100956500D02*
X105950000Y-100956500D01*
X94000000Y-99269000D02*
X95900000Y-101169000D01*
X98462500Y-101169000D02*
X98500000Y-101206500D01*
X105950000Y-100956500D02*
X105962500Y-100969000D01*
X84521000Y-90129000D02*
X84521000Y-90934002D01*
X81873001Y-91271001D02*
X81873001Y-94122001D01*
X98500000Y-101206500D02*
X100250000Y-101206500D01*
X84184001Y-91271001D02*
X81873001Y-91271001D01*
X95900000Y-101169000D02*
X98462500Y-101169000D01*
X81070000Y-90468000D02*
X81873001Y-91271001D01*
X100250000Y-101206500D02*
X100500000Y-100956500D01*
X81873001Y-94122001D02*
X87020000Y-99269000D01*
X81070000Y-85000000D02*
X81070000Y-90468000D01*
X200123000Y-102616000D02*
X140462000Y-102616000D01*
X131924000Y-88294000D02*
X131017117Y-89200883D01*
X133198015Y-99621429D02*
X133198015Y-99584249D01*
X210500000Y-106999000D02*
X208998998Y-106999000D01*
X204420000Y-86879000D02*
X204420000Y-82000000D01*
X131924000Y-87289000D02*
X130342000Y-87289000D01*
X130342000Y-87289000D02*
X130302000Y-87249000D01*
X139954000Y-89789000D02*
X140462000Y-89281000D01*
D36*
X136525000Y-91059000D02*
X136525000Y-91300426D01*
D35*
X110446000Y-92964000D02*
X112011000Y-91399000D01*
X121666000Y-91844996D02*
X114913496Y-91844996D01*
X121666000Y-94055000D02*
X121666000Y-91844996D01*
X137795000Y-89789000D02*
X136779000Y-90805000D01*
X109347000Y-92964000D02*
X110446000Y-92964000D01*
X133536500Y-99922734D02*
X132796715Y-99182949D01*
X93070000Y-85059000D02*
X113284000Y-85059000D01*
D36*
X136525000Y-91300426D02*
X135763000Y-92062426D01*
D35*
X113284000Y-85059000D02*
X117444022Y-85059000D01*
D36*
X135763000Y-92062426D02*
X135763000Y-92075000D01*
D35*
X132756051Y-89195051D02*
X132796715Y-89195051D01*
X221000000Y-102362000D02*
X222213000Y-102362000D01*
X92400000Y-84389000D02*
X93070000Y-85059000D01*
X114913496Y-91844996D02*
X114467500Y-91399000D01*
X136779000Y-90805000D02*
X136525000Y-91059000D01*
D37*
X114467500Y-91399000D02*
X113832500Y-91399000D01*
D35*
X126712766Y-95279000D02*
X122890000Y-95279000D01*
X138811000Y-89789000D02*
X137795000Y-89789000D01*
X221640000Y-109469000D02*
X219570000Y-109469000D01*
X138811000Y-89789000D02*
X139954000Y-89789000D01*
X207270000Y-89729000D02*
X204420000Y-86879000D01*
X131924000Y-88363000D02*
X132756051Y-89195051D01*
X223400000Y-107709000D02*
X221640000Y-109469000D01*
X217100000Y-106999000D02*
X208998998Y-106999000D01*
X131924000Y-87289000D02*
X131924000Y-88363000D01*
X131924000Y-87289000D02*
X131924000Y-88294000D01*
X219570000Y-109469000D02*
X217100000Y-106999000D01*
D37*
X113789000Y-91399000D02*
X112011000Y-91399000D01*
D35*
X208998998Y-106999000D02*
X204499998Y-102500000D01*
X133536500Y-101289000D02*
X133536500Y-99922734D01*
X223400000Y-103549000D02*
X223400000Y-107709000D01*
X204383998Y-102616000D02*
X200123000Y-102616000D01*
X117444022Y-85059000D02*
X121666022Y-89281000D01*
X126803978Y-95187788D02*
X126712766Y-95279000D01*
X222213000Y-102362000D02*
X223400000Y-103549000D01*
X122890000Y-95279000D02*
X121666000Y-94055000D01*
D36*
X135024109Y-91422445D02*
X134244554Y-92202000D01*
X123300000Y-91199000D02*
X123200000Y-91199000D01*
X113284000Y-90139000D02*
X109814000Y-86669000D01*
X132461000Y-92202000D02*
X131318000Y-93345000D01*
X108077000Y-87069000D02*
X108077000Y-87884000D01*
X123200000Y-91199000D02*
X122810000Y-90809000D01*
X134244554Y-92202000D02*
X132461000Y-92202000D01*
X128651000Y-93345000D02*
X127827000Y-94169000D01*
X113284000Y-90139000D02*
X118694502Y-90139000D01*
X109680000Y-86669000D02*
X108477000Y-86669000D01*
X123900000Y-91799000D02*
X123300000Y-91199000D01*
X126740000Y-94169000D02*
X124370000Y-91799000D01*
X119364501Y-90809000D02*
X118727251Y-90171749D01*
X124370000Y-91799000D02*
X123900000Y-91799000D01*
X108477000Y-86669000D02*
X108077000Y-87069000D01*
X131318000Y-93345000D02*
X128651000Y-93345000D01*
X127827000Y-94169000D02*
X126740000Y-94169000D01*
X118694502Y-90139000D02*
X118727251Y-90171749D01*
X109814000Y-86669000D02*
X109680000Y-86669000D01*
X122810000Y-90809000D02*
X119364501Y-90809000D01*
D38*
X86590001Y-78540001D02*
X88340000Y-80290000D01*
X83140000Y-110469000D02*
X78060000Y-110469000D01*
X72470000Y-80169000D02*
X76179000Y-80169000D01*
X77978000Y-104669000D02*
X77978000Y-101082000D01*
X76179000Y-80169000D02*
X76300000Y-80290000D01*
X65751000Y-104669000D02*
X77978000Y-104669000D01*
X78060000Y-101000000D02*
X77100001Y-100040001D01*
X78848617Y-117344010D02*
X78065010Y-116560403D01*
X83140000Y-101000000D02*
X78060000Y-101000000D01*
X78049999Y-78540001D02*
X86590001Y-78540001D01*
X215500000Y-99000000D02*
X215500000Y-93920000D01*
X226700000Y-109690920D02*
X219046910Y-117344010D01*
X222190000Y-93920000D02*
X226700000Y-98430000D01*
X226700000Y-98430000D02*
X226700000Y-109690920D01*
X78065010Y-116560403D02*
X78065010Y-110474010D01*
X77978000Y-101082000D02*
X78060000Y-101000000D01*
X78060000Y-110469000D02*
X78060000Y-101000000D01*
X65751000Y-104669000D02*
X64000000Y-104669000D01*
X219046910Y-117344010D02*
X78848617Y-117344010D01*
X215500000Y-93920000D02*
X222190000Y-93920000D01*
X64000000Y-104669000D02*
X64000000Y-109417786D01*
X77100001Y-79489999D02*
X78049999Y-78540001D01*
X78065010Y-110474010D02*
X78060000Y-110469000D01*
X77100001Y-100040001D02*
X77100001Y-79489999D01*
D36*
X83571000Y-90129000D02*
X83571000Y-85001000D01*
X83571000Y-85001000D02*
X83570000Y-85000000D01*
X85471000Y-84901000D02*
X83570000Y-83000000D01*
X85471000Y-90129000D02*
X85471000Y-84901000D01*
X111594000Y-94369000D02*
X113284000Y-92679000D01*
X113284000Y-92679000D02*
X118206000Y-92679000D01*
X127000000Y-96647000D02*
X122174000Y-96647000D01*
X108466000Y-94369000D02*
X108077000Y-93980000D01*
X127155283Y-96491717D02*
X127000000Y-96647000D01*
X108077000Y-93980000D02*
X108077000Y-92964000D01*
X111117000Y-94369000D02*
X108466000Y-94369000D01*
X122174000Y-96647000D02*
X118338000Y-92811000D01*
X127723231Y-95894895D02*
X127155283Y-96462843D01*
X118206000Y-92679000D02*
X118338000Y-92811000D01*
X111117000Y-94369000D02*
X111594000Y-94369000D01*
X127155283Y-96462843D02*
X127155283Y-96491717D01*
X113284000Y-87599000D02*
X117698000Y-87599000D01*
X107577001Y-91194001D02*
X108077000Y-91694000D01*
X106570000Y-90187000D02*
X107577001Y-91194001D01*
X110930000Y-85869000D02*
X108070000Y-85869000D01*
X106570000Y-87369000D02*
X106570000Y-90187000D01*
X120368000Y-90269000D02*
X118049000Y-87950000D01*
X126991212Y-93190212D02*
X124070000Y-90269000D01*
X108070000Y-85869000D02*
X106570000Y-87369000D01*
X113284000Y-87599000D02*
X111554000Y-85869000D01*
X111554000Y-85869000D02*
X110930000Y-85869000D01*
X124070000Y-90269000D02*
X120368000Y-90269000D01*
X117698000Y-87599000D02*
X118049000Y-87950000D01*
X127016124Y-93190212D02*
X126991212Y-93190212D01*
X114470000Y-82869000D02*
X112584000Y-80983000D01*
X127560000Y-88784340D02*
X127560000Y-84287528D01*
X127560000Y-84287528D02*
X127560000Y-83439000D01*
X115869986Y-82869000D02*
X114470000Y-82869000D01*
X101534000Y-76769000D02*
X92400000Y-76769000D01*
X129490998Y-90715338D02*
X127560000Y-88784340D01*
X105748000Y-80983000D02*
X101534000Y-76769000D01*
X108728000Y-80983000D02*
X105748000Y-80983000D01*
X93050000Y-77050000D02*
X93089000Y-77050000D01*
X92400000Y-76400000D02*
X93050000Y-77050000D01*
X92400000Y-77050000D02*
X93089000Y-77050000D01*
X112584000Y-80983000D02*
X108728000Y-80983000D01*
X152600000Y-80064000D02*
X140295000Y-92369000D01*
X140295000Y-92369000D02*
X137628000Y-92369000D01*
X152600000Y-80000000D02*
X152600000Y-80064000D01*
X137628000Y-92369000D02*
X136806788Y-93190212D01*
X136806788Y-93190212D02*
X136791876Y-93190212D01*
X137580980Y-91694000D02*
X136438322Y-92836658D01*
X140202415Y-91694000D02*
X137580980Y-91694000D01*
X142367000Y-87693000D02*
X142367000Y-89529415D01*
X150060000Y-80000000D02*
X142367000Y-87693000D01*
X142367000Y-89529415D02*
X140202415Y-91694000D01*
X137542411Y-91059000D02*
X136118306Y-92483105D01*
X136118306Y-92483105D02*
X136084769Y-92483105D01*
X147520000Y-80000000D02*
X141605000Y-85915000D01*
X141605000Y-89534000D02*
X140080000Y-91059000D01*
X141605000Y-85915000D02*
X141605000Y-89534000D01*
X136084769Y-92483105D02*
X136090889Y-92483105D01*
X140080000Y-91059000D02*
X137542411Y-91059000D01*
X144980000Y-80000000D02*
X144980000Y-80759446D01*
X136605030Y-89134416D02*
X134670555Y-91068891D01*
X144980000Y-80759446D02*
X136605030Y-89134416D01*
X142440000Y-82592340D02*
X136155022Y-88877318D01*
X136155022Y-88877318D02*
X134317002Y-90715338D01*
X142440000Y-80000000D02*
X142440000Y-82592340D01*
X139900000Y-84425234D02*
X135705011Y-88620223D01*
X133963449Y-90361785D02*
X135705011Y-88620223D01*
X139900000Y-80000000D02*
X139900000Y-84425234D01*
X133609895Y-89972891D02*
X133609895Y-90008231D01*
X137360000Y-80000000D02*
X137360000Y-86222786D01*
X137360000Y-86222786D02*
X133609895Y-89972891D01*
X133256342Y-89654678D02*
X134820000Y-88091020D01*
X134820000Y-88091020D02*
X134820000Y-80000000D01*
X129276998Y-82940002D02*
X129276998Y-89087124D01*
X132280000Y-80000000D02*
X132217000Y-80000000D01*
X129276998Y-89087124D02*
X130198105Y-90008231D01*
X132217000Y-80000000D02*
X129276998Y-82940002D01*
X128651000Y-81089000D02*
X128890001Y-80849999D01*
X128651000Y-89168234D02*
X128651000Y-81089000D01*
X128890001Y-80849999D02*
X129740000Y-80000000D01*
X129844551Y-90361785D02*
X128651000Y-89168234D01*
X129137445Y-91068891D02*
X126350001Y-88281447D01*
X126350001Y-80849999D02*
X127200000Y-80000000D01*
X126350001Y-88281447D02*
X126350001Y-80849999D01*
X128783891Y-91422445D02*
X124660000Y-87298554D01*
X124660000Y-87298554D02*
X124660000Y-80000000D01*
X128430338Y-91775998D02*
X122120000Y-85465660D01*
X122120000Y-85465660D02*
X122120000Y-80000000D01*
X125349000Y-89401766D02*
X128076785Y-92129551D01*
X119580000Y-80000000D02*
X119580000Y-83632766D01*
X119580000Y-83632766D02*
X125349000Y-89401766D01*
X124714000Y-89473874D02*
X127723231Y-92483105D01*
X117040000Y-80000000D02*
X117040000Y-81799874D01*
X117040000Y-81799874D02*
X124714000Y-89473874D01*
X114500000Y-80000000D02*
X127336658Y-92836658D01*
X127336658Y-92836658D02*
X127369678Y-92836658D01*
X156781000Y-95758000D02*
X137414000Y-95758000D01*
X170400000Y-82000000D02*
X170400000Y-82139000D01*
X137414000Y-95758000D02*
X136843788Y-95187788D01*
X170400000Y-82139000D02*
X156781000Y-95758000D01*
X136843788Y-95187788D02*
X136791876Y-95187788D01*
X172940000Y-82076000D02*
X158750000Y-96266000D01*
X158750000Y-96266000D02*
X137162980Y-96266000D01*
X172940000Y-82000000D02*
X172940000Y-82076000D01*
X137162980Y-96266000D02*
X136438322Y-95541342D01*
X174630001Y-82849999D02*
X175480000Y-82000000D01*
X160706000Y-96774000D02*
X174630001Y-82849999D01*
X136084769Y-95894895D02*
X136963874Y-96774000D01*
X136963874Y-96774000D02*
X160706000Y-96774000D01*
X178020000Y-82000000D02*
X162738000Y-97282000D01*
X162738000Y-97282000D02*
X136764766Y-97282000D01*
X136764766Y-97282000D02*
X135731215Y-96248449D01*
X180560000Y-82000000D02*
X164770000Y-97790000D01*
X164770000Y-97790000D02*
X136565660Y-97790000D01*
X136565660Y-97790000D02*
X135377662Y-96602002D01*
X166802000Y-98298000D02*
X136366554Y-98298000D01*
X136366554Y-98298000D02*
X135024109Y-96955555D01*
X183100000Y-82000000D02*
X166802000Y-98298000D01*
X168783000Y-98806000D02*
X136167446Y-98806000D01*
X136167446Y-98806000D02*
X134670555Y-97309109D01*
X185640000Y-82000000D02*
X185589000Y-82000000D01*
X185589000Y-82000000D02*
X168783000Y-98806000D01*
X135968340Y-99314000D02*
X134317002Y-97662662D01*
X170815000Y-99314000D02*
X135968340Y-99314000D01*
X188129000Y-82000000D02*
X170815000Y-99314000D01*
X188180000Y-82000000D02*
X188129000Y-82000000D01*
X179664000Y-99974500D02*
X179664000Y-100330000D01*
X133609895Y-98369769D02*
X135570126Y-100330000D01*
X205431000Y-100330000D02*
X209130000Y-104029000D01*
X209130000Y-104029000D02*
X218680000Y-104029000D01*
X135570126Y-100330000D02*
X205431000Y-100330000D01*
X218680000Y-104029000D02*
X219553000Y-104902000D01*
X219553000Y-104902000D02*
X221000000Y-104902000D01*
X137325752Y-102669000D02*
X133870014Y-102669000D01*
X177323106Y-101282500D02*
X176616000Y-101282500D01*
X130905212Y-99076876D02*
X132070007Y-100241671D01*
X209300000Y-105499000D02*
X205083500Y-101282500D01*
X178457500Y-101282500D02*
X177323106Y-101282500D01*
X205083500Y-101282500D02*
X138712252Y-101282500D01*
X132070007Y-100241671D02*
X132070007Y-100868993D01*
X178076500Y-98361500D02*
X176616002Y-98361500D01*
X210490000Y-105499000D02*
X209300000Y-105499000D01*
X138712252Y-101282500D02*
X137325752Y-102669000D01*
X174774500Y-99441000D02*
X174393500Y-99822000D01*
X218750000Y-102599000D02*
X219800000Y-103649000D01*
X178237389Y-99822000D02*
X178872389Y-99187000D01*
X209000000Y-102599000D02*
X218750000Y-102599000D01*
X178872389Y-99187000D02*
X205588000Y-99187000D01*
X174752000Y-99822000D02*
X135769234Y-99822000D01*
X222600000Y-104299000D02*
X222600000Y-105842000D01*
X174823000Y-99822000D02*
X178237389Y-99822000D01*
X222600000Y-105842000D02*
X221000000Y-107442000D01*
X135769234Y-99822000D02*
X133963449Y-98016215D01*
X174670000Y-99669000D02*
X174823000Y-99822000D01*
X205588000Y-99187000D02*
X209000000Y-102599000D01*
X219800000Y-103649000D02*
X221950000Y-103649000D01*
X221950000Y-103649000D02*
X222600000Y-104299000D01*
X127124341Y-97907999D02*
X128430338Y-96602002D01*
X83571000Y-92329000D02*
X83571000Y-94280267D01*
X87207733Y-97917000D02*
X125990998Y-97917000D01*
X125999999Y-97907999D02*
X127124341Y-97907999D01*
X125990998Y-97917000D02*
X125999999Y-97907999D01*
X83571000Y-94280267D02*
X87207733Y-97917000D01*
X85471000Y-92610000D02*
X85471000Y-92329000D01*
X128076785Y-96248449D02*
X127043234Y-97282000D01*
X87573000Y-97282000D02*
X85840000Y-95549000D01*
X85840000Y-92979000D02*
X85471000Y-92610000D01*
X127043234Y-97282000D02*
X87573000Y-97282000D01*
X85840000Y-95549000D02*
X85840000Y-92979000D01*
X207270000Y-84509000D02*
X207270000Y-84649000D01*
X209500000Y-82000000D02*
X209500000Y-82279000D01*
X198340000Y-83934000D02*
X197005000Y-85269000D01*
X192794500Y-85269000D02*
X179664000Y-98399500D01*
X198340000Y-83869000D02*
X198340000Y-82000000D01*
X197005000Y-85269000D02*
X192794500Y-85269000D01*
X198340000Y-82000000D02*
X198340000Y-83934000D01*
X209500000Y-82279000D02*
X207270000Y-84509000D01*
X192441000Y-80279000D02*
X200159000Y-80279000D01*
X190720000Y-82000000D02*
X192441000Y-80279000D01*
X200159000Y-80279000D02*
X201880000Y-82000000D01*
X207260000Y-92269000D02*
X207270000Y-92269000D01*
X201880000Y-86889000D02*
X207260000Y-92269000D01*
X174828500Y-97891500D02*
X190720000Y-82000000D01*
X174774500Y-97891500D02*
X174800000Y-97891500D01*
X174774500Y-97891500D02*
X174828500Y-97891500D01*
X201880000Y-82000000D02*
X201880000Y-86889000D01*
X195800000Y-82000000D02*
X193531000Y-84269000D01*
X193531000Y-84269000D02*
X190556000Y-84269000D01*
X190556000Y-84269000D02*
X178076500Y-96748500D01*
X205640000Y-85559000D02*
X207270000Y-87189000D01*
X205640000Y-83320000D02*
X205640000Y-85559000D01*
X206960000Y-82000000D02*
X205640000Y-83320000D01*
M02*
