G04 #@! TF.GenerationSoftware,KiCad,Pcbnew,6.0.11+dfsg-1*
G04 #@! TF.CreationDate,2023-07-23T17:43:54+02:00*
G04 #@! TF.ProjectId,ctrl-m,6374726c-2d6d-42e6-9b69-6361645f7063,1.1*
G04 #@! TF.SameCoordinates,Original*
G04 #@! TF.FileFunction,Profile,NP*
%FSLAX46Y46*%
G04 Gerber Fmt 4.6, Leading zero omitted, Abs format (unit mm)*
G04 Created by KiCad (PCBNEW 6.0.11+dfsg-1) date 2023-07-23 17:43:54*
%MOMM*%
%LPD*%
G01*
G04 APERTURE LIST*
G04 #@! TA.AperFunction,Profile*
%ADD10C,0.050000*%
G04 #@! TD*
G04 APERTURE END LIST*
D10*
X60000000Y-112299000D02*
X60000000Y-75000000D01*
X212000000Y-125499000D02*
X231000000Y-125500000D01*
X209990000Y-125499000D02*
X60000000Y-125500000D01*
X211990000Y-75000000D02*
X231000000Y-75000000D01*
X209990000Y-75000000D02*
X60000000Y-75000000D01*
X211960000Y-84939000D02*
G75*
G03*
X209960000Y-84939000I-1000000J0D01*
G01*
X211970000Y-109989000D02*
G75*
G03*
X209970000Y-109989000I-1000000J0D01*
G01*
X209960000Y-99709000D02*
G75*
G03*
X211960000Y-99709000I1000000J0D01*
G01*
X209970000Y-114399000D02*
G75*
G03*
X211970000Y-114399000I1000000J0D01*
G01*
X209990000Y-77279000D02*
G75*
G03*
X211989950Y-77289000I1000000J0D01*
G01*
X209960000Y-99709000D02*
X209960000Y-84939000D01*
X209970000Y-114399000D02*
X209970000Y-109989000D01*
X211970000Y-114399000D02*
X211970000Y-109989000D01*
X211960000Y-99709000D02*
X211960000Y-84939000D01*
X209990000Y-75000000D02*
X209990000Y-77279000D01*
X211990000Y-75000000D02*
X211989950Y-77289000D01*
X60000000Y-112299000D02*
X62110000Y-112299050D01*
X60000000Y-114299000D02*
X62100000Y-114299000D01*
X62100000Y-114299000D02*
G75*
G03*
X62110000Y-112299050I0J1000000D01*
G01*
X204890000Y-112299000D02*
X198420000Y-112299000D01*
X188980000Y-112299000D02*
G75*
G03*
X188980000Y-114299000I0J-1000000D01*
G01*
X204890000Y-114299000D02*
X198420000Y-114299000D01*
X204890000Y-114299000D02*
G75*
G03*
X204890000Y-112299000I0J1000000D01*
G01*
X212000000Y-120599000D02*
G75*
G03*
X210000000Y-120599000I-1000000J0D01*
G01*
X209990000Y-125499000D02*
X210000000Y-120599000D01*
X212000000Y-120599000D02*
X212000000Y-125499000D01*
X75000000Y-114309050D02*
G75*
G03*
X75010000Y-112309000I0J1000050D01*
G01*
X151260000Y-114299000D02*
G75*
G03*
X151260000Y-112299000I0J1000000D01*
G01*
X166850000Y-112299000D02*
X157500000Y-112319000D01*
X163700000Y-114319000D02*
X157500000Y-114319000D01*
X157500000Y-112319000D02*
G75*
G03*
X157500000Y-114319000I0J-1000000D01*
G01*
X75010000Y-112309000D02*
X68300000Y-112309000D01*
X75000000Y-114308950D02*
X68300000Y-114309000D01*
X81300000Y-112299000D02*
G75*
G03*
X81300000Y-114299000I0J-1000000D01*
G01*
X68300000Y-112309000D02*
G75*
G03*
X68300000Y-114309000I0J-1000000D01*
G01*
X176290000Y-114299000D02*
X163700000Y-114319000D01*
X138800000Y-112299000D02*
X132400000Y-112299000D01*
X126150000Y-112309000D02*
X116710000Y-112309000D01*
X151260000Y-112299000D02*
X138800000Y-112299000D01*
X100480000Y-114299000D02*
X81300000Y-114299000D01*
X179370000Y-112299000D02*
X166850000Y-112299000D01*
X198420000Y-114299000D02*
X188980000Y-114299000D01*
X138800000Y-114299000D02*
X132400000Y-114299000D01*
X100480000Y-114299000D02*
G75*
G03*
X100480000Y-112299000I0J1000000D01*
G01*
X100480000Y-112299000D02*
X81300000Y-112299000D01*
X126150000Y-114309000D02*
X113130000Y-114299000D01*
X182800000Y-112299000D02*
X179370000Y-112299000D01*
X106700000Y-112299000D02*
G75*
G03*
X106700000Y-114299000I0J-1000000D01*
G01*
X113130000Y-114299000D02*
X106700000Y-114299000D01*
X182800000Y-114299000D02*
G75*
G03*
X182800000Y-112299000I0J1000000D01*
G01*
X182800000Y-114299000D02*
X176290000Y-114299000D01*
X132400000Y-112299000D02*
G75*
G03*
X132400000Y-114299000I0J-1000000D01*
G01*
X60000000Y-114299000D02*
X60000000Y-125499000D01*
X151260000Y-114299000D02*
X138800000Y-114299000D01*
X116710000Y-112309000D02*
X106700000Y-112299000D01*
X198420000Y-112299000D02*
X188980000Y-112299000D01*
X126150000Y-114309000D02*
G75*
G03*
X126150000Y-112309000I0J1000000D01*
G01*
X231000000Y-75000000D02*
X231000000Y-125500000D01*
M02*
