M48
; DRILL file {KiCad 5.1.9+dfsg1-1} date Wed Mar 24 21:41:22 2021
; FORMAT={-:-/ absolute / inch / decimal}
; #@! TF.CreationDate,2021-03-24T21:41:22+01:00
; #@! TF.GenerationSoftware,Kicad,Pcbnew,5.1.9+dfsg1-1
; #@! TF.FileFunction,Plated,1,2,PTH
FMAT,2
INCH
T1C0.0256
T2C0.0362
T3C0.0394
T4C0.0472
T5C0.0630
T6C0.0917
T7C0.1260
T8C0.1575
%
G90
G05
T1
X3.0734Y-4.4374
X3.3402Y-3.6956
X4.24Y-4.02
X4.255Y-3.46
X4.255Y-3.51
X4.255Y-3.56
X4.255Y-3.61
X4.255Y-3.66
X4.305Y-3.46
X4.305Y-3.51
X4.305Y-3.56
X4.305Y-3.61
X4.305Y-3.66
X4.3335Y-3.2547
X4.48Y-4.015
X4.48Y-4.125
X4.5618Y-3.2626
X4.79Y-3.6159
X4.79Y-3.515
X4.8614Y-3.7082
X4.9Y-4.105
X5.03Y-3.285
X5.0796Y-3.7175
X5.13Y-3.435
X5.19Y-3.585
X5.1925Y-3.8225
X5.1996Y-3.9712
X5.26Y-3.375
X5.2705Y-4.0421
X5.2723Y-3.6704
X5.385Y-3.9975
X5.5105Y-3.4395
X5.53Y-3.515
X5.53Y-4.04
X6.9534Y-3.9875
X6.9534Y-3.8725
X7.6075Y-4.0354
X8.0512Y-4.0354
X8.285Y-4.0425
X8.2858Y-4.0952
X8.2858Y-4.6212
X8.287Y-4.1488
X8.2878Y-3.1208
X8.2878Y-3.1665
X8.2878Y-4.2063
X8.2949Y-3.2752
T2
X3.1917Y-3.2677
X3.1917Y-3.3465
X3.2902Y-3.2677
X3.2902Y-3.3465
T3
X4.46Y-3.33
X4.46Y-3.43
X4.46Y-3.53
X4.46Y-3.63
X4.46Y-3.73
X4.5079Y-3.1496
X4.6079Y-3.1496
X4.7079Y-3.1496
X4.8079Y-3.1496
X4.9079Y-3.1496
X5.0079Y-3.1496
X5.1079Y-3.1496
X5.2079Y-3.1496
X5.3079Y-3.1496
X5.4079Y-3.1496
X5.5079Y-3.1496
X5.6079Y-3.1496
X5.7079Y-3.1496
X5.8079Y-3.1496
X5.9079Y-3.1496
X6.0079Y-3.1496
X6.7087Y-3.2283
X6.8087Y-3.2283
X6.9087Y-3.2283
X7.0087Y-3.2283
X7.1087Y-3.2283
X7.2087Y-3.2283
X7.3087Y-3.2283
X7.4087Y-3.2283
X7.5087Y-3.2283
X7.6087Y-3.2283
X7.7087Y-3.2283
X7.8087Y-3.2283
X7.948Y-3.2283
X8.048Y-3.2283
X8.148Y-3.2283
X8.1602Y-3.3326
X8.1602Y-3.4326
X8.1602Y-3.5326
X8.1602Y-3.6326
X8.248Y-3.2283
X8.7008Y-3.93
X8.7008Y-4.03
X8.7008Y-4.13
X8.7008Y-4.23
T4
X3.6378Y-3.0224
X3.6378Y-3.3224
T5
X2.5197Y-4.1208
X2.5197Y-4.3208
X3.0732Y-3.9764
X3.0732Y-4.3492
X3.2732Y-3.9764
X3.2732Y-4.3492
X8.4843Y-3.6976
X8.4843Y-3.8976
T6
X3.0039Y-3.161
X3.478Y-3.161
T7
X2.8531Y-3.1563
X3.7992Y-3.1574
T8
X2.6772Y-4.7362
X8.8976Y-4.7441
T0
M30
