G04 #@! TF.GenerationSoftware,KiCad,Pcbnew,6.0.11+dfsg-1*
G04 #@! TF.CreationDate,2023-07-23T17:43:54+02:00*
G04 #@! TF.ProjectId,ctrl-m,6374726c-2d6d-42e6-9b69-6361645f7063,1.1*
G04 #@! TF.SameCoordinates,Original*
G04 #@! TF.FileFunction,Soldermask,Bot*
G04 #@! TF.FilePolarity,Negative*
%FSLAX46Y46*%
G04 Gerber Fmt 4.6, Leading zero omitted, Abs format (unit mm)*
G04 Created by KiCad (PCBNEW 6.0.11+dfsg-1) date 2023-07-23 17:43:54*
%MOMM*%
%LPD*%
G01*
G04 APERTURE LIST*
G04 Aperture macros list*
%AMRoundRect*
0 Rectangle with rounded corners*
0 $1 Rounding radius*
0 $2 $3 $4 $5 $6 $7 $8 $9 X,Y pos of 4 corners*
0 Add a 4 corners polygon primitive as box body*
4,1,4,$2,$3,$4,$5,$6,$7,$8,$9,$2,$3,0*
0 Add four circle primitives for the rounded corners*
1,1,$1+$1,$2,$3*
1,1,$1+$1,$4,$5*
1,1,$1+$1,$6,$7*
1,1,$1+$1,$8,$9*
0 Add four rect primitives between the rounded corners*
20,1,$1+$1,$2,$3,$4,$5,0*
20,1,$1+$1,$4,$5,$6,$7,0*
20,1,$1+$1,$6,$7,$8,$9,0*
20,1,$1+$1,$8,$9,$2,$3,0*%
%AMFreePoly0*
4,1,9,3.862500,-0.866500,0.737500,-0.866500,0.737500,-0.450000,-0.737500,-0.450000,-0.737500,0.450000,0.737500,0.450000,0.737500,0.866500,3.862500,0.866500,3.862500,-0.866500,3.862500,-0.866500,$1*%
G04 Aperture macros list end*
%ADD10R,1.700000X1.700000*%
%ADD11C,1.700000*%
%ADD12C,3.500000*%
%ADD13R,1.000000X1.000000*%
%ADD14O,1.000000X1.000000*%
%ADD15O,1.700000X1.700000*%
%ADD16C,2.400000*%
%ADD17C,2.200000*%
%ADD18C,8.000000*%
%ADD19C,3.600000*%
%ADD20C,2.500000*%
%ADD21RoundRect,0.218750X-0.218750X-0.256250X0.218750X-0.256250X0.218750X0.256250X-0.218750X0.256250X0*%
%ADD22RoundRect,0.218750X0.256250X-0.218750X0.256250X0.218750X-0.256250X0.218750X-0.256250X-0.218750X0*%
%ADD23RoundRect,0.218750X-0.256250X0.218750X-0.256250X-0.218750X0.256250X-0.218750X0.256250X0.218750X0*%
%ADD24RoundRect,0.075000X0.415425X0.521491X-0.521491X-0.415425X-0.415425X-0.521491X0.521491X0.415425X0*%
%ADD25RoundRect,0.075000X-0.415425X0.521491X-0.521491X0.415425X0.415425X-0.521491X0.521491X-0.415425X0*%
%ADD26R,0.650000X1.060000*%
%ADD27C,1.500000*%
%ADD28R,1.300000X0.900000*%
%ADD29FreePoly0,180.000000*%
%ADD30RoundRect,0.243750X0.456250X-0.243750X0.456250X0.243750X-0.456250X0.243750X-0.456250X-0.243750X0*%
%ADD31RoundRect,0.243750X-0.456250X0.243750X-0.456250X-0.243750X0.456250X-0.243750X0.456250X0.243750X0*%
G04 APERTURE END LIST*
D10*
X81070000Y-85000000D03*
D11*
X83570000Y-85000000D03*
X83570000Y-83000000D03*
X81070000Y-83000000D03*
D12*
X76300000Y-80290000D03*
X88340000Y-80290000D03*
D13*
X109347000Y-92964000D03*
D14*
X108077000Y-92964000D03*
X109347000Y-91694000D03*
X108077000Y-91694000D03*
X109347000Y-90424000D03*
X108077000Y-90424000D03*
X109347000Y-89154000D03*
X108077000Y-89154000D03*
X109347000Y-87884000D03*
X108077000Y-87884000D03*
D10*
X152600000Y-80000000D03*
D15*
X150060000Y-80000000D03*
X147520000Y-80000000D03*
X144980000Y-80000000D03*
X142440000Y-80000000D03*
X139900000Y-80000000D03*
X137360000Y-80000000D03*
X134820000Y-80000000D03*
X132280000Y-80000000D03*
X129740000Y-80000000D03*
X127200000Y-80000000D03*
X124660000Y-80000000D03*
X122120000Y-80000000D03*
X119580000Y-80000000D03*
X117040000Y-80000000D03*
X114500000Y-80000000D03*
D10*
X170400000Y-82000000D03*
D15*
X172940000Y-82000000D03*
X175480000Y-82000000D03*
X178020000Y-82000000D03*
X180560000Y-82000000D03*
X183100000Y-82000000D03*
X185640000Y-82000000D03*
X188180000Y-82000000D03*
X190720000Y-82000000D03*
X193260000Y-82000000D03*
X195800000Y-82000000D03*
X198340000Y-82000000D03*
D10*
X201880000Y-82000000D03*
D15*
X204420000Y-82000000D03*
X206960000Y-82000000D03*
X209500000Y-82000000D03*
D16*
X215500000Y-93920000D03*
X215500000Y-99000000D03*
X64000000Y-109749000D03*
X64000000Y-104669000D03*
X78060000Y-101000000D03*
X83140000Y-101000000D03*
D10*
X221000000Y-99822000D03*
D15*
X221000000Y-102362000D03*
X221000000Y-104902000D03*
X221000000Y-107442000D03*
D10*
X113284000Y-85059000D03*
D15*
X113284000Y-87599000D03*
X113284000Y-90139000D03*
X113284000Y-92679000D03*
X113284000Y-95219000D03*
D16*
X83140000Y-110469000D03*
X78060000Y-110469000D03*
D10*
X207270000Y-92269000D03*
D15*
X207270000Y-89729000D03*
X207270000Y-87189000D03*
X207270000Y-84649000D03*
D17*
X92400000Y-76769000D03*
X92400000Y-84389000D03*
D18*
X68000000Y-120300000D03*
X226000000Y-120500000D03*
D19*
X72470000Y-80169000D03*
X96500000Y-80199000D03*
D20*
X87900000Y-87000000D03*
D21*
X133536500Y-101289000D03*
X135111500Y-101289000D03*
D22*
X124900000Y-95250000D03*
X124900000Y-93675000D03*
X108728000Y-82558000D03*
X108728000Y-80983000D03*
D23*
X178076500Y-96748500D03*
X178076500Y-98323500D03*
D24*
X132902788Y-89301124D03*
X133256342Y-89654678D03*
X133609895Y-90008231D03*
X133963449Y-90361785D03*
X134317002Y-90715338D03*
X134670555Y-91068891D03*
X135024109Y-91422445D03*
X135377662Y-91775998D03*
X135731215Y-92129551D03*
X136084769Y-92483105D03*
X136438322Y-92836658D03*
X136791876Y-93190212D03*
D25*
X136791876Y-95187788D03*
X136438322Y-95541342D03*
X136084769Y-95894895D03*
X135731215Y-96248449D03*
X135377662Y-96602002D03*
X135024109Y-96955555D03*
X134670555Y-97309109D03*
X134317002Y-97662662D03*
X133963449Y-98016215D03*
X133609895Y-98369769D03*
X133256342Y-98723322D03*
X132902788Y-99076876D03*
D24*
X130905212Y-99076876D03*
X130551658Y-98723322D03*
X130198105Y-98369769D03*
X129844551Y-98016215D03*
X129490998Y-97662662D03*
X129137445Y-97309109D03*
X128783891Y-96955555D03*
X128430338Y-96602002D03*
X128076785Y-96248449D03*
X127723231Y-95894895D03*
X127369678Y-95541342D03*
X127016124Y-95187788D03*
D25*
X127016124Y-93190212D03*
X127369678Y-92836658D03*
X127723231Y-92483105D03*
X128076785Y-92129551D03*
X128430338Y-91775998D03*
X128783891Y-91422445D03*
X129137445Y-91068891D03*
X129490998Y-90715338D03*
X129844551Y-90361785D03*
X130198105Y-90008231D03*
X130551658Y-89654678D03*
X130905212Y-89301124D03*
D23*
X123320000Y-91211500D03*
X123320000Y-92786500D03*
X174774500Y-97891500D03*
X174774500Y-99466500D03*
X179664000Y-98399500D03*
X179664000Y-99974500D03*
D22*
X138811000Y-89789000D03*
X138811000Y-88214000D03*
D26*
X85471000Y-92329000D03*
X84521000Y-92329000D03*
X83571000Y-92329000D03*
X83571000Y-90129000D03*
X84521000Y-90129000D03*
X85471000Y-90129000D03*
D22*
X131924000Y-87289000D03*
X131924000Y-85714000D03*
D27*
X64330000Y-77499000D03*
X216340000Y-112529000D03*
X117400000Y-94219000D03*
D28*
X123920000Y-99469000D03*
D29*
X123832500Y-100969000D03*
D28*
X123920000Y-102469000D03*
D22*
X118370000Y-100956500D03*
X118370000Y-99381500D03*
D30*
X116370000Y-101206500D03*
X116370000Y-99331500D03*
D31*
X126365000Y-102392000D03*
X126365000Y-104267000D03*
M02*
