G04 #@! TF.GenerationSoftware,KiCad,Pcbnew,9.0.7+dfsg-1*
G04 #@! TF.CreationDate,2026-02-12T00:04:35+01:00*
G04 #@! TF.ProjectId,ctrl-m,6374726c-2d6d-42e6-9b69-6361645f7063,1.2*
G04 #@! TF.SameCoordinates,Original*
G04 #@! TF.FileFunction,Legend,Bot*
G04 #@! TF.FilePolarity,Positive*
%FSLAX46Y46*%
G04 Gerber Fmt 4.6, Leading zero omitted, Abs format (unit mm)*
G04 Created by KiCad (PCBNEW 9.0.7+dfsg-1) date 2026-02-12 00:04:35*
%MOMM*%
%LPD*%
G01*
G04 APERTURE LIST*
%ADD10C,0.150000*%
%ADD11C,0.120000*%
G04 APERTURE END LIST*
D10*
X135556666Y-103118580D02*
X135604285Y-103166200D01*
X135604285Y-103166200D02*
X135747142Y-103213819D01*
X135747142Y-103213819D02*
X135842380Y-103213819D01*
X135842380Y-103213819D02*
X135985237Y-103166200D01*
X135985237Y-103166200D02*
X136080475Y-103070961D01*
X136080475Y-103070961D02*
X136128094Y-102975723D01*
X136128094Y-102975723D02*
X136175713Y-102785247D01*
X136175713Y-102785247D02*
X136175713Y-102642390D01*
X136175713Y-102642390D02*
X136128094Y-102451914D01*
X136128094Y-102451914D02*
X136080475Y-102356676D01*
X136080475Y-102356676D02*
X135985237Y-102261438D01*
X135985237Y-102261438D02*
X135842380Y-102213819D01*
X135842380Y-102213819D02*
X135747142Y-102213819D01*
X135747142Y-102213819D02*
X135604285Y-102261438D01*
X135604285Y-102261438D02*
X135556666Y-102309057D01*
X134699523Y-102213819D02*
X134889999Y-102213819D01*
X134889999Y-102213819D02*
X134985237Y-102261438D01*
X134985237Y-102261438D02*
X135032856Y-102309057D01*
X135032856Y-102309057D02*
X135128094Y-102451914D01*
X135128094Y-102451914D02*
X135175713Y-102642390D01*
X135175713Y-102642390D02*
X135175713Y-103023342D01*
X135175713Y-103023342D02*
X135128094Y-103118580D01*
X135128094Y-103118580D02*
X135080475Y-103166200D01*
X135080475Y-103166200D02*
X134985237Y-103213819D01*
X134985237Y-103213819D02*
X134794761Y-103213819D01*
X134794761Y-103213819D02*
X134699523Y-103166200D01*
X134699523Y-103166200D02*
X134651904Y-103118580D01*
X134651904Y-103118580D02*
X134604285Y-103023342D01*
X134604285Y-103023342D02*
X134604285Y-102785247D01*
X134604285Y-102785247D02*
X134651904Y-102690009D01*
X134651904Y-102690009D02*
X134699523Y-102642390D01*
X134699523Y-102642390D02*
X134794761Y-102594771D01*
X134794761Y-102594771D02*
X134985237Y-102594771D01*
X134985237Y-102594771D02*
X135080475Y-102642390D01*
X135080475Y-102642390D02*
X135128094Y-102690009D01*
X135128094Y-102690009D02*
X135175713Y-102785247D01*
X125252080Y-96762333D02*
X125299700Y-96714714D01*
X125299700Y-96714714D02*
X125347319Y-96571857D01*
X125347319Y-96571857D02*
X125347319Y-96476619D01*
X125347319Y-96476619D02*
X125299700Y-96333762D01*
X125299700Y-96333762D02*
X125204461Y-96238524D01*
X125204461Y-96238524D02*
X125109223Y-96190905D01*
X125109223Y-96190905D02*
X124918747Y-96143286D01*
X124918747Y-96143286D02*
X124775890Y-96143286D01*
X124775890Y-96143286D02*
X124585414Y-96190905D01*
X124585414Y-96190905D02*
X124490176Y-96238524D01*
X124490176Y-96238524D02*
X124394938Y-96333762D01*
X124394938Y-96333762D02*
X124347319Y-96476619D01*
X124347319Y-96476619D02*
X124347319Y-96571857D01*
X124347319Y-96571857D02*
X124394938Y-96714714D01*
X124394938Y-96714714D02*
X124442557Y-96762333D01*
X124347319Y-97095667D02*
X124347319Y-97762333D01*
X124347319Y-97762333D02*
X125347319Y-97333762D01*
X107924819Y-81603833D02*
X107448628Y-81270500D01*
X107924819Y-81032405D02*
X106924819Y-81032405D01*
X106924819Y-81032405D02*
X106924819Y-81413357D01*
X106924819Y-81413357D02*
X106972438Y-81508595D01*
X106972438Y-81508595D02*
X107020057Y-81556214D01*
X107020057Y-81556214D02*
X107115295Y-81603833D01*
X107115295Y-81603833D02*
X107258152Y-81603833D01*
X107258152Y-81603833D02*
X107353390Y-81556214D01*
X107353390Y-81556214D02*
X107401009Y-81508595D01*
X107401009Y-81508595D02*
X107448628Y-81413357D01*
X107448628Y-81413357D02*
X107448628Y-81032405D01*
X107924819Y-82556214D02*
X107924819Y-81984786D01*
X107924819Y-82270500D02*
X106924819Y-82270500D01*
X106924819Y-82270500D02*
X107067676Y-82175262D01*
X107067676Y-82175262D02*
X107162914Y-82080024D01*
X107162914Y-82080024D02*
X107210533Y-81984786D01*
X177074819Y-96622333D02*
X176598628Y-96289000D01*
X177074819Y-96050905D02*
X176074819Y-96050905D01*
X176074819Y-96050905D02*
X176074819Y-96431857D01*
X176074819Y-96431857D02*
X176122438Y-96527095D01*
X176122438Y-96527095D02*
X176170057Y-96574714D01*
X176170057Y-96574714D02*
X176265295Y-96622333D01*
X176265295Y-96622333D02*
X176408152Y-96622333D01*
X176408152Y-96622333D02*
X176503390Y-96574714D01*
X176503390Y-96574714D02*
X176551009Y-96527095D01*
X176551009Y-96527095D02*
X176598628Y-96431857D01*
X176598628Y-96431857D02*
X176598628Y-96050905D01*
X176074819Y-96955667D02*
X176074819Y-97574714D01*
X176074819Y-97574714D02*
X176455771Y-97241381D01*
X176455771Y-97241381D02*
X176455771Y-97384238D01*
X176455771Y-97384238D02*
X176503390Y-97479476D01*
X176503390Y-97479476D02*
X176551009Y-97527095D01*
X176551009Y-97527095D02*
X176646247Y-97574714D01*
X176646247Y-97574714D02*
X176884342Y-97574714D01*
X176884342Y-97574714D02*
X176979580Y-97527095D01*
X176979580Y-97527095D02*
X177027200Y-97479476D01*
X177027200Y-97479476D02*
X177074819Y-97384238D01*
X177074819Y-97384238D02*
X177074819Y-97098524D01*
X177074819Y-97098524D02*
X177027200Y-97003286D01*
X177027200Y-97003286D02*
X176979580Y-96955667D01*
X127920671Y-89128175D02*
X128493091Y-89700595D01*
X128493091Y-89700595D02*
X128526763Y-89801610D01*
X128526763Y-89801610D02*
X128526763Y-89868954D01*
X128526763Y-89868954D02*
X128493091Y-89969969D01*
X128493091Y-89969969D02*
X128358404Y-90104656D01*
X128358404Y-90104656D02*
X128257389Y-90138328D01*
X128257389Y-90138328D02*
X128190045Y-90138328D01*
X128190045Y-90138328D02*
X128089030Y-90104656D01*
X128089030Y-90104656D02*
X127516610Y-89532236D01*
X127247236Y-89801610D02*
X126809504Y-90239343D01*
X126809504Y-90239343D02*
X127314580Y-90273015D01*
X127314580Y-90273015D02*
X127213565Y-90374030D01*
X127213565Y-90374030D02*
X127179893Y-90475045D01*
X127179893Y-90475045D02*
X127179893Y-90542389D01*
X127179893Y-90542389D02*
X127213565Y-90643404D01*
X127213565Y-90643404D02*
X127381923Y-90811763D01*
X127381923Y-90811763D02*
X127482939Y-90845435D01*
X127482939Y-90845435D02*
X127550282Y-90845435D01*
X127550282Y-90845435D02*
X127651297Y-90811763D01*
X127651297Y-90811763D02*
X127853328Y-90609732D01*
X127853328Y-90609732D02*
X127887000Y-90508717D01*
X127887000Y-90508717D02*
X127887000Y-90441374D01*
X123809580Y-89309833D02*
X123857200Y-89262214D01*
X123857200Y-89262214D02*
X123904819Y-89119357D01*
X123904819Y-89119357D02*
X123904819Y-89024119D01*
X123904819Y-89024119D02*
X123857200Y-88881262D01*
X123857200Y-88881262D02*
X123761961Y-88786024D01*
X123761961Y-88786024D02*
X123666723Y-88738405D01*
X123666723Y-88738405D02*
X123476247Y-88690786D01*
X123476247Y-88690786D02*
X123333390Y-88690786D01*
X123333390Y-88690786D02*
X123142914Y-88738405D01*
X123142914Y-88738405D02*
X123047676Y-88786024D01*
X123047676Y-88786024D02*
X122952438Y-88881262D01*
X122952438Y-88881262D02*
X122904819Y-89024119D01*
X122904819Y-89024119D02*
X122904819Y-89119357D01*
X122904819Y-89119357D02*
X122952438Y-89262214D01*
X122952438Y-89262214D02*
X123000057Y-89309833D01*
X123238152Y-90166976D02*
X123904819Y-90166976D01*
X122857200Y-89928881D02*
X123571485Y-89690786D01*
X123571485Y-89690786D02*
X123571485Y-90309833D01*
X173799319Y-98512333D02*
X173323128Y-98179000D01*
X173799319Y-97940905D02*
X172799319Y-97940905D01*
X172799319Y-97940905D02*
X172799319Y-98321857D01*
X172799319Y-98321857D02*
X172846938Y-98417095D01*
X172846938Y-98417095D02*
X172894557Y-98464714D01*
X172894557Y-98464714D02*
X172989795Y-98512333D01*
X172989795Y-98512333D02*
X173132652Y-98512333D01*
X173132652Y-98512333D02*
X173227890Y-98464714D01*
X173227890Y-98464714D02*
X173275509Y-98417095D01*
X173275509Y-98417095D02*
X173323128Y-98321857D01*
X173323128Y-98321857D02*
X173323128Y-97940905D01*
X172894557Y-98893286D02*
X172846938Y-98940905D01*
X172846938Y-98940905D02*
X172799319Y-99036143D01*
X172799319Y-99036143D02*
X172799319Y-99274238D01*
X172799319Y-99274238D02*
X172846938Y-99369476D01*
X172846938Y-99369476D02*
X172894557Y-99417095D01*
X172894557Y-99417095D02*
X172989795Y-99464714D01*
X172989795Y-99464714D02*
X173085033Y-99464714D01*
X173085033Y-99464714D02*
X173227890Y-99417095D01*
X173227890Y-99417095D02*
X173799319Y-98845667D01*
X173799319Y-98845667D02*
X173799319Y-99464714D01*
X181724819Y-99102333D02*
X181248628Y-98769000D01*
X181724819Y-98530905D02*
X180724819Y-98530905D01*
X180724819Y-98530905D02*
X180724819Y-98911857D01*
X180724819Y-98911857D02*
X180772438Y-99007095D01*
X180772438Y-99007095D02*
X180820057Y-99054714D01*
X180820057Y-99054714D02*
X180915295Y-99102333D01*
X180915295Y-99102333D02*
X181058152Y-99102333D01*
X181058152Y-99102333D02*
X181153390Y-99054714D01*
X181153390Y-99054714D02*
X181201009Y-99007095D01*
X181201009Y-99007095D02*
X181248628Y-98911857D01*
X181248628Y-98911857D02*
X181248628Y-98530905D01*
X181058152Y-99959476D02*
X181724819Y-99959476D01*
X180677200Y-99721381D02*
X181391485Y-99483286D01*
X181391485Y-99483286D02*
X181391485Y-100102333D01*
X137779580Y-88782333D02*
X137827200Y-88734714D01*
X137827200Y-88734714D02*
X137874819Y-88591857D01*
X137874819Y-88591857D02*
X137874819Y-88496619D01*
X137874819Y-88496619D02*
X137827200Y-88353762D01*
X137827200Y-88353762D02*
X137731961Y-88258524D01*
X137731961Y-88258524D02*
X137636723Y-88210905D01*
X137636723Y-88210905D02*
X137446247Y-88163286D01*
X137446247Y-88163286D02*
X137303390Y-88163286D01*
X137303390Y-88163286D02*
X137112914Y-88210905D01*
X137112914Y-88210905D02*
X137017676Y-88258524D01*
X137017676Y-88258524D02*
X136922438Y-88353762D01*
X136922438Y-88353762D02*
X136874819Y-88496619D01*
X136874819Y-88496619D02*
X136874819Y-88591857D01*
X136874819Y-88591857D02*
X136922438Y-88734714D01*
X136922438Y-88734714D02*
X136970057Y-88782333D01*
X137303390Y-89353762D02*
X137255771Y-89258524D01*
X137255771Y-89258524D02*
X137208152Y-89210905D01*
X137208152Y-89210905D02*
X137112914Y-89163286D01*
X137112914Y-89163286D02*
X137065295Y-89163286D01*
X137065295Y-89163286D02*
X136970057Y-89210905D01*
X136970057Y-89210905D02*
X136922438Y-89258524D01*
X136922438Y-89258524D02*
X136874819Y-89353762D01*
X136874819Y-89353762D02*
X136874819Y-89544238D01*
X136874819Y-89544238D02*
X136922438Y-89639476D01*
X136922438Y-89639476D02*
X136970057Y-89687095D01*
X136970057Y-89687095D02*
X137065295Y-89734714D01*
X137065295Y-89734714D02*
X137112914Y-89734714D01*
X137112914Y-89734714D02*
X137208152Y-89687095D01*
X137208152Y-89687095D02*
X137255771Y-89639476D01*
X137255771Y-89639476D02*
X137303390Y-89544238D01*
X137303390Y-89544238D02*
X137303390Y-89353762D01*
X137303390Y-89353762D02*
X137351009Y-89258524D01*
X137351009Y-89258524D02*
X137398628Y-89210905D01*
X137398628Y-89210905D02*
X137493866Y-89163286D01*
X137493866Y-89163286D02*
X137684342Y-89163286D01*
X137684342Y-89163286D02*
X137779580Y-89210905D01*
X137779580Y-89210905D02*
X137827200Y-89258524D01*
X137827200Y-89258524D02*
X137874819Y-89353762D01*
X137874819Y-89353762D02*
X137874819Y-89544238D01*
X137874819Y-89544238D02*
X137827200Y-89639476D01*
X137827200Y-89639476D02*
X137779580Y-89687095D01*
X137779580Y-89687095D02*
X137684342Y-89734714D01*
X137684342Y-89734714D02*
X137493866Y-89734714D01*
X137493866Y-89734714D02*
X137398628Y-89687095D01*
X137398628Y-89687095D02*
X137351009Y-89639476D01*
X137351009Y-89639476D02*
X137303390Y-89544238D01*
X86875819Y-90467095D02*
X87685342Y-90467095D01*
X87685342Y-90467095D02*
X87780580Y-90514714D01*
X87780580Y-90514714D02*
X87828200Y-90562333D01*
X87828200Y-90562333D02*
X87875819Y-90657571D01*
X87875819Y-90657571D02*
X87875819Y-90848047D01*
X87875819Y-90848047D02*
X87828200Y-90943285D01*
X87828200Y-90943285D02*
X87780580Y-90990904D01*
X87780580Y-90990904D02*
X87685342Y-91038523D01*
X87685342Y-91038523D02*
X86875819Y-91038523D01*
X87875819Y-92038523D02*
X87875819Y-91467095D01*
X87875819Y-91752809D02*
X86875819Y-91752809D01*
X86875819Y-91752809D02*
X87018676Y-91657571D01*
X87018676Y-91657571D02*
X87113914Y-91562333D01*
X87113914Y-91562333D02*
X87161533Y-91467095D01*
X133779580Y-87062333D02*
X133827200Y-87014714D01*
X133827200Y-87014714D02*
X133874819Y-86871857D01*
X133874819Y-86871857D02*
X133874819Y-86776619D01*
X133874819Y-86776619D02*
X133827200Y-86633762D01*
X133827200Y-86633762D02*
X133731961Y-86538524D01*
X133731961Y-86538524D02*
X133636723Y-86490905D01*
X133636723Y-86490905D02*
X133446247Y-86443286D01*
X133446247Y-86443286D02*
X133303390Y-86443286D01*
X133303390Y-86443286D02*
X133112914Y-86490905D01*
X133112914Y-86490905D02*
X133017676Y-86538524D01*
X133017676Y-86538524D02*
X132922438Y-86633762D01*
X132922438Y-86633762D02*
X132874819Y-86776619D01*
X132874819Y-86776619D02*
X132874819Y-86871857D01*
X132874819Y-86871857D02*
X132922438Y-87014714D01*
X132922438Y-87014714D02*
X132970057Y-87062333D01*
X132874819Y-87967095D02*
X132874819Y-87490905D01*
X132874819Y-87490905D02*
X133351009Y-87443286D01*
X133351009Y-87443286D02*
X133303390Y-87490905D01*
X133303390Y-87490905D02*
X133255771Y-87586143D01*
X133255771Y-87586143D02*
X133255771Y-87824238D01*
X133255771Y-87824238D02*
X133303390Y-87919476D01*
X133303390Y-87919476D02*
X133351009Y-87967095D01*
X133351009Y-87967095D02*
X133446247Y-88014714D01*
X133446247Y-88014714D02*
X133684342Y-88014714D01*
X133684342Y-88014714D02*
X133779580Y-87967095D01*
X133779580Y-87967095D02*
X133827200Y-87919476D01*
X133827200Y-87919476D02*
X133874819Y-87824238D01*
X133874819Y-87824238D02*
X133874819Y-87586143D01*
X133874819Y-87586143D02*
X133827200Y-87490905D01*
X133827200Y-87490905D02*
X133779580Y-87443286D01*
X65257619Y-79863819D02*
X65590952Y-79387628D01*
X65829047Y-79863819D02*
X65829047Y-78863819D01*
X65829047Y-78863819D02*
X65448095Y-78863819D01*
X65448095Y-78863819D02*
X65352857Y-78911438D01*
X65352857Y-78911438D02*
X65305238Y-78959057D01*
X65305238Y-78959057D02*
X65257619Y-79054295D01*
X65257619Y-79054295D02*
X65257619Y-79197152D01*
X65257619Y-79197152D02*
X65305238Y-79292390D01*
X65305238Y-79292390D02*
X65352857Y-79340009D01*
X65352857Y-79340009D02*
X65448095Y-79387628D01*
X65448095Y-79387628D02*
X65829047Y-79387628D01*
X64829047Y-79340009D02*
X64495714Y-79340009D01*
X64352857Y-79863819D02*
X64829047Y-79863819D01*
X64829047Y-79863819D02*
X64829047Y-78863819D01*
X64829047Y-78863819D02*
X64352857Y-78863819D01*
X63590952Y-79340009D02*
X63924285Y-79340009D01*
X63924285Y-79863819D02*
X63924285Y-78863819D01*
X63924285Y-78863819D02*
X63448095Y-78863819D01*
X62543333Y-79863819D02*
X63114761Y-79863819D01*
X62829047Y-79863819D02*
X62829047Y-78863819D01*
X62829047Y-78863819D02*
X62924285Y-79006676D01*
X62924285Y-79006676D02*
X63019523Y-79101914D01*
X63019523Y-79101914D02*
X63114761Y-79149533D01*
X217317619Y-114873819D02*
X217650952Y-114397628D01*
X217889047Y-114873819D02*
X217889047Y-113873819D01*
X217889047Y-113873819D02*
X217508095Y-113873819D01*
X217508095Y-113873819D02*
X217412857Y-113921438D01*
X217412857Y-113921438D02*
X217365238Y-113969057D01*
X217365238Y-113969057D02*
X217317619Y-114064295D01*
X217317619Y-114064295D02*
X217317619Y-114207152D01*
X217317619Y-114207152D02*
X217365238Y-114302390D01*
X217365238Y-114302390D02*
X217412857Y-114350009D01*
X217412857Y-114350009D02*
X217508095Y-114397628D01*
X217508095Y-114397628D02*
X217889047Y-114397628D01*
X216889047Y-114350009D02*
X216555714Y-114350009D01*
X216412857Y-114873819D02*
X216889047Y-114873819D01*
X216889047Y-114873819D02*
X216889047Y-113873819D01*
X216889047Y-113873819D02*
X216412857Y-113873819D01*
X215650952Y-114350009D02*
X215984285Y-114350009D01*
X215984285Y-114873819D02*
X215984285Y-113873819D01*
X215984285Y-113873819D02*
X215508095Y-113873819D01*
X215174761Y-113969057D02*
X215127142Y-113921438D01*
X215127142Y-113921438D02*
X215031904Y-113873819D01*
X215031904Y-113873819D02*
X214793809Y-113873819D01*
X214793809Y-113873819D02*
X214698571Y-113921438D01*
X214698571Y-113921438D02*
X214650952Y-113969057D01*
X214650952Y-113969057D02*
X214603333Y-114064295D01*
X214603333Y-114064295D02*
X214603333Y-114159533D01*
X214603333Y-114159533D02*
X214650952Y-114302390D01*
X214650952Y-114302390D02*
X215222380Y-114873819D01*
X215222380Y-114873819D02*
X214603333Y-114873819D01*
X118537619Y-96633819D02*
X118870952Y-96157628D01*
X119109047Y-96633819D02*
X119109047Y-95633819D01*
X119109047Y-95633819D02*
X118728095Y-95633819D01*
X118728095Y-95633819D02*
X118632857Y-95681438D01*
X118632857Y-95681438D02*
X118585238Y-95729057D01*
X118585238Y-95729057D02*
X118537619Y-95824295D01*
X118537619Y-95824295D02*
X118537619Y-95967152D01*
X118537619Y-95967152D02*
X118585238Y-96062390D01*
X118585238Y-96062390D02*
X118632857Y-96110009D01*
X118632857Y-96110009D02*
X118728095Y-96157628D01*
X118728095Y-96157628D02*
X119109047Y-96157628D01*
X118109047Y-96110009D02*
X117775714Y-96110009D01*
X117632857Y-96633819D02*
X118109047Y-96633819D01*
X118109047Y-96633819D02*
X118109047Y-95633819D01*
X118109047Y-95633819D02*
X117632857Y-95633819D01*
X116870952Y-96110009D02*
X117204285Y-96110009D01*
X117204285Y-96633819D02*
X117204285Y-95633819D01*
X117204285Y-95633819D02*
X116728095Y-95633819D01*
X116442380Y-95633819D02*
X115823333Y-95633819D01*
X115823333Y-95633819D02*
X116156666Y-96014771D01*
X116156666Y-96014771D02*
X116013809Y-96014771D01*
X116013809Y-96014771D02*
X115918571Y-96062390D01*
X115918571Y-96062390D02*
X115870952Y-96110009D01*
X115870952Y-96110009D02*
X115823333Y-96205247D01*
X115823333Y-96205247D02*
X115823333Y-96443342D01*
X115823333Y-96443342D02*
X115870952Y-96538580D01*
X115870952Y-96538580D02*
X115918571Y-96586200D01*
X115918571Y-96586200D02*
X116013809Y-96633819D01*
X116013809Y-96633819D02*
X116299523Y-96633819D01*
X116299523Y-96633819D02*
X116394761Y-96586200D01*
X116394761Y-96586200D02*
X116442380Y-96538580D01*
X104861904Y-103723819D02*
X104861904Y-104533342D01*
X104861904Y-104533342D02*
X104814285Y-104628580D01*
X104814285Y-104628580D02*
X104766666Y-104676200D01*
X104766666Y-104676200D02*
X104671428Y-104723819D01*
X104671428Y-104723819D02*
X104480952Y-104723819D01*
X104480952Y-104723819D02*
X104385714Y-104676200D01*
X104385714Y-104676200D02*
X104338095Y-104628580D01*
X104338095Y-104628580D02*
X104290476Y-104533342D01*
X104290476Y-104533342D02*
X104290476Y-103723819D01*
X103861904Y-103819057D02*
X103814285Y-103771438D01*
X103814285Y-103771438D02*
X103719047Y-103723819D01*
X103719047Y-103723819D02*
X103480952Y-103723819D01*
X103480952Y-103723819D02*
X103385714Y-103771438D01*
X103385714Y-103771438D02*
X103338095Y-103819057D01*
X103338095Y-103819057D02*
X103290476Y-103914295D01*
X103290476Y-103914295D02*
X103290476Y-104009533D01*
X103290476Y-104009533D02*
X103338095Y-104152390D01*
X103338095Y-104152390D02*
X103909523Y-104723819D01*
X103909523Y-104723819D02*
X103290476Y-104723819D01*
X100666666Y-103028580D02*
X100714285Y-103076200D01*
X100714285Y-103076200D02*
X100857142Y-103123819D01*
X100857142Y-103123819D02*
X100952380Y-103123819D01*
X100952380Y-103123819D02*
X101095237Y-103076200D01*
X101095237Y-103076200D02*
X101190475Y-102980961D01*
X101190475Y-102980961D02*
X101238094Y-102885723D01*
X101238094Y-102885723D02*
X101285713Y-102695247D01*
X101285713Y-102695247D02*
X101285713Y-102552390D01*
X101285713Y-102552390D02*
X101238094Y-102361914D01*
X101238094Y-102361914D02*
X101190475Y-102266676D01*
X101190475Y-102266676D02*
X101095237Y-102171438D01*
X101095237Y-102171438D02*
X100952380Y-102123819D01*
X100952380Y-102123819D02*
X100857142Y-102123819D01*
X100857142Y-102123819D02*
X100714285Y-102171438D01*
X100714285Y-102171438D02*
X100666666Y-102219057D01*
X100285713Y-102219057D02*
X100238094Y-102171438D01*
X100238094Y-102171438D02*
X100142856Y-102123819D01*
X100142856Y-102123819D02*
X99904761Y-102123819D01*
X99904761Y-102123819D02*
X99809523Y-102171438D01*
X99809523Y-102171438D02*
X99761904Y-102219057D01*
X99761904Y-102219057D02*
X99714285Y-102314295D01*
X99714285Y-102314295D02*
X99714285Y-102409533D01*
X99714285Y-102409533D02*
X99761904Y-102552390D01*
X99761904Y-102552390D02*
X100333332Y-103123819D01*
X100333332Y-103123819D02*
X99714285Y-103123819D01*
X98566666Y-103028580D02*
X98614285Y-103076200D01*
X98614285Y-103076200D02*
X98757142Y-103123819D01*
X98757142Y-103123819D02*
X98852380Y-103123819D01*
X98852380Y-103123819D02*
X98995237Y-103076200D01*
X98995237Y-103076200D02*
X99090475Y-102980961D01*
X99090475Y-102980961D02*
X99138094Y-102885723D01*
X99138094Y-102885723D02*
X99185713Y-102695247D01*
X99185713Y-102695247D02*
X99185713Y-102552390D01*
X99185713Y-102552390D02*
X99138094Y-102361914D01*
X99138094Y-102361914D02*
X99090475Y-102266676D01*
X99090475Y-102266676D02*
X98995237Y-102171438D01*
X98995237Y-102171438D02*
X98852380Y-102123819D01*
X98852380Y-102123819D02*
X98757142Y-102123819D01*
X98757142Y-102123819D02*
X98614285Y-102171438D01*
X98614285Y-102171438D02*
X98566666Y-102219057D01*
X97614285Y-103123819D02*
X98185713Y-103123819D01*
X97899999Y-103123819D02*
X97899999Y-102123819D01*
X97899999Y-102123819D02*
X97995237Y-102266676D01*
X97995237Y-102266676D02*
X98090475Y-102361914D01*
X98090475Y-102361914D02*
X98185713Y-102409533D01*
X110479580Y-103112333D02*
X110527200Y-103064714D01*
X110527200Y-103064714D02*
X110574819Y-102921857D01*
X110574819Y-102921857D02*
X110574819Y-102826619D01*
X110574819Y-102826619D02*
X110527200Y-102683762D01*
X110527200Y-102683762D02*
X110431961Y-102588524D01*
X110431961Y-102588524D02*
X110336723Y-102540905D01*
X110336723Y-102540905D02*
X110146247Y-102493286D01*
X110146247Y-102493286D02*
X110003390Y-102493286D01*
X110003390Y-102493286D02*
X109812914Y-102540905D01*
X109812914Y-102540905D02*
X109717676Y-102588524D01*
X109717676Y-102588524D02*
X109622438Y-102683762D01*
X109622438Y-102683762D02*
X109574819Y-102826619D01*
X109574819Y-102826619D02*
X109574819Y-102921857D01*
X109574819Y-102921857D02*
X109622438Y-103064714D01*
X109622438Y-103064714D02*
X109670057Y-103112333D01*
X109574819Y-103445667D02*
X109574819Y-104064714D01*
X109574819Y-104064714D02*
X109955771Y-103731381D01*
X109955771Y-103731381D02*
X109955771Y-103874238D01*
X109955771Y-103874238D02*
X110003390Y-103969476D01*
X110003390Y-103969476D02*
X110051009Y-104017095D01*
X110051009Y-104017095D02*
X110146247Y-104064714D01*
X110146247Y-104064714D02*
X110384342Y-104064714D01*
X110384342Y-104064714D02*
X110479580Y-104017095D01*
X110479580Y-104017095D02*
X110527200Y-103969476D01*
X110527200Y-103969476D02*
X110574819Y-103874238D01*
X110574819Y-103874238D02*
X110574819Y-103588524D01*
X110574819Y-103588524D02*
X110527200Y-103493286D01*
X110527200Y-103493286D02*
X110479580Y-103445667D01*
D11*
X134161221Y-100779000D02*
X134486779Y-100779000D01*
X134161221Y-101799000D02*
X134486779Y-101799000D01*
X125410000Y-94625279D02*
X125410000Y-94299721D01*
X124390000Y-94625279D02*
X124390000Y-94299721D01*
X109238000Y-81933279D02*
X109238000Y-81607721D01*
X108218000Y-81933279D02*
X108218000Y-81607721D01*
X178586500Y-97373221D02*
X178586500Y-97698779D01*
X177566500Y-97373221D02*
X177566500Y-97698779D01*
X131904000Y-89083689D02*
X132222198Y-89401887D01*
X132222198Y-98976113D02*
X131904000Y-99294311D01*
X136691113Y-94507198D02*
X137009311Y-94189000D01*
X131904000Y-99294311D02*
X131585802Y-98976113D01*
X137009311Y-94189000D02*
X136691113Y-93870802D01*
X127116887Y-93870802D02*
X126798689Y-94189000D01*
X132222198Y-89401887D02*
X133134366Y-88489719D01*
X131585802Y-89401887D02*
X131904000Y-89083689D01*
X126798689Y-94189000D02*
X127116887Y-94507198D01*
X123830000Y-91836221D02*
X123830000Y-92161779D01*
X122810000Y-91836221D02*
X122810000Y-92161779D01*
X175284500Y-98516221D02*
X175284500Y-98841779D01*
X174264500Y-98516221D02*
X174264500Y-98841779D01*
X180174000Y-99024221D02*
X180174000Y-99349779D01*
X179154000Y-99024221D02*
X179154000Y-99349779D01*
X138301000Y-89164279D02*
X138301000Y-88838721D01*
X139321000Y-89164279D02*
X139321000Y-88838721D01*
X82911000Y-92129000D02*
X82911000Y-90329000D01*
X86131000Y-90329000D02*
X86131000Y-92779000D01*
X131414000Y-86664279D02*
X131414000Y-86338721D01*
X132434000Y-86664279D02*
X132434000Y-86338721D01*
X105460000Y-98609000D02*
X105460000Y-98839000D01*
X105460000Y-103329000D02*
X105460000Y-103099000D01*
X102740000Y-98609000D02*
X102740000Y-99919000D01*
X102740000Y-102019000D02*
X102740000Y-103329000D01*
X105460000Y-98609000D02*
X102740000Y-98609000D01*
X106600000Y-98839000D02*
X105460000Y-98839000D01*
X102740000Y-103329000D02*
X105460000Y-103329000D01*
X99990000Y-100331779D02*
X99990000Y-100006221D01*
X101010000Y-100331779D02*
X101010000Y-100006221D01*
X99210000Y-100527578D02*
X99210000Y-100010422D01*
X97790000Y-100527578D02*
X97790000Y-100010422D01*
X109205000Y-103070922D02*
X109205000Y-103588078D01*
X107785000Y-103070922D02*
X107785000Y-103588078D01*
M02*
