G04 #@! TF.GenerationSoftware,KiCad,Pcbnew,5.1.9+dfsg1-1*
G04 #@! TF.CreationDate,2021-03-24T21:41:14+01:00*
G04 #@! TF.ProjectId,ctrl-m,6374726c-2d6d-42e6-9b69-6361645f7063,1.0*
G04 #@! TF.SameCoordinates,Original*
G04 #@! TF.FileFunction,Legend,Bot*
G04 #@! TF.FilePolarity,Positive*
%FSLAX46Y46*%
G04 Gerber Fmt 4.6, Leading zero omitted, Abs format (unit mm)*
G04 Created by KiCad (PCBNEW 5.1.9+dfsg1-1) date 2021-03-24 21:41:14*
%MOMM*%
%LPD*%
G01*
G04 APERTURE LIST*
%ADD10C,0.120000*%
%ADD11C,0.150000*%
G04 APERTURE END LIST*
D10*
X108218000Y-81933279D02*
X108218000Y-81607721D01*
X109238000Y-81933279D02*
X109238000Y-81607721D01*
X110371000Y-100944422D02*
X110371000Y-101461578D01*
X108951000Y-100944422D02*
X108951000Y-101461578D01*
X111691000Y-101040221D02*
X111691000Y-101365779D01*
X112711000Y-101040221D02*
X112711000Y-101365779D01*
X125655000Y-103070922D02*
X125655000Y-103588078D01*
X127075000Y-103070922D02*
X127075000Y-103588078D01*
X123830000Y-91928721D02*
X123830000Y-92254279D01*
X122810000Y-91928721D02*
X122810000Y-92254279D01*
X132434000Y-86664279D02*
X132434000Y-86338721D01*
X131414000Y-86664279D02*
X131414000Y-86338721D01*
X134161221Y-100779000D02*
X134486779Y-100779000D01*
X134161221Y-101799000D02*
X134486779Y-101799000D01*
X125287500Y-94625279D02*
X125287500Y-94299721D01*
X124267500Y-94625279D02*
X124267500Y-94299721D01*
X174264500Y-98516221D02*
X174264500Y-98841779D01*
X175284500Y-98516221D02*
X175284500Y-98841779D01*
X178586500Y-97373221D02*
X178586500Y-97698779D01*
X177566500Y-97373221D02*
X177566500Y-97698779D01*
X179154000Y-99024221D02*
X179154000Y-99349779D01*
X180174000Y-99024221D02*
X180174000Y-99349779D01*
X82911000Y-92129000D02*
X82911000Y-90329000D01*
X86131000Y-90329000D02*
X86131000Y-92779000D01*
X121071000Y-99063000D02*
X121071000Y-100323000D01*
X121071000Y-105883000D02*
X121071000Y-104623000D01*
X117311000Y-99063000D02*
X121071000Y-99063000D01*
X115061000Y-105883000D02*
X121071000Y-105883000D01*
X132222198Y-98976113D02*
X131904000Y-99294311D01*
X131904000Y-99294311D02*
X131585802Y-98976113D01*
X136691113Y-94507198D02*
X137009311Y-94189000D01*
X137009311Y-94189000D02*
X136691113Y-93870802D01*
X127116887Y-93870802D02*
X126798689Y-94189000D01*
X126798689Y-94189000D02*
X127116887Y-94507198D01*
X131585802Y-89401887D02*
X131904000Y-89083689D01*
X131904000Y-89083689D02*
X132222198Y-89401887D01*
X132222198Y-89401887D02*
X133134366Y-88489719D01*
X138301000Y-89164279D02*
X138301000Y-88838721D01*
X139321000Y-89164279D02*
X139321000Y-88838721D01*
D11*
X118537619Y-96631380D02*
X118870952Y-96155190D01*
X119109047Y-96631380D02*
X119109047Y-95631380D01*
X118728095Y-95631380D01*
X118632857Y-95679000D01*
X118585238Y-95726619D01*
X118537619Y-95821857D01*
X118537619Y-95964714D01*
X118585238Y-96059952D01*
X118632857Y-96107571D01*
X118728095Y-96155190D01*
X119109047Y-96155190D01*
X118109047Y-96107571D02*
X117775714Y-96107571D01*
X117632857Y-96631380D02*
X118109047Y-96631380D01*
X118109047Y-95631380D01*
X117632857Y-95631380D01*
X116870952Y-96107571D02*
X117204285Y-96107571D01*
X117204285Y-96631380D02*
X117204285Y-95631380D01*
X116728095Y-95631380D01*
X116442380Y-95631380D02*
X115823333Y-95631380D01*
X116156666Y-96012333D01*
X116013809Y-96012333D01*
X115918571Y-96059952D01*
X115870952Y-96107571D01*
X115823333Y-96202809D01*
X115823333Y-96440904D01*
X115870952Y-96536142D01*
X115918571Y-96583761D01*
X116013809Y-96631380D01*
X116299523Y-96631380D01*
X116394761Y-96583761D01*
X116442380Y-96536142D01*
X217317619Y-114871380D02*
X217650952Y-114395190D01*
X217889047Y-114871380D02*
X217889047Y-113871380D01*
X217508095Y-113871380D01*
X217412857Y-113919000D01*
X217365238Y-113966619D01*
X217317619Y-114061857D01*
X217317619Y-114204714D01*
X217365238Y-114299952D01*
X217412857Y-114347571D01*
X217508095Y-114395190D01*
X217889047Y-114395190D01*
X216889047Y-114347571D02*
X216555714Y-114347571D01*
X216412857Y-114871380D02*
X216889047Y-114871380D01*
X216889047Y-113871380D01*
X216412857Y-113871380D01*
X215650952Y-114347571D02*
X215984285Y-114347571D01*
X215984285Y-114871380D02*
X215984285Y-113871380D01*
X215508095Y-113871380D01*
X215174761Y-113966619D02*
X215127142Y-113919000D01*
X215031904Y-113871380D01*
X214793809Y-113871380D01*
X214698571Y-113919000D01*
X214650952Y-113966619D01*
X214603333Y-114061857D01*
X214603333Y-114157095D01*
X214650952Y-114299952D01*
X215222380Y-114871380D01*
X214603333Y-114871380D01*
X65257619Y-79861380D02*
X65590952Y-79385190D01*
X65829047Y-79861380D02*
X65829047Y-78861380D01*
X65448095Y-78861380D01*
X65352857Y-78909000D01*
X65305238Y-78956619D01*
X65257619Y-79051857D01*
X65257619Y-79194714D01*
X65305238Y-79289952D01*
X65352857Y-79337571D01*
X65448095Y-79385190D01*
X65829047Y-79385190D01*
X64829047Y-79337571D02*
X64495714Y-79337571D01*
X64352857Y-79861380D02*
X64829047Y-79861380D01*
X64829047Y-78861380D01*
X64352857Y-78861380D01*
X63590952Y-79337571D02*
X63924285Y-79337571D01*
X63924285Y-79861380D02*
X63924285Y-78861380D01*
X63448095Y-78861380D01*
X62543333Y-79861380D02*
X63114761Y-79861380D01*
X62829047Y-79861380D02*
X62829047Y-78861380D01*
X62924285Y-79004238D01*
X63019523Y-79099476D01*
X63114761Y-79147095D01*
X107922380Y-81603833D02*
X107446190Y-81270500D01*
X107922380Y-81032404D02*
X106922380Y-81032404D01*
X106922380Y-81413357D01*
X106970000Y-81508595D01*
X107017619Y-81556214D01*
X107112857Y-81603833D01*
X107255714Y-81603833D01*
X107350952Y-81556214D01*
X107398571Y-81508595D01*
X107446190Y-81413357D01*
X107446190Y-81032404D01*
X107922380Y-82556214D02*
X107922380Y-81984785D01*
X107922380Y-82270500D02*
X106922380Y-82270500D01*
X107065238Y-82175261D01*
X107160476Y-82080023D01*
X107208095Y-81984785D01*
X108317142Y-100412333D02*
X108364761Y-100364714D01*
X108412380Y-100221857D01*
X108412380Y-100126619D01*
X108364761Y-99983761D01*
X108269523Y-99888523D01*
X108174285Y-99840904D01*
X107983809Y-99793285D01*
X107840952Y-99793285D01*
X107650476Y-99840904D01*
X107555238Y-99888523D01*
X107460000Y-99983761D01*
X107412380Y-100126619D01*
X107412380Y-100221857D01*
X107460000Y-100364714D01*
X107507619Y-100412333D01*
X108412380Y-101364714D02*
X108412380Y-100793285D01*
X108412380Y-101079000D02*
X107412380Y-101079000D01*
X107555238Y-100983761D01*
X107650476Y-100888523D01*
X107698095Y-100793285D01*
X114007142Y-100162333D02*
X114054761Y-100114714D01*
X114102380Y-99971857D01*
X114102380Y-99876619D01*
X114054761Y-99733761D01*
X113959523Y-99638523D01*
X113864285Y-99590904D01*
X113673809Y-99543285D01*
X113530952Y-99543285D01*
X113340476Y-99590904D01*
X113245238Y-99638523D01*
X113150000Y-99733761D01*
X113102380Y-99876619D01*
X113102380Y-99971857D01*
X113150000Y-100114714D01*
X113197619Y-100162333D01*
X113197619Y-100543285D02*
X113150000Y-100590904D01*
X113102380Y-100686142D01*
X113102380Y-100924238D01*
X113150000Y-101019476D01*
X113197619Y-101067095D01*
X113292857Y-101114714D01*
X113388095Y-101114714D01*
X113530952Y-101067095D01*
X114102380Y-100495666D01*
X114102380Y-101114714D01*
X128347142Y-103112333D02*
X128394761Y-103064714D01*
X128442380Y-102921857D01*
X128442380Y-102826619D01*
X128394761Y-102683761D01*
X128299523Y-102588523D01*
X128204285Y-102540904D01*
X128013809Y-102493285D01*
X127870952Y-102493285D01*
X127680476Y-102540904D01*
X127585238Y-102588523D01*
X127490000Y-102683761D01*
X127442380Y-102826619D01*
X127442380Y-102921857D01*
X127490000Y-103064714D01*
X127537619Y-103112333D01*
X127442380Y-103445666D02*
X127442380Y-104064714D01*
X127823333Y-103731380D01*
X127823333Y-103874238D01*
X127870952Y-103969476D01*
X127918571Y-104017095D01*
X128013809Y-104064714D01*
X128251904Y-104064714D01*
X128347142Y-104017095D01*
X128394761Y-103969476D01*
X128442380Y-103874238D01*
X128442380Y-103588523D01*
X128394761Y-103493285D01*
X128347142Y-103445666D01*
X123807142Y-89402333D02*
X123854761Y-89354714D01*
X123902380Y-89211857D01*
X123902380Y-89116619D01*
X123854761Y-88973761D01*
X123759523Y-88878523D01*
X123664285Y-88830904D01*
X123473809Y-88783285D01*
X123330952Y-88783285D01*
X123140476Y-88830904D01*
X123045238Y-88878523D01*
X122950000Y-88973761D01*
X122902380Y-89116619D01*
X122902380Y-89211857D01*
X122950000Y-89354714D01*
X122997619Y-89402333D01*
X123235714Y-90259476D02*
X123902380Y-90259476D01*
X122854761Y-90021380D02*
X123569047Y-89783285D01*
X123569047Y-90402333D01*
X133777142Y-87062333D02*
X133824761Y-87014714D01*
X133872380Y-86871857D01*
X133872380Y-86776619D01*
X133824761Y-86633761D01*
X133729523Y-86538523D01*
X133634285Y-86490904D01*
X133443809Y-86443285D01*
X133300952Y-86443285D01*
X133110476Y-86490904D01*
X133015238Y-86538523D01*
X132920000Y-86633761D01*
X132872380Y-86776619D01*
X132872380Y-86871857D01*
X132920000Y-87014714D01*
X132967619Y-87062333D01*
X132872380Y-87967095D02*
X132872380Y-87490904D01*
X133348571Y-87443285D01*
X133300952Y-87490904D01*
X133253333Y-87586142D01*
X133253333Y-87824238D01*
X133300952Y-87919476D01*
X133348571Y-87967095D01*
X133443809Y-88014714D01*
X133681904Y-88014714D01*
X133777142Y-87967095D01*
X133824761Y-87919476D01*
X133872380Y-87824238D01*
X133872380Y-87586142D01*
X133824761Y-87490904D01*
X133777142Y-87443285D01*
X135556666Y-103116142D02*
X135604285Y-103163761D01*
X135747142Y-103211380D01*
X135842380Y-103211380D01*
X135985238Y-103163761D01*
X136080476Y-103068523D01*
X136128095Y-102973285D01*
X136175714Y-102782809D01*
X136175714Y-102639952D01*
X136128095Y-102449476D01*
X136080476Y-102354238D01*
X135985238Y-102259000D01*
X135842380Y-102211380D01*
X135747142Y-102211380D01*
X135604285Y-102259000D01*
X135556666Y-102306619D01*
X134699523Y-102211380D02*
X134890000Y-102211380D01*
X134985238Y-102259000D01*
X135032857Y-102306619D01*
X135128095Y-102449476D01*
X135175714Y-102639952D01*
X135175714Y-103020904D01*
X135128095Y-103116142D01*
X135080476Y-103163761D01*
X134985238Y-103211380D01*
X134794761Y-103211380D01*
X134699523Y-103163761D01*
X134651904Y-103116142D01*
X134604285Y-103020904D01*
X134604285Y-102782809D01*
X134651904Y-102687571D01*
X134699523Y-102639952D01*
X134794761Y-102592333D01*
X134985238Y-102592333D01*
X135080476Y-102639952D01*
X135128095Y-102687571D01*
X135175714Y-102782809D01*
X125127142Y-96762333D02*
X125174761Y-96714714D01*
X125222380Y-96571857D01*
X125222380Y-96476619D01*
X125174761Y-96333761D01*
X125079523Y-96238523D01*
X124984285Y-96190904D01*
X124793809Y-96143285D01*
X124650952Y-96143285D01*
X124460476Y-96190904D01*
X124365238Y-96238523D01*
X124270000Y-96333761D01*
X124222380Y-96476619D01*
X124222380Y-96571857D01*
X124270000Y-96714714D01*
X124317619Y-96762333D01*
X124222380Y-97095666D02*
X124222380Y-97762333D01*
X125222380Y-97333761D01*
X173796880Y-98512333D02*
X173320690Y-98179000D01*
X173796880Y-97940904D02*
X172796880Y-97940904D01*
X172796880Y-98321857D01*
X172844500Y-98417095D01*
X172892119Y-98464714D01*
X172987357Y-98512333D01*
X173130214Y-98512333D01*
X173225452Y-98464714D01*
X173273071Y-98417095D01*
X173320690Y-98321857D01*
X173320690Y-97940904D01*
X172892119Y-98893285D02*
X172844500Y-98940904D01*
X172796880Y-99036142D01*
X172796880Y-99274238D01*
X172844500Y-99369476D01*
X172892119Y-99417095D01*
X172987357Y-99464714D01*
X173082595Y-99464714D01*
X173225452Y-99417095D01*
X173796880Y-98845666D01*
X173796880Y-99464714D01*
X177072380Y-96622333D02*
X176596190Y-96289000D01*
X177072380Y-96050904D02*
X176072380Y-96050904D01*
X176072380Y-96431857D01*
X176120000Y-96527095D01*
X176167619Y-96574714D01*
X176262857Y-96622333D01*
X176405714Y-96622333D01*
X176500952Y-96574714D01*
X176548571Y-96527095D01*
X176596190Y-96431857D01*
X176596190Y-96050904D01*
X176072380Y-96955666D02*
X176072380Y-97574714D01*
X176453333Y-97241380D01*
X176453333Y-97384238D01*
X176500952Y-97479476D01*
X176548571Y-97527095D01*
X176643809Y-97574714D01*
X176881904Y-97574714D01*
X176977142Y-97527095D01*
X177024761Y-97479476D01*
X177072380Y-97384238D01*
X177072380Y-97098523D01*
X177024761Y-97003285D01*
X176977142Y-96955666D01*
X181722380Y-99102333D02*
X181246190Y-98769000D01*
X181722380Y-98530904D02*
X180722380Y-98530904D01*
X180722380Y-98911857D01*
X180770000Y-99007095D01*
X180817619Y-99054714D01*
X180912857Y-99102333D01*
X181055714Y-99102333D01*
X181150952Y-99054714D01*
X181198571Y-99007095D01*
X181246190Y-98911857D01*
X181246190Y-98530904D01*
X181055714Y-99959476D02*
X181722380Y-99959476D01*
X180674761Y-99721380D02*
X181389047Y-99483285D01*
X181389047Y-100102333D01*
X86873380Y-90467095D02*
X87682904Y-90467095D01*
X87778142Y-90514714D01*
X87825761Y-90562333D01*
X87873380Y-90657571D01*
X87873380Y-90848047D01*
X87825761Y-90943285D01*
X87778142Y-90990904D01*
X87682904Y-91038523D01*
X86873380Y-91038523D01*
X87873380Y-92038523D02*
X87873380Y-91467095D01*
X87873380Y-91752809D02*
X86873380Y-91752809D01*
X87016238Y-91657571D01*
X87111476Y-91562333D01*
X87159095Y-91467095D01*
X119922904Y-106425380D02*
X119922904Y-107234904D01*
X119875285Y-107330142D01*
X119827666Y-107377761D01*
X119732428Y-107425380D01*
X119541952Y-107425380D01*
X119446714Y-107377761D01*
X119399095Y-107330142D01*
X119351476Y-107234904D01*
X119351476Y-106425380D01*
X118922904Y-106520619D02*
X118875285Y-106473000D01*
X118780047Y-106425380D01*
X118541952Y-106425380D01*
X118446714Y-106473000D01*
X118399095Y-106520619D01*
X118351476Y-106615857D01*
X118351476Y-106711095D01*
X118399095Y-106853952D01*
X118970523Y-107425380D01*
X118351476Y-107425380D01*
X127918947Y-89126451D02*
X128491367Y-89698871D01*
X128525039Y-89799886D01*
X128525039Y-89867230D01*
X128491367Y-89968245D01*
X128356680Y-90102932D01*
X128255665Y-90136604D01*
X128188321Y-90136604D01*
X128087306Y-90102932D01*
X127514886Y-89530512D01*
X127245512Y-89799886D02*
X126807780Y-90237619D01*
X127312856Y-90271291D01*
X127211841Y-90372306D01*
X127178169Y-90473321D01*
X127178169Y-90540665D01*
X127211841Y-90641680D01*
X127380199Y-90810039D01*
X127481215Y-90843711D01*
X127548558Y-90843711D01*
X127649573Y-90810039D01*
X127851604Y-90608008D01*
X127885276Y-90506993D01*
X127885276Y-90439650D01*
X137777142Y-88782333D02*
X137824761Y-88734714D01*
X137872380Y-88591857D01*
X137872380Y-88496619D01*
X137824761Y-88353761D01*
X137729523Y-88258523D01*
X137634285Y-88210904D01*
X137443809Y-88163285D01*
X137300952Y-88163285D01*
X137110476Y-88210904D01*
X137015238Y-88258523D01*
X136920000Y-88353761D01*
X136872380Y-88496619D01*
X136872380Y-88591857D01*
X136920000Y-88734714D01*
X136967619Y-88782333D01*
X137300952Y-89353761D02*
X137253333Y-89258523D01*
X137205714Y-89210904D01*
X137110476Y-89163285D01*
X137062857Y-89163285D01*
X136967619Y-89210904D01*
X136920000Y-89258523D01*
X136872380Y-89353761D01*
X136872380Y-89544238D01*
X136920000Y-89639476D01*
X136967619Y-89687095D01*
X137062857Y-89734714D01*
X137110476Y-89734714D01*
X137205714Y-89687095D01*
X137253333Y-89639476D01*
X137300952Y-89544238D01*
X137300952Y-89353761D01*
X137348571Y-89258523D01*
X137396190Y-89210904D01*
X137491428Y-89163285D01*
X137681904Y-89163285D01*
X137777142Y-89210904D01*
X137824761Y-89258523D01*
X137872380Y-89353761D01*
X137872380Y-89544238D01*
X137824761Y-89639476D01*
X137777142Y-89687095D01*
X137681904Y-89734714D01*
X137491428Y-89734714D01*
X137396190Y-89687095D01*
X137348571Y-89639476D01*
X137300952Y-89544238D01*
M02*
